<svg width="17" height="17" viewBox="0 0 17 17" fill="none" xmlns="http://www.w3.org/2000/svg">
<path d="M8.34661 0.676544C3.90135 0.676544 0.286158 4.29025 0.28418 8.7323C0.283686 10.2545 0.709846 11.7369 1.51644 13.0196L1.70801 13.3244L0.893757 16.2974L3.94387 15.4975L4.23827 15.672C5.47547 16.4061 6.89386 16.7945 8.33994 16.795H8.34315C12.785 16.795 16.4001 13.181 16.4021 8.73872C16.4029 6.58593 15.5654 4.56191 14.0439 3.03921C12.5224 1.5165 10.4989 0.677286 8.34661 0.676544ZM13.0868 12.196C12.8848 12.7615 11.9171 13.2779 11.4516 13.3476C11.0341 13.4099 10.5061 13.4359 9.92568 13.2517C9.57368 13.14 9.12255 12.9909 8.54437 12.7415C6.11422 11.6924 4.52699 9.24621 4.40587 9.08455C4.28475 8.92288 3.4166 7.77121 3.4166 6.579C3.4166 5.38704 4.0425 4.80095 4.26448 4.5587C4.4867 4.31621 4.74922 4.25564 4.91064 4.25564C5.07205 4.25564 5.23372 4.25713 5.37486 4.26405C5.52367 4.27146 5.72341 4.20744 5.91992 4.67982C6.12188 5.16482 6.60638 6.35678 6.66694 6.4779C6.7275 6.59927 6.7678 6.74067 6.68721 6.90233C6.60638 7.064 6.33793 7.41278 6.08159 7.73067C5.97406 7.86391 5.8339 7.98256 5.9753 8.22506C6.11644 8.46731 6.60292 9.26055 7.32299 9.90275C8.24848 10.7279 9.02911 10.9835 9.27136 11.1048C9.51336 11.226 9.65476 11.2057 9.79615 11.0443C9.9373 10.8826 10.4018 10.3371 10.5632 10.0946C10.7246 9.85208 10.8863 9.89262 11.1082 9.97345C11.3305 10.054 12.5214 10.6401 12.7637 10.7613C13.0059 10.8826 13.1674 10.9432 13.2279 11.0443C13.2887 11.1454 13.2887 11.6301 13.0868 12.196Z" fill="#333333"/>
</svg>
