<svg width="18" height="18" viewBox="0 0 18 18" fill="none" xmlns="http://www.w3.org/2000/svg">
<path d="M7.45363 10.5464C5.73556 8.82838 5.34763 7.11031 5.26011 6.42196C5.23566 6.23163 5.30115 6.04076 5.43732 5.90555L6.82766 4.51582C7.03219 4.31143 7.06848 3.99289 6.91518 3.74772L4.70149 0.310342C4.53189 0.0388677 4.18366 -0.0591102 3.89739 0.0841008L0.343629 1.75779C0.11213 1.87178 -0.0240347 2.11774 0.00224947 2.37445C0.188456 4.14341 0.959663 8.49196 5.23311 12.7657C9.50656 17.0395 13.8545 17.8104 15.6244 17.9966C15.8811 18.0229 16.1271 17.8867 16.241 17.6552L17.9147 14.1014C18.0574 13.8158 17.9601 13.4685 17.6897 13.2986L14.2524 11.0855C14.0073 10.9321 13.6888 10.9681 13.4843 11.1724L12.0945 12.5628C11.9593 12.6989 11.7684 12.7644 11.5781 12.74C10.8898 12.6524 9.1717 12.2645 7.45363 10.5464Z" fill="#333333"/>
</svg>
