<svg width="24" height="24" viewBox="0 0 24 24" fill="none" xmlns="http://www.w3.org/2000/svg">
<g clip-path="url(#clip0_43_55)">
<path d="M17.5034 0H6.49657C2.9143 0 0 2.87177 0 6.40175V17.2481C0 20.7779 2.9143 23.6497 6.49657 23.6497H17.5036C21.0857 23.6497 24 20.7779 24 17.2481V6.40175C24 2.87177 21.0857 0 17.5034 0V0ZM22.593 17.2481C22.593 20.0134 20.3098 22.2632 17.5034 22.2632H6.49657C3.69012 22.2632 1.40698 20.0134 1.40698 17.2481V6.40175C1.40698 3.63626 3.69012 1.38644 6.49657 1.38644H17.5036C20.3098 1.38644 22.593 3.63626 22.593 6.40175V17.2481Z" fill="#333333"/>
<path d="M12 5.35834C8.38152 5.35834 5.43774 8.25915 5.43774 11.8249C5.43774 15.3906 8.38152 18.2914 12 18.2914C15.6186 18.2914 18.5624 15.3906 18.5624 11.8249C18.5624 8.25915 15.6186 5.35834 12 5.35834ZM12 16.9049C9.15752 16.9049 6.84472 14.6261 6.84472 11.8249C6.84472 9.02383 9.15752 6.74478 12 6.74478C14.8428 6.74478 17.1554 9.02383 17.1554 11.8249C17.1554 14.6261 14.8428 16.9049 12 16.9049Z" fill="#333333"/>
<path d="M18.7191 3.06177C17.6498 3.06177 16.78 3.919 16.78 4.97255C16.78 6.02628 17.6498 6.88351 18.7191 6.88351C19.7884 6.88351 20.6584 6.02628 20.6584 4.97255C20.6584 3.91882 19.7884 3.06177 18.7191 3.06177ZM18.7191 5.49689C18.4258 5.49689 18.187 5.2616 18.187 4.97255C18.187 4.68332 18.4258 4.44821 18.7191 4.44821C19.0126 4.44821 19.2514 4.68332 19.2514 4.97255C19.2514 5.2616 19.0126 5.49689 18.7191 5.49689Z" fill="#333333"/>
</g>
<defs>
<clipPath id="clip0_43_55">
<rect width="24" height="23.6497" fill="white"/>
</clipPath>
</defs>
</svg>
