<svg width="24" height="24" viewBox="0 0 24 24" fill="none" xmlns="http://www.w3.org/2000/svg">
<path d="M0.423911 11.4025L5.95399 13.4364L8.09447 20.2197C8.23143 20.6541 8.77055 20.8147 9.12839 20.5264L12.211 18.0501C12.5341 17.7907 12.9943 17.7778 13.332 18.0193L18.8918 21.997C19.2746 22.2711 19.817 22.0644 19.913 21.6086L23.9858 2.30327C24.0906 1.80536 23.5942 1.38999 23.113 1.57336L0.417431 10.2009C-0.142649 10.4137 -0.137769 11.1951 0.423911 11.4025ZM7.74951 12.3537L18.5574 5.79428C18.7516 5.67674 18.9514 5.93555 18.7846 6.08801L9.86503 14.2582C9.55151 14.5458 9.34927 14.9306 9.29199 15.3484L8.98815 17.5672C8.94791 17.8635 8.52559 17.8929 8.44263 17.6061L7.27407 13.5601C7.14023 13.0986 7.33527 12.6056 7.74951 12.3537Z" fill="#333333"/>
</svg>
