<svg width="24" height="24" viewBox="0 0 24 24" fill="none" xmlns="http://www.w3.org/2000/svg">
<g clip-path="url(#clip0_43_53)">
<path d="M21.7844 5.19485C19.2653 5.19485 17.2158 3.17526 17.2158 0.692863C17.2158 0.310164 16.9008 0 16.5126 0H12.7469C12.3585 0 12.0438 0.310164 12.0438 0.692863V15.9066C12.0438 17.366 10.8389 18.5532 9.35779 18.5532C7.87683 18.5532 6.672 17.366 6.672 15.9066C6.672 14.4471 7.87683 13.2598 9.35779 13.2598C9.74615 13.2598 10.0609 12.9497 10.0609 12.567V8.85619C10.0609 8.47368 9.74615 8.16333 9.35779 8.16333C5.02496 8.16333 1.5 11.637 1.5 15.9066C1.5 20.1762 5.02496 23.6497 9.35779 23.6497C13.6906 23.6497 17.2158 20.1762 17.2158 15.9066V9.17231C18.6152 9.90758 20.1724 10.2914 21.7844 10.2914C22.1728 10.2914 22.4875 9.98119 22.4875 9.5985V5.88771C22.4875 5.50519 22.1728 5.19485 21.7844 5.19485ZM21.0813 8.87694C19.5802 8.75389 18.1547 8.23713 16.9232 7.36419C16.7091 7.21227 16.4268 7.19134 16.1918 7.31006C15.9571 7.42843 15.8095 7.6666 15.8095 7.9266V15.9066C15.8095 19.4121 12.9152 22.264 9.35779 22.264C5.80042 22.264 2.90625 19.4121 2.90625 15.9066C2.90625 12.6352 5.42688 9.93284 8.65466 9.58659V11.9337C6.73206 12.2631 5.26575 13.9191 5.26575 15.9066C5.26575 18.1301 7.10138 19.9391 9.35779 19.9391C11.6144 19.9391 13.45 18.1301 13.45 15.9066V1.38573H15.8505C16.1726 4.07959 18.3475 6.22277 21.0813 6.54016V8.87694Z" fill="#333333"/>
</g>
<defs>
<clipPath id="clip0_43_53">
<rect width="24" height="23.6497" fill="white"/>
</clipPath>
</defs>
</svg>
