<svg width="24" height="24" viewBox="0 0 24 24" fill="none" xmlns="http://www.w3.org/2000/svg">
<g clip-path="url(#clip0_43_64)">
<path d="M20.4338 3.43436C18.1793 1.22099 15.18 0.00126303 11.9879 0C8.80298 0 5.79895 1.21864 3.52954 3.43148C1.2561 5.6481 0.00292969 8.59385 0 11.7153V11.7189V11.7211C0.000366211 13.6104 0.504089 15.5163 1.46027 17.2561L0.0327759 23.6497L6.59583 22.1786C8.25806 23.0041 10.1127 23.4393 11.9833 23.4401H11.9881C15.1725 23.4401 18.1765 22.2212 20.4463 20.0082C22.7217 17.7898 23.9755 14.8478 23.9769 11.7244C23.9778 8.6229 22.7197 5.67877 20.4338 3.43436ZM11.9879 21.5942H11.9837C10.3041 21.5935 8.63983 21.178 7.17114 20.3922L6.86078 20.2262L2.49664 21.2043L3.44458 16.9591L3.26184 16.6486C2.35327 15.1046 1.87317 13.4002 1.87317 11.7191C1.87665 6.27781 6.41364 1.84583 11.9875 1.84583C14.6803 1.84691 17.2104 2.87556 19.1118 4.74196C21.0419 6.63723 22.1045 9.11674 22.1036 11.7238C22.1014 17.1664 17.5635 21.5942 11.9879 21.5942Z" fill="#333333"/>
<path d="M8.72577 6.5528H8.20026C8.01733 6.5528 7.72034 6.62028 7.46912 6.88966C7.21771 7.15923 6.50928 7.81077 6.50928 9.13587C6.50928 10.461 7.492 11.7413 7.62897 11.9212C7.76611 12.1009 9.52594 14.907 12.3132 15.9866C14.6296 16.8837 15.1011 16.7052 15.6038 16.6603C16.1066 16.6155 17.2263 16.0089 17.4548 15.3801C17.6833 14.7513 17.6833 14.2122 17.6148 14.0996C17.5461 13.9874 17.3632 13.9201 17.0891 13.7855C16.8148 13.6507 15.4708 12.9881 15.2194 12.8981C14.968 12.8084 14.7853 12.7635 14.6024 13.0332C14.4194 13.3024 13.8809 13.9253 13.7209 14.105C13.561 14.2849 13.401 14.3074 13.1267 14.1727C12.8524 14.0375 11.9783 13.7481 10.9307 12.8308C10.1154 12.1168 9.54956 11.2063 9.38953 10.9368C9.22968 10.6674 9.3725 10.5216 9.51001 10.3872C9.63324 10.2666 9.79968 10.1017 9.93683 9.94457C10.0738 9.78724 10.1128 9.67501 10.2043 9.4953C10.2957 9.31559 10.2499 9.15825 10.1815 9.02364C10.1128 8.88886 9.58655 7.55709 9.34265 7.02445H9.34283C9.13739 6.57589 8.92114 6.56073 8.72577 6.5528Z" fill="#333333"/>
</g>
<defs>
<clipPath id="clip0_43_64">
<rect width="24" height="23.6497" fill="white"/>
</clipPath>
</defs>
</svg>
