<?xml version="1.0" standalone="no"?>
<!DOCTYPE svg PUBLIC "-//W3C//DTD SVG 1.1//EN" "http://www.w3.org/Graphics/SVG/1.1/DTD/svg11.dtd" >
<svg xmlns="http://www.w3.org/2000/svg" xmlns:xlink="http://www.w3.org/1999/xlink" version="1.1">
<metadata></metadata>
<defs>
<font id="core_mellow55_medium" horiz-adv-x="1130" >
<font-face units-per-em="2048" ascent="1571" descent="-477" />
<missing-glyph horiz-adv-x="491" />
<glyph horiz-adv-x="0" />
<glyph horiz-adv-x="682" />
<glyph unicode=" "  horiz-adv-x="491" />
<glyph unicode="&#x09;" horiz-adv-x="491" />
<glyph unicode="&#xa0;" horiz-adv-x="491" />
<glyph unicode="!" horiz-adv-x="561" d="M154 88v72q0 50 34 81t93 31t93 -31t34 -81v-72q0 -50 -34 -81.5t-93 -31.5t-93 31.5t-34 81.5zM156 1343v35q0 80 125 80t125 -80v-35l-23 -909q0 -72 -102 -72q-103 0 -103 72z" />
<glyph unicode="&#x22;" horiz-adv-x="929" d="M152 924v462q0 72 112 72q113 0 113 -72v-462q0 -72 -113 -72q-112 0 -112 72zM553 924v462q0 72 113 72q112 0 112 -72v-462q0 -72 -112 -72q-113 0 -113 72z" />
<glyph unicode="#" horiz-adv-x="1282" d="M61 442q0 95 60 95h168v370h-168q-60 0 -60 94q0 95 60 95h168v260q0 58 23.5 80t88.5 22q67 0 91 -22t24 -80v-260h250v260q0 58 24 80t89 22q66 0 90 -22t24 -80v-260h168q60 0 60 -95q0 -94 -60 -94h-168v-370h166q60 0 60 -95q0 -94 -60 -94h-166v-266q0 -58 -24 -80 t-90 -22q-65 0 -89 22t-24 80v266h-250v-266q0 -58 -24 -80t-91 -22q-65 0 -88.5 22t-23.5 80v266h-168q-60 0 -60 94zM516 537h250v370h-250v-370z" />
<glyph unicode="$" horiz-adv-x="1165" d="M125 371v18q0 76 123 76t123 -76v-6q0 -86 65.5 -142.5t163.5 -56.5t156.5 50.5t58.5 136.5q0 92 -68.5 153.5t-228.5 110.5q-393 120 -393 428q0 151 89.5 255.5t240.5 135.5v135q0 74 118 74q119 0 119 -74v-135q159 -31 250 -135q94 -104 94 -232v-30q0 -76 -123 -76 q-122 0 -122 76v10q0 81 -60.5 135.5t-155.5 54.5q-91 0 -146.5 -47.5t-55.5 -128.5q0 -158 280 -250q216 -71 315 -174t99 -272q0 -156 -90.5 -262t-253.5 -135v-135q0 -74 -119 -74t-119 74v133q-164 29 -264 139q-96 113 -96 246z" />
<glyph unicode="%" horiz-adv-x="1490" d="M102 1016v168q0 127 76 204.5t199 77.5t198.5 -77.5t75.5 -204.5v-168q0 -127 -75.5 -205t-198.5 -78t-199 78t-76 205zM285 1040q0 -135 92 -135t92 135v119q0 135 -92 135t-92 -135v-119zM328 53q0 17 6 29l688 1343q16 31 45 31q35 0 65.5 -21t30.5 -46q0 -17 -6 -29 l-688 -1344q-15 -30 -45 -30q-35 0 -65.5 21t-30.5 46zM840 258v168q0 127 75.5 205t198.5 78t199 -78t76 -205v-168q0 -127 -76 -205t-199 -78t-198.5 78t-75.5 205zM1022 283q0 -136 92 -136t92 136v118q0 136 -92 136t-92 -136v-118z" />
<glyph unicode="&#x26;" horiz-adv-x="1243" d="M123 397q0 118 57.5 211.5t165.5 143.5q-88 50 -138 137.5t-50 191.5q0 164 114 275q116 110 310 110q201 0 313 -112q115 -112 115 -264v-21q0 -76 -123 -76t-123 76v12q0 76 -49.5 126t-130.5 50t-131 -50t-50 -126q0 -107 64.5 -168t169.5 -61h489q66 0 66 -104 q0 -105 -66 -105h-94v-240q0 -184 -123 -307q-124 -121 -331 -121q-211 0 -334 123q-121 124 -121 299zM369 414q0 -108 54 -169t155 -61t154.5 61t53.5 169v229h-206q-97 0 -154 -62.5t-57 -166.5z" />
<glyph unicode="'" horiz-adv-x="528" d="M152 924v462q0 72 112 72q113 0 113 -72v-462q0 -72 -113 -72q-112 0 -112 72z" />
<glyph unicode="(" horiz-adv-x="690" d="M133 618q0 393 115.5 633t314.5 305q37 12 72 -24.5t35 -91.5q0 -48 -54 -76q-251 -149 -251 -746q0 -596 251 -745q54 -28 54 -76q0 -55 -35 -91.5t-72 -24.5q-199 65 -314.5 304.5t-115.5 632.5z" />
<glyph unicode=")" horiz-adv-x="690" d="M20 -203q0 48 54 76q252 150 252 745q0 596 -252 746q-54 28 -54 76q0 55 35 91.5t72 24.5q199 -65 314.5 -305t115.5 -633t-115.5 -632.5t-314.5 -304.5q-37 -12 -72 24.5t-35 91.5z" />
<glyph unicode="*" horiz-adv-x="1097" d="M133 799q34 107 109 86l24 -8l219 -89l-16 240v27q0 75 115 75q114 0 114 -75v-27l-16 -240l219 89l25 8q74 21 108 -86q35 -112 -37 -133l-24 -9l-236 -59l156 -182l14 -21q47 -65 -47 -131q-95 -68 -139 -6l-14 21l-123 196l-123 -196l-15 -21q-44 -62 -139 6 q-94 66 -47 131l14 21l154 182l-233 59l-25 9q-72 21 -37 133z" />
<glyph unicode="+" d="M102 682q0 100 64 100h283v316q0 73 116 73q117 0 117 -73v-316h281q65 0 65 -100t-65 -100h-281v-316q0 -73 -117 -73q-116 0 -116 73v316h-283q-64 0 -64 100z" />
<glyph unicode="," horiz-adv-x="565" d="M125 -139q78 110 78 270v29q0 50 34 81t93 31t93 -31t34 -81v-27q0 -227 -170 -403q-58 -58 -140 6q-69 57 -22 125z" />
<glyph unicode="-" horiz-adv-x="843" d="M102 682q0 100 64 100h510q65 0 65 -100t-65 -100h-510q-64 0 -64 100z" />
<glyph unicode="." horiz-adv-x="565" d="M156 88v72q0 50 34 81t93 31t93 -31t34 -81v-72q0 -50 -34 -81.5t-93 -31.5t-93 31.5t-34 81.5z" />
<glyph unicode="/" horiz-adv-x="931" d="M70 -113l651 1626q14 35 50.5 44t86.5 -11q96 -41 66 -119l-652 -1626q-13 -35 -50.5 -43.5t-86.5 11.5q-95 41 -65 118z" />
<glyph unicode="0" d="M119 428v586q0 205 125 327q125 125 321 125q195 0 320 -125q127 -124 127 -327v-586q0 -203 -127 -330q-126 -123 -320 -123q-195 0 -321 123q-125 125 -125 330zM362 444q0 -260 203 -260t203 260v553q0 260 -203 260t-203 -260v-553z" />
<glyph unicode="1" d="M176 1270q-15 107 51 116l281 41q91 15 178 15q94 0 94 -78v-1305q0 -75 -123 -75q-122 0 -122 75v1155l-277 -36q-71 -10 -82 92z" />
<glyph unicode="2" d="M154 1044v35q0 157 114 271q113 116 310 116q203 0 317 -114q115 -115 115 -287v-70q0 -165 -75 -274t-237 -178q-163 -69 -223 -129q-57 -57 -57 -146v-59h524q66 0 66 -105q0 -104 -66 -104h-694q-76 0 -76 82v127q0 198 70 305q71 108 262 191q155 65 207 126 q53 65 53 173v67q0 90 -49 138t-133 48t-133.5 -48t-49.5 -138v-27q0 -75 -123 -75q-122 0 -122 75z" />
<glyph unicode="3" d="M119 201q0 39 41 80q41 38 84 38q32 0 53 -24q95 -111 235 -111q110 0 175 60.5t65 169.5q0 103 -61.5 163t-167.5 60h-107q-65 0 -65 104q0 105 65 105h78q100 0 161.5 61.5t61.5 163.5q0 90 -49 138t-133 48q-83 0 -132.5 -46.5t-49.5 -129.5v-6q0 -76 -123 -76 t-123 76v15q0 153 117 264q118 112 307 112q203 0 317 -114q115 -115 115 -287q0 -211 -182 -313q217 -99 217 -346q0 -191 -127 -312q-125 -119 -350 -119q-245 0 -391 158q-31 31 -31 68z" />
<glyph unicode="4" d="M102 309v195q0 187 113 385q166 292 379 487q43 40 85.5 53t117.5 13h49q76 0 76 -82v-924h114q66 0 66 -104q0 -105 -66 -105h-114v-168q0 -75 -123 -75t-123 75v168h-500q-74 0 -74 82zM346 436h330v688q-122 -122 -223 -295q-107 -180 -107 -315v-78z" />
<glyph unicode="5" d="M135 356v17q0 76 123 76t123 -76v-11q0 -77 57 -127.5t142 -50.5q90 0 143 54t53 155v123q0 117 -57.5 171t-175.5 54q-103 0 -197 -30q-41 -13 -82 -13q-84 0 -84 82v580q0 82 82 82h645q66 0 66 -105q0 -104 -66 -104h-481v-309q82 24 176 24q190 0 305 -121t115 -303 v-137q0 -183 -123 -297q-124 -115 -319 -115t-320 113t-125 268z" />
<glyph unicode="6" d="M131 408v657q0 181 117 291t319 110q199 0 312 -110q114 -111 114 -266v-15q0 -76 -123 -76q-122 0 -122 76v6q0 75 -53.5 125.5t-133.5 50.5q-78 0 -131 -50.5t-53 -125.5v-215q100 41 217 41q195 0 312.5 -115.5t117.5 -316.5v-67q0 -205 -125 -318 q-127 -115 -321 -115q-195 0 -322 115q-125 113 -125 318zM377 414q0 -111 53.5 -170.5t147.5 -59.5t147 59.5t53 170.5v61q0 223 -217 223q-99 0 -184 -39v-245z" />
<glyph unicode="7" d="M106 1337q0 105 66 105h723q74 0 74 -82v-260q0 -123 -45 -228q-47 -108 -156 -256q-79 -107 -111 -190.5t-32 -185.5v-181q0 -75 -123 -75t-123 75v166q0 157 37 267q39 115 149 260q86 116 121 202.5t35 186.5v92h-549q-66 0 -66 104z" />
<glyph unicode="8" d="M104 395q0 245 189 363q-158 115 -158 317q0 174 119 281q119 110 311 110q193 0 312 -110q118 -106 118 -281q0 -202 -157 -317q188 -117 188 -363q0 -181 -123 -301q-119 -119 -338 -119q-218 0 -340 119q-121 121 -121 301zM350 412q0 -107 58 -168q60 -60 157 -60 q96 0 156 60q59 62 59 168t-59 168q-57 63 -156 63q-98 0 -155 -63q-60 -63 -60 -168zM381 1057q0 -96 51 -150.5t133 -54.5t133.5 54.5t51.5 150.5t-49.5 148t-135.5 52t-135 -52t-49 -148z" />
<glyph unicode="9" d="M104 967v67q0 205 125 318q126 114 322 114q195 0 321 -114q125 -113 125 -318v-616q0 -203 -119.5 -323t-328.5 -120q-244 0 -387 158q-31 36 -31 68q0 39 41 80q41 38 84 38q32 0 53 -24q102 -111 232 -111q102 0 156.5 56t54.5 161v174q-98 -40 -217 -40 q-195 0 -313 115.5t-118 316.5zM350 967q0 -224 217 -224q100 0 185 39v246q0 111 -53.5 170t-147.5 59t-147.5 -59t-53.5 -170v-61z" />
<glyph unicode=":" horiz-adv-x="565" d="M156 88v72q0 50 34 81t93 31t93 -31t34 -81v-72q0 -50 -34 -81.5t-93 -31.5t-93 31.5t-34 81.5zM156 893v72q0 50 34 81t93 31t93 -31t34 -81v-72q0 -50 -34 -81.5t-93 -31.5t-93 31.5t-34 81.5z" />
<glyph unicode=";" horiz-adv-x="565" d="M125 -139q78 110 78 270v29q0 50 34 81t93 31t93 -31t34 -81v-27q0 -227 -170 -403q-58 -58 -140 6q-69 57 -22 125zM203 893v72q0 50 34 81t93 31t93 -31t34 -81v-72q0 -50 -34 -81.5t-93 -31.5t-93 31.5t-34 81.5z" />
<glyph unicode="&#x3c;" d="M217 678q0 24 16 37l508 499q49 52 123 -22q77 -77 27 -127l-399 -387l399 -389q52 -49 -27 -125q-74 -74 -123 -25l-508 502q-16 16 -16 37z" />
<glyph unicode="=" d="M102 467q0 100 64 100h797q65 0 65 -100t-65 -100h-797q-64 0 -64 100zM102 897q0 100 64 100h797q65 0 65 -100t-65 -100h-797q-64 0 -64 100z" />
<glyph unicode="&#x3e;" d="M291 289l399 389l-399 387q-51 51 26 127q71 74 123 22l508 -499q17 -14 17 -37q0 -20 -17 -37l-508 -502q-49 -49 -123 25q-78 76 -26 125z" />
<glyph unicode="?" horiz-adv-x="1007" d="M92 1094v8q0 149 115 258q112 106 297 106t297 -106q114 -108 114 -266q0 -177 -114 -291q-15 -14 -55 -49.5t-59 -55.5t-45.5 -53.5t-38 -69t-11.5 -75.5v-62q0 -76 -123 -76t-123 76v76q0 67 18 124t46.5 97.5t63 75.5t69 65.5t63 61t46.5 68t18 79.5q0 80 -45.5 128.5 t-120.5 48.5q-72 0 -119 -47t-47 -115v-6q0 -76 -121 -76q-125 0 -125 76zM344 88v72q0 50 34 81t93 31t93 -31t34 -81v-72q0 -50 -34 -81.5t-93 -31.5t-93 31.5t-34 81.5z" />
<glyph unicode="@" horiz-adv-x="1441" d="M123 303v586q0 250 170 414q172 163 428 163q257 0 426 -163q172 -163 172 -414v-586q0 -251 -172 -414q-169 -163 -426 -163q-256 0 -428 163q-170 164 -170 414zM221 317q0 -226 144 -364q145 -139 356 -139q209 0 354 139q146 140 146 364v557q0 225 -146 365 q-145 139 -354 139q-211 0 -356 -139q-144 -138 -144 -365v-557zM399 401q0 199 222 252l180 45q51 12 51 47v39q0 56 -35 90.5t-92 34.5t-92 -34.5t-35 -90.5v-6q0 -61 -98 -61q-99 0 -99 61v15q0 111 88 190q88 82 232 82q152 0 239 -87t87 -239v-293q0 -151 -92 -235 t-238 -84q-140 0 -230 78q-88 79 -88 196zM594 401q0 -51 35 -84.5t94 -33.5q61 0 95 38.5t34 110.5v127q-10 -10 -41 -18l-131 -33q-86 -21 -86 -107z" />
<glyph unicode="A" horiz-adv-x="1286" d="M154 59v936q0 212 139 342q141 129 350 129q210 0 348 -129q142 -130 142 -342v-936q0 -75 -123 -75t-123 75v447h-488v-447q0 -75 -123 -75q-122 0 -122 75zM399 715h488v272q0 124 -67 197t-177 73t-177 -73t-67 -197v-272z" />
<glyph unicode="B" horiz-adv-x="1200" d="M154 86v1268q0 88 79 88h449q177 0 285 -111q106 -109 106 -274q0 -207 -168 -305q199 -102 199 -342q0 -171 -111 -291q-110 -119 -311 -119h-449q-79 0 -79 86zM399 209h252q100 0 153.5 60t53.5 157q0 90 -51.5 152.5t-138.5 62.5h-269v-432zM399 850h248q84 0 132 54 t48 138q0 82 -48 136.5t-132 54.5h-248v-383z" />
<glyph unicode="C" horiz-adv-x="1232" d="M133 446v549q0 212 139 342q138 129 349 129t348 -125q139 -127 139 -333v-17q0 -76 -123 -76t-123 76v6q0 117 -67 188.5t-174 71.5q-109 0 -175.5 -73t-66.5 -197v-532q0 -124 66.5 -197.5t175.5 -73.5q107 0 174 71.5t67 188.5v7q0 75 123 75t123 -75v-17 q0 -207 -139 -334q-137 -125 -348 -125t-349 129q-139 130 -139 342z" />
<glyph unicode="D" horiz-adv-x="1220" d="M154 86v1268q0 88 79 88h367q210 0 348 -129q139 -130 139 -342v-500q0 -212 -139 -342q-138 -129 -348 -129h-367q-79 0 -79 86zM399 209h203q109 0 174.5 73t65.5 197v484q0 124 -65.5 197t-174.5 73h-203v-1024z" />
<glyph unicode="E" horiz-adv-x="1060" d="M154 82v1278q0 82 67 82h678q66 0 66 -105q0 -104 -66 -104h-500v-383h449q65 0 65 -105q0 -104 -65 -104h-449v-432h510q66 0 66 -105q0 -104 -66 -104h-688q-67 0 -67 82z" />
<glyph unicode="F" horiz-adv-x="1040" d="M154 59v1301q0 82 67 82h699q65 0 65 -105q0 -104 -65 -104h-521v-404h453q66 0 66 -104t-66 -104h-453v-562q0 -75 -123 -75q-122 0 -122 75z" />
<glyph unicode="G" horiz-adv-x="1241" d="M133 446v549q0 212 139 342q138 129 349 129t348 -125q139 -124 139 -323v-17q0 -75 -123 -75t-123 75v5q-3 98 -69 176q-63 75 -172 75t-175.5 -73t-66.5 -197v-532q0 -124 66.5 -197.5t175.5 -73.5t175 73.5t66 197.5v108h-176q-65 0 -65 101q0 100 65 100h354 q68 0 68 -70v-248q0 -212 -139 -342q-138 -129 -348 -129q-211 0 -349 129q-139 130 -139 342z" />
<glyph unicode="H" horiz-adv-x="1232" d="M154 59v1323q0 76 122 76q123 0 123 -76v-546h435v546q0 76 122 76q123 0 123 -76v-1323q0 -75 -123 -75q-122 0 -122 75v568h-435v-568q0 -75 -123 -75q-122 0 -122 75z" />
<glyph unicode="I" horiz-adv-x="581" d="M168 59v1323q0 76 123 76t123 -76v-1323q0 -75 -123 -75t-123 75z" />
<glyph unicode="J" horiz-adv-x="1124" d="M82 387v10q0 76 123 76t123 -76v-16q0 -82 54.5 -139.5t143.5 -57.5q91 0 145 57.5t54 149.5v991q0 76 123 76t123 -76v-991q0 -171 -121 -295q-121 -121 -324 -121q-199 0 -323 121q-121 121 -121 291z" />
<glyph unicode="K" horiz-adv-x="1204" d="M154 59v1323q0 76 122 76q123 0 123 -76v-618q19 19 64 45l98 65q240 156 240 416v92q0 76 123 76t123 -76v-88q0 -315 -226 -512q140 -137 203 -282t63 -336v-105q0 -75 -122 -75q-123 0 -123 75v43q0 183 -49 311.5t-166 235.5l-168 -106q-60 -38 -60 -78v-406 q0 -75 -123 -75q-122 0 -122 75z" />
<glyph unicode="L" horiz-adv-x="1021" d="M154 82v1300q0 76 122 76q123 0 123 -76v-1173h531q65 0 65 -105q0 -104 -65 -104h-703q-73 0 -73 82z" />
<glyph unicode="M" horiz-adv-x="1855" d="M154 59v949q0 206 122 331q124 127 316 127q105 0 194.5 -45t141.5 -121q52 76 141.5 121t194.5 45q191 0 315 -127q123 -126 123 -331v-949q0 -75 -123 -75t-123 75v969q0 108 -55 168.5t-148 60.5q-87 0 -144.5 -63.5t-57.5 -165.5v-969q0 -75 -123 -75t-123 75v969 q0 101 -58 165t-145 64q-93 0 -148 -60.5t-55 -168.5v-969q0 -75 -123 -75q-122 0 -122 75z" />
<glyph unicode="N" horiz-adv-x="1286" d="M154 59v936q0 212 139 342q141 129 350 129q210 0 348 -129q142 -130 142 -342v-936q0 -75 -123 -75t-123 75v928q0 124 -67 197t-177 73t-177 -73t-67 -197v-928q0 -75 -123 -75q-122 0 -122 75z" />
<glyph unicode="O" horiz-adv-x="1241" d="M133 446v549q0 212 139 342q138 129 349 129q210 0 348 -129q139 -130 139 -342v-549q0 -212 -139 -342q-138 -129 -348 -129q-211 0 -349 129q-139 130 -139 342zM377 455q0 -124 67 -197.5t177 -73.5q109 0 176 73.5t67 197.5v532q0 124 -66.5 197t-176.5 73t-177 -73 t-67 -197v-532z" />
<glyph unicode="P" horiz-adv-x="1128" d="M154 59v1305q0 78 77 78h361q211 0 330.5 -119t119.5 -338t-119.5 -338t-330.5 -119h-193v-469q0 -75 -123 -75q-122 0 -122 75zM399 737h170q228 0 228 248t-228 248h-170v-496z" />
<glyph unicode="Q" horiz-adv-x="1241" d="M133 446v549q0 212 139 342q138 129 349 129q210 0 348 -129q139 -130 139 -342v-549q0 -253 -193 -385q193 -82 193 -307v-43q0 -76 -123 -76t-123 76v35q0 99 -60 163.5t-161 65.5h-10h-10q-211 0 -349 129q-139 130 -139 342zM377 455q0 -124 67 -197.5t177 -73.5 q109 0 176 73.5t67 197.5v532q0 124 -66.5 197t-176.5 73t-177 -73t-67 -197v-532z" />
<glyph unicode="R" horiz-adv-x="1191" d="M154 59v1305q0 78 77 78h383q207 0 325 -112t118 -320q0 -239 -193 -344q193 -111 193 -416v-191q0 -75 -123 -75t-123 75v119q0 391 -225 391h-187v-510q0 -75 -123 -75q-122 0 -122 75zM399 778h195q217 0 217 228q0 227 -217 227h-195v-455z" />
<glyph unicode="S" horiz-adv-x="1165" d="M125 371v18q0 76 123 76t123 -76v-6q0 -86 65.5 -142.5t163.5 -56.5t156.5 50.5t58.5 136.5q0 92 -68.5 153.5t-228.5 110.5q-393 120 -393 428q0 181 127 293q125 110 323 110q208 0 334 -114q127 -115 127 -265v-30q0 -76 -123 -76q-122 0 -122 76v10q0 81 -60.5 135.5 t-155.5 54.5q-91 0 -146.5 -47.5t-55.5 -128.5q0 -158 280 -250q216 -71 315 -174t99 -272q0 -187 -125 -298.5t-342 -111.5q-213 0 -344 119t-131 277z" />
<glyph unicode="T" horiz-adv-x="1097" d="M51 1337q0 105 66 105h864q66 0 66 -105q0 -104 -66 -104h-309v-1174q0 -75 -123 -75t-123 75v1174h-309q-66 0 -66 104z" />
<glyph unicode="U" horiz-adv-x="1286" d="M154 446v936q0 76 122 76q123 0 123 -76v-927q0 -124 67 -197.5t177 -73.5t177 73.5t67 197.5v927q0 76 123 76t123 -76v-936q0 -212 -142 -342q-138 -129 -348 -129q-209 0 -350 129q-139 130 -139 342z" />
<glyph unicode="V" horiz-adv-x="1261" d="M143 897v485q0 76 123 76t123 -76v-483q0 -162 60 -313q58 -155 182 -336q124 181 182 336q59 148 59 313v483q0 76 123 76t123 -76v-485q0 -217 -88 -418q-103 -233 -231 -391q-86 -104 -168 -104t-168 104q-130 161 -232 391q-88 201 -88 418z" />
<glyph unicode="W" horiz-adv-x="1855" d="M154 434v948q0 76 122 76q123 0 123 -76v-968q0 -108 55 -169t148 -61q87 0 145 64t58 166v968q0 76 123 76t123 -76v-968q0 -102 57.5 -166t144.5 -64q93 0 148 61t55 169v968q0 76 123 76t123 -76v-948q0 -208 -123 -334q-122 -125 -315 -125q-105 0 -194.5 45 t-141.5 121q-52 -76 -141.5 -121t-194.5 -45q-194 0 -316 125t-122 334z" />
<glyph unicode="X" horiz-adv-x="1191" d="M119 59v58q0 186 59 319q63 138 242 295q-175 163 -240 287q-61 122 -61 297v67q0 76 123 76t123 -76v-71q0 -122 47 -211q48 -92 184 -213q136 121 184 213q47 89 47 211v71q0 76 123 76t123 -76v-67q0 -177 -63 -297q-61 -122 -238 -287q181 -158 240 -295 q61 -131 61 -319v-58q0 -75 -123 -75t-123 75v84q0 118 -45 209q-48 98 -186 221q-138 -123 -186 -221q-45 -91 -45 -209v-84q0 -75 -123 -75t-123 75z" />
<glyph unicode="Y" horiz-adv-x="1253" d="M127 989v393q0 76 123 76t123 -76v-430q0 -127 67.5 -198.5t186.5 -71.5t186.5 71.5t67.5 198.5v430q0 76 123 76q122 0 122 -76v-393q0 -208 -96 -337.5t-280 -166.5v-426q0 -75 -123 -75t-123 75v426q-184 37 -280.5 166.5t-96.5 337.5z" />
<glyph unicode="Z" horiz-adv-x="1116" d="M117 82v74q0 182 61 307q63 131 248 299q176 158 242 260q61 98 61 178v33h-541q-65 0 -65 104q0 105 65 105h727q68 0 68 -82v-88q0 -180 -61 -305t-246 -295q-184 -166 -242 -262q-61 -98 -61 -181v-20h588q65 0 65 -105q0 -104 -65 -104h-777q-67 0 -67 82z" />
<glyph unicode="[" horiz-adv-x="714" d="M184 -246v1729q0 78 86 78h355q65 0 65 -101q0 -100 -65 -100h-207v-1483h207q65 0 65 -100q0 -101 -65 -101h-355q-86 0 -86 78z" />
<glyph unicode="\" horiz-adv-x="931" d="M70 1427q-31 78 65 119q50 20 86.5 11t50.5 -44l652 -1626q30 -77 -66 -118q-49 -20 -86.5 -11.5t-50.5 43.5z" />
<glyph unicode="]" horiz-adv-x="714" d="M25 -223q0 100 65 100h207v1483h-207q-65 0 -65 100q0 101 65 101h354q86 0 86 -78v-1729q0 -78 -86 -78h-354q-65 0 -65 101z" />
<glyph unicode="^" horiz-adv-x="958" d="M61 926q0 12 13 35l315 454q35 51 90 51t90 -51l316 -454q12 -21 12 -35q0 -32 -43 -66q-42 -33 -84 -33q-28 0 -47 29l-244 358l-243 -358q-19 -29 -48 -29q-42 0 -84 33q-43 34 -43 66z" />
<glyph unicode="_" horiz-adv-x="1024" d="M0 -279q0 62 47 62h930q47 0 47 -62q0 -61 -47 -61h-930q-47 0 -47 61z" />
<glyph unicode="`" horiz-adv-x="667" d="M160 1448q0 27 31 57.5t61 30.5q21 0 33 -12l204 -203q17 -17 17 -39q0 -25 -31.5 -56.5t-60.5 -31.5q-21 0 -33 12l-205 203q-16 16 -16 39z" />
<glyph unicode="a" horiz-adv-x="987" d="M106 311q0 233 267 291l217 49q61 12 61 47v29q0 73 -41.5 113.5t-111.5 40.5q-72 0 -115 -38t-43 -95v-7q0 -73 -115 -73q-114 0 -114 73v15q0 134 106 227q107 94 275 94q177 0 283 -100.5t106 -263.5v-363q0 -177 -111 -276q-108 -99 -278 -99q-168 0 -279 97 q-107 94 -107 239zM336 301q0 -56 44.5 -92.5t115.5 -36.5q70 0 112.5 41t42.5 113v151q-14 -10 -47 -16l-131 -31q-73 -19 -105 -49t-32 -80z" />
<glyph unicode="b" horiz-adv-x="1015" d="M127 348v1090q0 73 115 73q114 0 114 -73v-424q72 63 197 63q143 0 250 -96q106 -93 106 -276v-357q0 -175 -114 -274t-277 -99q-162 0 -276 99q-115 100 -115 274zM356 350q0 -85 44 -131.5t118 -46.5t118 46.5t44 131.5v352q0 85 -44.5 132t-117.5 47t-117.5 -47 t-44.5 -132v-352z" />
<glyph unicode="c" horiz-adv-x="993" d="M106 348v357q0 174 115 274q113 98 277 98q165 0 276 -102q113 -101 113 -250v-8q0 -74 -115 -74t-115 74v4q0 68 -43.5 114t-115.5 46q-73 0 -117.5 -47t-44.5 -132v-352q0 -85 44 -131.5t118 -46.5q72 0 115.5 46t43.5 114v4q0 74 115 74t115 -74v-8q0 -149 -113 -250 q-112 -103 -276 -103q-163 0 -277 99q-115 100 -115 274z" />
<glyph unicode="d" horiz-adv-x="1015" d="M106 348v357q0 181 105 276q110 96 252 96q124 0 196 -63v424q0 73 115 73t115 -73v-1090q0 -174 -115 -274q-114 -99 -276 -99q-163 0 -277 99q-115 100 -115 274zM336 350q0 -85 44 -131.5t118 -46.5q73 0 117 46.5t44 131.5v352q0 85 -44 132t-117 47t-117.5 -47 t-44.5 -132v-352z" />
<glyph unicode="e" horiz-adv-x="987" d="M106 340v362q0 177 109 277q110 98 281 98q168 0 278 -96q107 -94 107 -240q0 -231 -267 -290l-217 -50q-61 -12 -61 -47v-28q0 -73 41.5 -113.5t111.5 -40.5q72 0 115 38t43 95v6q0 74 115 74t115 -74v-14q0 -133 -107 -227q-109 -95 -274 -95q-177 0 -283.5 101 t-106.5 264zM336 575q15 11 47 17l131 31q73 19 105 49t32 80q0 56 -44 92.5t-115 36.5q-70 0 -113 -41t-43 -113v-152z" />
<glyph unicode="f" horiz-adv-x="845" d="M45 954q0 99 66 99h137v112q0 160 92 253t256 93q161 0 244 -86q16 -16 16 -41q0 -41 -29.5 -77.5t-68.5 -36.5q-27 0 -47 14q-50 35 -111 35q-56 0 -89.5 -39t-33.5 -98v-129h240q63 0 63 -99q0 -98 -65 -98h-238v-799q0 -73 -115 -73q-114 0 -114 73v799h-137 q-66 0 -66 98z" />
<glyph unicode="g" horiz-adv-x="1015" d="M106 348v357q0 174 115 274q113 98 277 98q163 0 276 -98q115 -100 115 -274v-783q0 -175 -115 -278t-295 -103q-176 0 -291 86q-35 25 -35 61q0 31 27 70q35 53 76 53q24 0 49 -18q57 -42 123 -51q21 -4 42 -4q40 0 74 13q52 19 86 66q29 42 29 98v13v111 q-73 -64 -196 -64q-143 0 -252 95q-105 94 -105 278zM336 350q0 -85 44 -131.5t118 -46.5q73 0 117 46.5t44 131.5v352q0 85 -44 132t-117 47t-117.5 -47t-44.5 -132v-352z" />
<glyph unicode="h" horiz-adv-x="1036" d="M127 57v1381q0 73 115 73q114 0 114 -73v-424q72 63 197 63q143 0 250 -96q106 -93 106 -276v-648q0 -73 -114 -73q-115 0 -115 73v645q0 85 -44.5 132t-117.5 47t-117.5 -47t-44.5 -132v-645q0 -73 -114 -73q-115 0 -115 73z" />
<glyph unicode="i" horiz-adv-x="512" d="M139 1323v43q0 55 30.5 84t86.5 29t86.5 -29t30.5 -84v-43q0 -55 -30.5 -84t-86.5 -29t-86.5 29t-30.5 84zM141 57v938q0 74 115 74t115 -74v-938q0 -73 -115 -73t-115 73z" />
<glyph unicode="j" horiz-adv-x="512" d="M-76 -334q0 52 51 78q166 88 166 330v921q0 74 115 74t115 -74v-927q0 -372 -277 -510q-39 -17 -65 -17q-39 0 -72 38t-33 87zM139 1323v43q0 55 30.5 84t86.5 29t86.5 -29t30.5 -84v-43q0 -55 -30.5 -84t-86.5 -29t-86.5 29t-30.5 84z" />
<glyph unicode="k" horiz-adv-x="989" d="M127 57v1381q0 73 115 73q114 0 114 -73v-822q9 15 39 33l101 62q151 92 151 243v41q0 74 115 74t115 -74v-45q0 -239 -185 -362q116 -94 166 -203q49 -107 49 -281v-47q0 -73 -114 -73q-115 0 -115 73v35q0 140 -39 219q-44 90 -133 162l-100 -61q-47 -27 -50 -62v-293 q0 -73 -114 -73q-115 0 -115 73z" />
<glyph unicode="l" horiz-adv-x="634" d="M137 510v928q0 73 115 73t115 -73v-922q0 -242 165 -330q52 -27 52 -77q0 -49 -33 -87t-72 -38q-28 0 -65 16q-277 138 -277 510z" />
<glyph unicode="m" horiz-adv-x="1503" d="M127 57v648q0 170 100 271t258 101q172 0 267 -121q95 121 266 121q158 0 258 -101t100 -271v-648q0 -73 -114 -73q-115 0 -115 73v652q0 172 -139 172q-66 0 -104 -43.5t-38 -122.5v-658q0 -73 -114 -73q-115 0 -115 73v658q0 79 -37.5 122.5t-103.5 43.5 q-140 0 -140 -172v-652q0 -73 -114 -73q-115 0 -115 73z" />
<glyph unicode="n" horiz-adv-x="1036" d="M127 57v648q0 176 113 274t278 98q164 0 277 -98q114 -99 114 -274v-648q0 -73 -114 -73q-115 0 -115 73v645q0 83 -45.5 131t-116.5 48t-116.5 -48t-45.5 -131v-645q0 -73 -114 -73q-115 0 -115 73z" />
<glyph unicode="o" horiz-adv-x="995" d="M106 348v357q0 176 113 274t279 98q163 0 276 -98q115 -100 115 -274v-357q0 -174 -115 -274q-114 -99 -276 -99q-165 0 -279 99q-113 98 -113 274zM336 350q0 -83 45.5 -130.5t116.5 -47.5t116 47.5t45 130.5v352q0 83 -45 131t-116 48t-116.5 -48t-45.5 -131v-352z" />
<glyph unicode="p" horiz-adv-x="1015" d="M127 -377v1082q0 174 115 274q113 98 276 98q164 0 277 -98q114 -99 114 -274v-357q0 -185 -106 -278q-106 -95 -250 -95q-124 0 -197 64v-416q0 -74 -114 -74q-115 0 -115 74zM356 350q0 -85 44 -131.5t118 -46.5t118 46.5t44 131.5v352q0 85 -44.5 132t-117.5 47 t-117.5 -47t-44.5 -132v-352z" />
<glyph unicode="q" horiz-adv-x="1015" d="M106 348v357q0 174 115 274q113 98 277 98q163 0 276 -98q115 -100 115 -274v-1082q0 -74 -115 -74t-115 74v416q-73 -64 -196 -64q-143 0 -252 95q-105 94 -105 278zM336 350q0 -85 44 -131.5t118 -46.5q73 0 117 46.5t44 131.5v352q0 85 -44 132t-117 47t-117.5 -47 t-44.5 -132v-352z" />
<glyph unicode="r" horiz-adv-x="882" d="M127 55v647q0 173 106 273q108 102 279 102q96 0 181.5 -36t135.5 -101q19 -25 19 -49q0 -35 -39 -68q-37 -33 -75 -35h-7q-34 0 -55 27q-57 66 -146 66q-74 0 -122 -49t-48 -132v-645q0 -71 -114 -71q-115 0 -115 71z" />
<glyph unicode="s" horiz-adv-x="927" d="M96 264v25q0 71 115 71t115 -71v-4q0 -51 40 -82t103 -31q66 0 106.5 29t40.5 78q0 56 -46.5 92.5t-172.5 77.5q-156 51 -227.5 125t-71.5 196q0 142 105 225q104 82 256 82q158 0 268 -84q109 -83 109 -207v-24q0 -72 -115 -72t-115 72v4q0 54 -37 84.5t-100 30.5 q-64 0 -102.5 -29t-38.5 -78q0 -54 44.5 -89.5t159.5 -70.5q314 -95 314 -331q0 -143 -111 -226q-107 -82 -262 -82q-163 0 -270 82t-107 207z" />
<glyph unicode="t" horiz-adv-x="897" d="M45 954q0 99 66 99h137v262q0 74 114 74q115 0 115 -74v-262h275q63 0 63 -99q0 -98 -65 -98h-273v-539q0 -64 35.5 -104.5t97.5 -40.5q56 0 99 29q21 16 42 16q37 0 70 -53q21 -34 21 -63q0 -38 -37 -66q-78 -60 -209 -60q-164 0 -256 91.5t-92 248.5v541h-137 q-66 0 -66 98z" />
<glyph unicode="u" horiz-adv-x="1036" d="M127 348v647q0 74 115 74q114 0 114 -74v-645q0 -83 45.5 -130.5t116.5 -47.5t116.5 47.5t45.5 130.5v645q0 74 115 74q114 0 114 -74v-647q0 -175 -114 -274t-277 -99q-164 0 -278 99q-113 98 -113 274z" />
<glyph unicode="v" horiz-adv-x="1040" d="M117 657v338q0 74 114 74q115 0 115 -74v-315q0 -133 62 -272q44 -104 112 -183q70 82 113 183q61 137 61 272v315q0 74 115 74t115 -74v-338q0 -180 -109 -378q-108 -197 -225 -273q-32 -23 -69.5 -23t-69.5 23q-119 78 -226 273q-108 197 -108 378z" />
<glyph unicode="w" horiz-adv-x="1503" d="M127 348v647q0 74 115 74q114 0 114 -74v-651q0 -172 140 -172q66 0 103.5 43.5t37.5 122.5v657q0 74 115 74q114 0 114 -74v-657q0 -79 38 -122.5t104 -43.5q139 0 139 172v651q0 74 115 74q114 0 114 -74v-647q0 -171 -100 -272t-258 -101q-171 0 -266 121 q-95 -121 -267 -121q-158 0 -258 101t-100 272z" />
<glyph unicode="x" horiz-adv-x="997" d="M92 57v54q0 234 242 421q-232 188 -232 412v51q0 74 115 74t115 -74v-18q0 -99 35.5 -169.5t130.5 -148.5q95 78 130.5 148.5t35.5 169.5v18q0 74 114 74q115 0 115 -74v-51q0 -224 -231 -412q241 -186 241 -421v-54q0 -73 -115 -73q-114 0 -114 73v21q0 99 -38 172 t-138 156q-100 -83 -138 -156t-38 -172v-21q0 -73 -115 -73t-115 73z" />
<glyph unicode="y" horiz-adv-x="1036" d="M127 348v647q0 74 115 74q114 0 114 -74v-645q0 -85 44 -131.5t118 -46.5t118 46.5t44 131.5v645q0 74 115 74q114 0 114 -74v-1073q0 -176 -114 -278q-115 -103 -295 -103q-176 0 -291 86q-35 25 -35 61q0 31 27 70q35 53 76 53q24 0 49 -18q57 -42 122 -51q22 -4 43 -4 q40 0 75 13q51 19 84 66q30 42 30 98v13v111q-73 -64 -197 -64q-143 0 -252 95q-104 94 -104 278z" />
<glyph unicode="z" horiz-adv-x="892" d="M90 78v20q0 152 37 242q37 93 160 195q167 136 221 196q51 60 51 125h-399q-66 0 -66 98q0 99 64 99h579q62 0 62 -78v-23q0 -151 -37 -241q-37 -91 -160 -193q-170 -137 -223 -196q-49 -55 -49 -115v-10h436q63 0 63 -99q0 -98 -65 -98h-614q-60 0 -60 78z" />
<glyph unicode="{" horiz-adv-x="794" d="M92 618q0 79 64 103q100 34 100 188v191q0 219 110 340t306 121h39q63 0 63 -101q0 -98 -63 -98h-6q-216 -3 -216 -279v-110q0 -152 -31 -232t-114 -123q83 -43 114 -122.5t31 -231.5v-110q0 -276 216 -279h6q63 0 63 -98q0 -101 -63 -101h-39q-196 0 -306 121t-110 340 v191q0 154 -100 188q-64 24 -64 102z" />
<glyph unicode="|" horiz-adv-x="610" d="M195 -362v1890q0 71 110 71q111 0 111 -71v-1890q0 -72 -111 -72q-110 0 -110 72z" />
<glyph unicode="}" horiz-adv-x="794" d="M20 -223q0 98 64 98h6q215 3 215 279v110q0 151 31.5 231t114.5 123q-83 43 -114.5 123t-31.5 232v110q0 276 -215 279h-6q-64 0 -64 98q0 101 64 101h39q196 0 306 -121t110 -340v-191q0 -154 100 -188q63 -23 63 -103q0 -79 -63 -102q-100 -34 -100 -188v-191 q0 -219 -110 -340t-306 -121h-39q-64 0 -64 101z" />
<glyph unicode="~" d="M70 594v22q0 134 74.5 211.5t203.5 77.5q177 0 289 -151q48 -67 70 -87t51 -20q55 0 55 103v12q0 65 123 65t123 -65v-23q0 -133 -75 -210.5t-204 -77.5q-176 0 -288 151q-49 65 -72 86t-49 21q-56 0 -56 -103v-12q0 -66 -122 -66q-123 0 -123 66z" />
<glyph unicode="&#xa2;" horiz-adv-x="993" d="M106 348v357q0 139 76.5 233.5t202.5 124.5v137q0 74 113 74q112 0 112 -74v-137q123 -32 200 -126t77 -212v-8q0 -74 -115 -74t-115 74v4q0 68 -43.5 114t-115.5 46q-73 0 -117.5 -47t-44.5 -132v-352q0 -85 44 -131.5t118 -46.5q72 0 115.5 46t43.5 114v4q0 74 115 74 t115 -74v-8q0 -118 -77 -212t-200 -126v-137q0 -74 -112 -74q-113 0 -113 74v137q-126 30 -202.5 124.5t-76.5 233.5z" />
<glyph unicode="&#xa3;" horiz-adv-x="1064" d="M55 104q0 105 66 105h108v414h-118q-56 0 -56 79q0 80 56 80h118v322q0 171 96 266.5t269 95.5q162 0 266 -90q105 -88 105 -227v-8q0 -76 -123 -76t-123 76v6q0 43 -35 76.5t-88 33.5q-51 0 -86 -31.5t-35 -84.5v-359h266q54 0 54 -80q0 -79 -54 -79h-266v-414h457 q65 0 65 -105q0 -104 -65 -104h-811q-66 0 -66 104z" />
<glyph unicode="&#xa5;" horiz-adv-x="1253" d="M127 1092v290q0 76 123 76t123 -76v-327q0 -127 67.5 -199t186.5 -72t186.5 72t67.5 199v327q0 76 123 76q122 0 122 -76v-290q0 -208 -96 -337.5t-280 -166.5v-68h231q47 0 47 -53t-47 -53h-231v-88h231q47 0 47 -54q0 -53 -47 -53h-231v-160q0 -75 -123 -75t-123 75 v160h-232q-47 0 -47 53q0 54 47 54h232v88h-232q-47 0 -47 53t47 53h232v68q-184 37 -280.5 166.5t-96.5 337.5z" />
<glyph unicode="&#xa8;" horiz-adv-x="667" d="M68 1315v74q0 37 27 61.5t71 24.5t71 -24.5t27 -61.5v-74q0 -37 -27 -61.5t-71 -24.5t-71 24.5t-27 61.5zM403 1315v74q0 37 27.5 61.5t71.5 24.5t71 -24.5t27 -61.5v-74q0 -37 -27 -61.5t-71 -24.5t-71.5 24.5t-27.5 61.5z" />
<glyph unicode="&#xa9;" horiz-adv-x="1351" d="M51 721q0 339 172 541q174 204 453 204t450 -204q174 -201 174 -541q0 -339 -174 -543q-173 -203 -450 -203t-453 203q-172 205 -172 543zM166 721q0 -307 141 -477t369 -170q227 0 368 170q142 171 142 477t-142 477q-141 170 -368 170q-228 0 -369 -170t-141 -477z M350 594v254q0 149 90 232t240 83q142 0 231 -86q90 -84 90 -203v-12q0 -65 -98 -65t-98 65v6q0 52 -35.5 88.5t-93.5 36.5q-56 0 -92.5 -37.5t-36.5 -93.5v-282q0 -56 36.5 -93.5t92.5 -37.5q58 0 93.5 36.5t35.5 87.5v7q0 65 98 65t98 -65v-13q0 -118 -90 -205 q-89 -83 -231 -83q-150 0 -240 83t-90 232z" />
<glyph unicode="&#xab;" horiz-adv-x="1097" d="M143 633q0 29 27 53l266 264q36 33 92 -20q52 -52 19 -86l-217 -211l217 -211q34 -29 -19 -88q-55 -58 -92 -21l-266 267q-27 27 -27 53zM537 633q0 30 26 53l266 264q36 34 93 -20q52 -52 18 -86l-217 -211l217 -211q34 -30 -18 -88q-56 -58 -93 -21l-266 267 q-26 26 -26 53z" />
<glyph unicode="&#xad;" horiz-adv-x="843" d="M102 682q0 100 64 100h510q65 0 65 -100t-65 -100h-510q-64 0 -64 100z" />
<glyph unicode="&#xae;" horiz-adv-x="1351" d="M51 721q0 339 172 541q174 204 453 204t450 -204q174 -201 174 -541q0 -339 -174 -543q-173 -203 -450 -203t-453 203q-172 205 -172 543zM166 721q0 -307 141 -477t369 -170q227 0 368 170q142 171 142 477t-142 477q-141 170 -368 170q-228 0 -369 -170t-141 -477z M391 342v764q0 57 64 57h254q137 0 211.5 -68t74.5 -202q0 -131 -110 -201q110 -73 110 -248v-102q0 -63 -96 -63q-94 0 -94 63v66q0 114 -29.5 160t-97.5 46h-96v-272q0 -63 -97 -63q-94 0 -94 63zM582 772h98q63 0 94 27.5t31 89.5t-31 89.5t-94 27.5h-98v-234z" />
<glyph unicode="&#xb4;" horiz-adv-x="667" d="M160 1282q0 23 16 39l205 203q12 12 33 12q29 0 60.5 -30.5t31.5 -57.5q0 -22 -17 -39l-204 -203q-12 -12 -33 -12q-30 0 -61 31t-31 57z" />
<glyph unicode="&#xb8;" horiz-adv-x="667" d="M168 -336q18 58 61 43q47 -21 89 -7t42 58q0 76 -106 76q-24 0 -32 16.5t5 36.5l76 133h166l-63 -114q60 -14 95.5 -58.5t35.5 -107.5q0 -78 -60.5 -129t-152.5 -51q-76 0 -129 24q-42 20 -27 80z" />
<glyph unicode="&#xbb;" horiz-adv-x="1097" d="M193 422l217 211l-217 211q-34 34 18 86q56 53 92 20l266 -264q27 -24 27 -53q0 -26 -27 -53l-266 -267q-37 -37 -92 21q-52 58 -18 88zM586 422l217 211l-217 211q-34 34 18 86q56 53 92 20l267 -264q26 -23 26 -53q0 -27 -26 -53l-267 -267q-37 -37 -92 21 q-52 58 -18 88z" />
<glyph unicode="&#x2c6;" horiz-adv-x="667" d="M63 1278q0 22 17 39l194 192q60 51 119 0l195 -192q16 -16 16 -39q0 -25 -31.5 -56.5t-60.5 -31.5q-21 0 -33 12l-145 146l-146 -146q-12 -12 -32 -12q-29 0 -61 31.5t-32 56.5z" />
<glyph unicode="&#x2da;" horiz-adv-x="667" d="M142 1352q0 76 55 131t137 55t137 -55t55 -131t-55 -131t-137 -55t-137 55t-55 131zM268 1351q0 -31 19 -51q19 -19 47 -19t47 19q19 20 19 51t-19 50q-19 20 -47 20t-47 -20q-19 -19 -19 -50z" />
<glyph unicode="&#x2dc;" horiz-adv-x="667" d="M59 1290v21q0 81 41 128.5t109 47.5q37 0 74.5 -17t61.5 -37.5t45 -37.5t28 -17q28 0 28 37v2q0 51 80 51t80 -55v-20q0 -81 -40.5 -128.5t-108.5 -47.5q-37 0 -74.5 17t-61.5 37t-45 37t-28 17q-29 0 -29 -37v-2q0 -51 -80 -51t-80 55z" />
<glyph unicode="&#x400;" horiz-adv-x="1060" d="M154 82v1278q0 82 67 82h678q66 0 66 -105q0 -104 -66 -104h-500v-383h449q65 0 65 -105q0 -104 -65 -104h-449v-432h510q66 0 66 -105q0 -104 -66 -104h-688q-67 0 -67 82zM381 1835q0 26 31 57t61 31q21 0 33 -12l205 -203q16 -16 16 -39q0 -27 -31.5 -57.5 t-60.5 -30.5q-21 0 -33 12l-205 203q-16 16 -16 39z" />
<glyph unicode="&#x401;" horiz-adv-x="1060" d="M154 82v1278q0 82 67 82h678q66 0 66 -105q0 -104 -66 -104h-500v-383h449q65 0 65 -105q0 -104 -65 -104h-449v-432h510q66 0 66 -105q0 -104 -66 -104h-688q-67 0 -67 82zM289 1702v74q0 37 27 61.5t71 24.5t71 -24.5t27 -61.5v-74q0 -37 -27 -61.5t-71 -24.5t-71 24.5 t-27 61.5zM625 1702v74q0 37 27 61.5t71 24.5t71 -24.5t27 -61.5v-74q0 -37 -27 -61.5t-71 -24.5t-71 24.5t-27 61.5z" />
<glyph unicode="&#x402;" horiz-adv-x="1427" d="M51 1337q0 105 66 105h864q66 0 66 -105q0 -104 -66 -104h-309v-365q42 39 113.5 64.5t142.5 25.5q182 0 303 -112q125 -110 125 -311v-103q0 -219 -125 -338q-122 -119 -316 -119q-66 0 -118 19q-66 28 -45 119q18 87 90 75q46 -4 55 -4q99 0 156 68.5t57 189.5v78 q7 143 -106 202t-226 0t-106 -202v-461q0 -75 -123 -75t-123 75v1174h-309q-66 0 -66 104z" />
<glyph unicode="&#x403;" horiz-adv-x="993" d="M154 59v1301q0 82 67 82h656q65 0 65 -105q0 -104 -65 -104h-478v-1174q0 -75 -123 -75q-122 0 -122 75zM387 1669q0 23 16 39l205 203q12 12 33 12q30 0 61 -31t31 -57q0 -23 -16 -39l-205 -203q-12 -12 -33 -12q-29 0 -60.5 30.5t-31.5 57.5z" />
<glyph unicode="&#x404;" horiz-adv-x="1232" d="M133 446v549q0 212 139 342q138 129 349 129t348 -125q139 -127 139 -333v-17q0 -76 -123 -76t-123 76v6q0 117 -67 188.5t-174 71.5q-109 0 -175.5 -73t-66.5 -197v-162h338q65 0 65 -104q0 -105 -65 -105h-338v-161q0 -124 66.5 -197.5t175.5 -73.5q107 0 174 71.5 t67 188.5v7q0 75 123 75t123 -75v-17q0 -207 -139 -334q-137 -125 -348 -125t-349 129q-139 130 -139 342z" />
<glyph unicode="&#x405;" horiz-adv-x="1165" d="M125 371v18q0 76 123 76t123 -76v-6q0 -86 65.5 -142.5t163.5 -56.5t156.5 50.5t58.5 136.5q0 92 -68.5 153.5t-228.5 110.5q-393 120 -393 428q0 181 127 293q125 110 323 110q208 0 334 -114q127 -115 127 -265v-30q0 -76 -123 -76q-122 0 -122 76v10q0 81 -60.5 135.5 t-155.5 54.5q-91 0 -146.5 -47.5t-55.5 -128.5q0 -158 280 -250q216 -71 315 -174t99 -272q0 -187 -125 -298.5t-342 -111.5q-213 0 -344 119t-131 277z" />
<glyph unicode="&#x406;" horiz-adv-x="581" d="M168 59v1323q0 76 123 76t123 -76v-1323q0 -75 -123 -75t-123 75z" />
<glyph unicode="&#x407;" horiz-adv-x="581" d="M25 1702v74q0 37 27 61.5t71 24.5t71 -24.5t27 -61.5v-74q0 -37 -27 -61.5t-71 -24.5t-71 24.5t-27 61.5zM168 59v1323q0 76 123 76t123 -76v-1323q0 -75 -123 -75t-123 75zM360 1702v74q0 37 27.5 61.5t71.5 24.5t71 -24.5t27 -61.5v-74q0 -37 -27 -61.5t-71 -24.5 t-71.5 24.5t-27.5 61.5z" />
<glyph unicode="&#x408;" horiz-adv-x="1124" d="M82 387v10q0 76 123 76t123 -76v-16q0 -82 54.5 -139.5t143.5 -57.5q91 0 145 57.5t54 149.5v991q0 76 123 76t123 -76v-991q0 -171 -121 -295q-121 -121 -324 -121q-199 0 -323 121q-121 121 -121 291z" />
<glyph unicode="&#x409;" horiz-adv-x="1947" d="M55 106q0 56 60 84q91 43 129.5 135t38.5 244v791q0 82 67 82h713q67 0 67 -82v-481q103 100 279 100q196 0 332 -127q135 -126 135 -336v-74q0 -215 -145 -342q-143 -125 -351 -125q-209 0 -352 125t-143 349v784h-357v-666q0 -229 -67 -363t-232 -204q-43 -16 -67 -16 q-42 0 -74.5 36.5t-32.5 85.5zM1130 449q0 -116 71.5 -190.5t178.5 -74.5t178.5 74.5t71.5 190.5v57q0 116 -71.5 190t-178.5 74t-178.5 -74t-71.5 -190v-57z" />
<glyph unicode="&#x40a;" horiz-adv-x="1896" d="M154 59v1323q0 76 122 76q123 0 123 -76v-546h435v546q0 76 122 76q123 0 123 -76v-503q103 100 279 100q196 0 332 -127q135 -126 135 -336v-74q0 -214 -146 -342q-143 -125 -350 -125q-209 0 -352 125t-143 349v178h-435v-568q0 -75 -123 -75q-122 0 -122 75zM1079 449 q0 -116 71.5 -190.5t178.5 -74.5t178.5 74.5t71.5 190.5v57q0 116 -71.5 190t-178.5 74t-178.5 -74t-71.5 -190v-57z" />
<glyph unicode="&#x40b;" horiz-adv-x="1447" d="M51 1337q0 105 66 105h864q66 0 66 -105q0 -104 -66 -104h-309v-365q42 39 113.5 64.5t142.5 25.5q182 0 303 -112q125 -110 125 -311v-476q0 -75 -123 -75t-123 75v461q7 143 -106 202t-226 0t-106 -202v-461q0 -75 -123 -75t-123 75v1174h-309q-66 0 -66 104z" />
<glyph unicode="&#x40c;" horiz-adv-x="1204" d="M154 59v1323q0 76 122 76q123 0 123 -76v-618q19 19 64 45l98 65q240 156 240 416v92q0 76 123 76t123 -76v-88q0 -315 -226 -512q140 -137 203 -282t63 -336v-105q0 -75 -122 -75q-123 0 -123 75v43q0 183 -49 311.5t-166 235.5l-168 -106q-60 -38 -60 -78v-406 q0 -75 -123 -75q-122 0 -122 75zM449 1669q0 23 16 39l205 203q12 12 32 12q30 0 61.5 -31t31.5 -57q0 -22 -17 -39l-205 -203q-12 -12 -32 -12q-29 0 -60.5 30.5t-31.5 57.5z" />
<glyph unicode="&#x40d;" horiz-adv-x="1253" d="M154 59v1323q0 76 122 76q123 0 123 -76v-407l471 448q35 35 107 35q123 0 123 -76v-1323q0 -75 -123 -75t-123 75v1035l-455 -430v-605q0 -75 -123 -75q-122 0 -122 75zM446 1835q0 26 31.5 57t61.5 31q20 0 32 -12l205 -203q17 -17 17 -39q0 -27 -32 -57.5t-61 -30.5 q-20 0 -32 12l-205 203q-17 17 -17 39z" />
<glyph unicode="&#x40e;" horiz-adv-x="1253" d="M154 940v442q0 76 122 76q123 0 123 -76v-444q0 -125 58.5 -193.5t169.5 -68.5t169 68t58 194v444q0 76 123 76t123 -76v-962q0 -209 -137 -328q-135 -117 -351 -117q-240 0 -356 88q-37 30 -37 68q0 48 34 88.5t75 40.5q14 0 55 -18q93 -43 221 -43q121 0 186.5 59 t65.5 174v127q-92 -92 -254 -92q-204 0 -326 127t-122 346zM365 1849q0 56 88 56t88 -52q0 -120 86 -120t86 120q0 52 88 52t88 -56q0 -124 -75.5 -197t-186.5 -73t-186.5 73t-75.5 197z" />
<glyph unicode="&#x40f;" horiz-adv-x="1249" d="M154 82v1300q0 76 122 76q123 0 123 -76v-1173h451v1173q0 76 123 76t123 -76v-1300q0 -82 -68 -82h-280v-174q0 -76 -123 -76t-123 76v174h-281q-67 0 -67 82z" />
<glyph unicode="&#x410;" horiz-adv-x="1286" d="M154 59v936q0 212 139 342q141 129 350 129q210 0 348 -129q142 -130 142 -342v-936q0 -75 -123 -75t-123 75v447h-488v-447q0 -75 -123 -75q-122 0 -122 75zM399 715h488v272q0 124 -67 197t-177 73t-177 -73t-67 -197v-272z" />
<glyph unicode="&#x411;" horiz-adv-x="1226" d="M154 449v911q0 82 67 82h717q66 0 66 -105q0 -104 -66 -104h-539v-354q103 100 279 100q196 0 332 -127q135 -126 135 -336v-74q0 -214 -146 -342q-143 -125 -350 -125q-209 0 -352 125t-143 349zM399 449q0 -116 71.5 -190.5t178.5 -74.5t178.5 74.5t71.5 190.5v57 q0 116 -71.5 190t-178.5 74t-178.5 -74t-71.5 -190v-57z" />
<glyph unicode="&#x412;" horiz-adv-x="1200" d="M154 86v1268q0 88 79 88h449q177 0 285 -111q106 -109 106 -274q0 -207 -168 -305q199 -102 199 -342q0 -171 -111 -291q-110 -119 -311 -119h-449q-79 0 -79 86zM399 209h252q100 0 153.5 60t53.5 157q0 90 -51.5 152.5t-138.5 62.5h-269v-432zM399 850h248q84 0 132 54 t48 138q0 82 -48 136.5t-132 54.5h-248v-383z" />
<glyph unicode="&#x413;" horiz-adv-x="993" d="M154 59v1301q0 82 67 82h656q65 0 65 -105q0 -104 -65 -104h-478v-1174q0 -75 -123 -75q-122 0 -122 75z" />
<glyph unicode="&#x414;" horiz-adv-x="1257" d="M31 127q0 82 67 82h52q98 249 98 571v273q0 183 104 286t283 103h375q67 0 67 -82v-1151h62q67 0 67 -82v-301q0 -76 -123 -76q-122 0 -122 76v174h-685v-174q0 -76 -122 -76q-123 0 -123 76v301zM403 209h428v1024h-165q-172 0 -172 -205v-250q0 -298 -91 -569z" />
<glyph unicode="&#x415;" horiz-adv-x="1060" d="M154 82v1278q0 82 67 82h678q66 0 66 -105q0 -104 -66 -104h-500v-383h449q65 0 65 -105q0 -104 -65 -104h-449v-432h510q66 0 66 -105q0 -104 -66 -104h-688q-67 0 -67 82z" />
<glyph unicode="&#x416;" horiz-adv-x="1638" d="M119 59v129q0 203 47 342q50 139 172 273q-182 191 -182 467v112q0 76 123 76q122 0 122 -76v-71q0 -137 28.5 -218t102.5 -143l125 -104q30 -24 39 -39v575q0 76 123 76t123 -76v-575q9 15 39 39l125 104q74 62 102.5 143t28.5 218v71q0 76 123 76t123 -76v-112 q0 -275 -183 -467q124 -136 170 -273q50 -139 50 -342v-129q0 -75 -123 -75t-123 75v111q0 169 -35 279q-34 108 -127 217l-117 -97q-53 -44 -53 -77v-433q0 -75 -123 -75t-123 75v433q0 33 -53 77l-117 97q-93 -109 -127 -217q-34 -106 -34 -279v-111q0 -75 -123 -75 t-123 75z" />
<glyph unicode="&#x417;" horiz-adv-x="1146" d="M113 201q0 39 41 80q41 38 84 38q32 0 53 -24q95 -111 256 -111q122 0 191 60t69 170q0 105 -65 164t-185 59h-127q-65 0 -65 104q0 105 65 105h98q115 0 179.5 60.5t64.5 164.5q0 90 -54.5 138t-148.5 48q-92 0 -147 -46.5t-55 -129.5v-6q0 -76 -123 -76t-123 76v15 q0 152 121 264t323 112q214 0 334 -114q119 -113 119 -287q0 -205 -182 -313q217 -105 217 -346q0 -193 -131 -312t-367 -119q-266 0 -412 158q-30 30 -30 68z" />
<glyph unicode="&#x418;" horiz-adv-x="1253" d="M154 59v1323q0 76 122 76q123 0 123 -76v-407l471 448q35 35 107 35q123 0 123 -76v-1323q0 -75 -123 -75t-123 75v1035l-455 -430v-605q0 -75 -123 -75q-122 0 -122 75z" />
<glyph unicode="&#x419;" horiz-adv-x="1253" d="M154 59v1323q0 76 122 76q123 0 123 -76v-407l471 448q35 35 107 35q123 0 123 -76v-1323q0 -75 -123 -75t-123 75v1035l-455 -430v-605q0 -75 -123 -75q-122 0 -122 75zM365 1849q0 56 88 56t88 -52q0 -120 86 -120t86 120q0 52 88 52t88 -56q0 -124 -75.5 -197 t-186.5 -73t-186.5 73t-75.5 197z" />
<glyph unicode="&#x41a;" horiz-adv-x="1204" d="M154 59v1323q0 76 122 76q123 0 123 -76v-618q19 19 64 45l98 65q240 156 240 416v92q0 76 123 76t123 -76v-88q0 -315 -226 -512q140 -137 203 -282t63 -336v-105q0 -75 -122 -75q-123 0 -123 75v43q0 183 -49 311.5t-166 235.5l-168 -106q-60 -38 -60 -78v-406 q0 -75 -123 -75q-122 0 -122 75z" />
<glyph unicode="&#x41b;" horiz-adv-x="1284" d="M55 106q0 56 60 84q91 43 129.5 135t38.5 244v791q0 82 67 82h713q67 0 67 -82v-1301q0 -75 -122 -75q-123 0 -123 75v1174h-357v-666q0 -229 -67 -363t-232 -204q-43 -16 -67 -16q-42 0 -74.5 36.5t-32.5 85.5z" />
<glyph unicode="&#x41c;" horiz-adv-x="1855" d="M154 59v949q0 206 122 331q124 127 316 127q105 0 194.5 -45t141.5 -121q52 76 141.5 121t194.5 45q191 0 315 -127q123 -126 123 -331v-949q0 -75 -123 -75t-123 75v969q0 108 -55 168.5t-148 60.5q-87 0 -144.5 -63.5t-57.5 -165.5v-969q0 -75 -123 -75t-123 75v969 q0 101 -58 165t-145 64q-93 0 -148 -60.5t-55 -168.5v-969q0 -75 -123 -75q-122 0 -122 75z" />
<glyph unicode="&#x41d;" horiz-adv-x="1232" d="M154 59v1323q0 76 122 76q123 0 123 -76v-546h435v546q0 76 122 76q123 0 123 -76v-1323q0 -75 -123 -75q-122 0 -122 75v568h-435v-568q0 -75 -123 -75q-122 0 -122 75z" />
<glyph unicode="&#x41e;" horiz-adv-x="1241" d="M133 446v549q0 212 139 342q138 129 349 129q210 0 348 -129q139 -130 139 -342v-549q0 -212 -139 -342q-138 -129 -348 -129q-211 0 -349 129q-139 130 -139 342zM377 455q0 -124 67 -197.5t177 -73.5q109 0 176 73.5t67 197.5v532q0 124 -66.5 197t-176.5 73t-177 -73 t-67 -197v-532z" />
<glyph unicode="&#x41f;" horiz-adv-x="1249" d="M154 59v1301q0 82 67 82h807q68 0 68 -82v-1301q0 -75 -123 -75t-123 75v1174h-451v-1174q0 -75 -123 -75q-122 0 -122 75z" />
<glyph unicode="&#x420;" horiz-adv-x="1128" d="M154 59v1305q0 78 77 78h361q211 0 330.5 -119t119.5 -338t-119.5 -338t-330.5 -119h-193v-469q0 -75 -123 -75q-122 0 -122 75zM399 737h170q228 0 228 248t-228 248h-170v-496z" />
<glyph unicode="&#x421;" horiz-adv-x="1232" d="M133 446v549q0 212 139 342q138 129 349 129t348 -125q139 -127 139 -333v-17q0 -76 -123 -76t-123 76v6q0 117 -67 188.5t-174 71.5q-109 0 -175.5 -73t-66.5 -197v-532q0 -124 66.5 -197.5t175.5 -73.5q107 0 174 71.5t67 188.5v7q0 75 123 75t123 -75v-17 q0 -207 -139 -334q-137 -125 -348 -125t-349 129q-139 130 -139 342z" />
<glyph unicode="&#x422;" horiz-adv-x="1097" d="M51 1337q0 105 66 105h864q66 0 66 -105q0 -104 -66 -104h-309v-1174q0 -75 -123 -75t-123 75v1174h-309q-66 0 -66 104z" />
<glyph unicode="&#x423;" horiz-adv-x="1253" d="M154 940v442q0 76 122 76q123 0 123 -76v-444q0 -125 58.5 -193.5t169.5 -68.5t169 68t58 194v444q0 76 123 76t123 -76v-962q0 -209 -137 -328q-135 -117 -351 -117q-240 0 -356 88q-37 30 -37 68q0 48 34 88.5t75 40.5q14 0 55 -18q93 -43 221 -43q121 0 186.5 59 t65.5 174v127q-92 -92 -254 -92q-204 0 -326 127t-122 346z" />
<glyph unicode="&#x424;" horiz-adv-x="1433" d="M106 686v70q0 211 140 342q138 129 348 129v155q0 76 123 76t123 -76v-155q210 0 348 -129q139 -130 139 -342v-70q0 -212 -139 -342q-138 -129 -348 -129v-156q0 -75 -123 -75t-123 75v156q-210 0 -348 129q-140 131 -140 342zM350 694q0 -124 67 -197t177 -73v594 q-110 0 -177 -73t-67 -197v-54zM840 424q110 0 176.5 73t66.5 197v54q0 124 -66.5 197t-176.5 73v-594z" />
<glyph unicode="&#x425;" horiz-adv-x="1191" d="M119 59v58q0 186 59 319q63 138 242 295q-175 163 -240 287q-61 122 -61 297v67q0 76 123 76t123 -76v-71q0 -122 47 -211q48 -92 184 -213q136 121 184 213q47 89 47 211v71q0 76 123 76t123 -76v-67q0 -177 -63 -297q-61 -122 -238 -287q181 -158 240 -295 q61 -131 61 -319v-58q0 -75 -123 -75t-123 75v84q0 118 -45 209q-48 98 -186 221q-138 -123 -186 -221q-45 -91 -45 -209v-84q0 -75 -123 -75t-123 75z" />
<glyph unicode="&#x426;" horiz-adv-x="1320" d="M154 82v1300q0 76 122 76q123 0 123 -76v-1173h451v1173q0 76 123 76t123 -76v-1173h116q68 0 68 -82v-301q0 -76 -123 -76t-123 76v174h-813q-67 0 -67 82z" />
<glyph unicode="&#x427;" horiz-adv-x="1216" d="M143 930v452q0 76 123 76t123 -76v-438q0 -107 62.5 -168t156.5 -61q91 0 150 61t59 168v438q0 76 123 76t123 -76v-1323q0 -75 -123 -75t-123 75v537q-81 -90 -250 -90q-181 0 -303 110q-121 115 -121 314z" />
<glyph unicode="&#x428;" horiz-adv-x="1601" d="M154 82v1300q0 76 122 76q123 0 123 -76v-1173h279v1173q0 76 123 76t123 -76v-1173h278v1173q0 76 123 76t123 -76v-1300q0 -82 -68 -82h-1159q-67 0 -67 82z" />
<glyph unicode="&#x429;" horiz-adv-x="1673" d="M154 82v1300q0 76 122 76q123 0 123 -76v-1173h279v1173q0 76 123 76t123 -76v-1173h278v1173q0 76 123 76t123 -76v-1173h117q67 0 67 -82v-301q0 -76 -123 -76t-123 76v174h-1165q-67 0 -67 82z" />
<glyph unicode="&#x42a;" horiz-adv-x="1501" d="M51 1337q0 105 66 105h499q68 0 68 -82v-481q103 100 279 100q195 0 331 -127t136 -336v-74q0 -214 -146 -342q-143 -125 -350 -125q-209 0 -352 125q-144 126 -144 349v784h-321q-66 0 -66 104zM684 449q0 -116 71.5 -190.5t178.5 -74.5t178.5 74.5t71.5 190.5v57 q0 116 -71.5 190t-178.5 74t-178.5 -74t-71.5 -190v-57z" />
<glyph unicode="&#x42b;" horiz-adv-x="1714" d="M154 449v933q0 76 122 76q123 0 123 -76v-503q103 100 279 100q196 0 332 -127q135 -126 135 -336v-74q0 -214 -146 -342q-143 -125 -350 -125q-209 0 -352 125t-143 349zM399 449q0 -116 71.5 -190.5t178.5 -74.5t178.5 74.5t71.5 190.5v57q0 116 -71.5 190t-178.5 74 t-178.5 -74t-71.5 -190v-57zM1315 59v1323q0 76 123 76t123 -76v-1323q0 -75 -123 -75t-123 75z" />
<glyph unicode="&#x42c;" horiz-adv-x="1216" d="M154 449v933q0 76 122 76q123 0 123 -76v-503q103 100 279 100q196 0 332 -127q135 -126 135 -336v-74q0 -214 -146 -342q-143 -125 -350 -125q-209 0 -352 125t-143 349zM399 449q0 -116 71.5 -190.5t178.5 -74.5t178.5 74.5t71.5 190.5v57q0 116 -71.5 190t-178.5 74 t-178.5 -74t-71.5 -190v-57z" />
<glyph unicode="&#x42d;" horiz-adv-x="1232" d="M125 434v17q0 75 123 75t123 -75v-7q0 -117 67 -188.5t174 -71.5q109 0 175.5 73.5t66.5 197.5v161h-338q-65 0 -65 105q0 104 65 104h338v162q0 124 -66.5 197t-175.5 73q-107 0 -174 -71.5t-67 -188.5v-6q0 -76 -123 -76t-123 76v17q0 206 139 333q137 125 348 125 t349 -129q139 -130 139 -342v-549q0 -212 -139 -342q-138 -129 -349 -129t-348 125q-139 127 -139 334z" />
<glyph unicode="&#x42e;" horiz-adv-x="1675" d="M154 59v1323q0 76 122 76q123 0 123 -76v-561h168v174q0 211 140 342q138 129 348 129t348 -129q139 -130 139 -342v-549q0 -212 -139 -342q-138 -129 -348 -129t-348 129q-140 131 -140 342v166h-168v-553q0 -75 -123 -75q-122 0 -122 75zM811 455q0 -124 67 -197.5 t177 -73.5q109 0 176 73.5t67 197.5v532q0 124 -66.5 197t-176.5 73t-177 -73t-67 -197v-532z" />
<glyph unicode="&#x42f;" horiz-adv-x="1191" d="M135 59v191q0 305 193 416q-193 105 -193 344q0 208 118 320t325 112h383q77 0 77 -78v-1305q0 -75 -123 -75q-122 0 -122 75v510h-187q-225 0 -225 -391v-119q0 -75 -123 -75t-123 75zM381 1006q0 -228 217 -228h195v455h-195q-217 0 -217 -227z" />
<glyph unicode="&#x430;" horiz-adv-x="987" d="M106 311q0 233 267 291l217 49q61 12 61 47v29q0 73 -41.5 113.5t-111.5 40.5q-72 0 -115 -38t-43 -95v-7q0 -73 -115 -73q-114 0 -114 73v15q0 134 106 227q107 94 275 94q177 0 283 -100.5t106 -263.5v-363q0 -177 -111 -276q-108 -99 -278 -99q-168 0 -279 97 q-107 94 -107 239zM336 301q0 -56 44.5 -92.5t115.5 -36.5q70 0 112.5 41t42.5 113v151q-14 -10 -47 -16l-131 -31q-73 -19 -105 -49t-32 -80z" />
<glyph unicode="&#x431;" horiz-adv-x="1015" d="M127 348v782q0 176 115 279q114 102 295 102q175 0 290 -86q65 -47 9 -131q-56 -83 -125 -34q-57 42 -122.5 51.5t-117.5 -10t-85.5 -66.5t-29.5 -111v-110q72 63 197 63q143 0 250 -96q106 -93 106 -276v-357q0 -175 -114 -274t-277 -99q-162 0 -276 99 q-115 100 -115 274zM356 350q0 -85 44 -131.5t118 -46.5t118 46.5t44 131.5v352q0 85 -44.5 132t-117.5 47t-117.5 -47t-44.5 -132v-352z" />
<glyph unicode="&#x432;" horiz-adv-x="980" d="M127 53v946q0 20 16.5 37t36.5 17h365q150 0 238.5 -77.5t88.5 -201.5q0 -147 -116 -223q143 -76 143 -250q0 -131 -94 -216t-254 -85h-371q-20 0 -36.5 16.5t-16.5 36.5zM356 197h170q144 0 144 122q0 123 -144 123h-170v-245zM356 639h168q56 0 87.5 29t31.5 80 t-31.5 79.5t-87.5 28.5h-168v-217z" />
<glyph unicode="&#x433;" horiz-adv-x="790" d="M127 57v910q0 86 72 86h491q64 0 64 -99q0 -98 -66 -98h-332v-799q0 -73 -114 -73q-115 0 -115 73z" />
<glyph unicode="&#x434;" horiz-adv-x="1026" d="M37 111q0 86 72 86h20q57 146 57 362v109q0 190 103.5 287.5t300.5 97.5h205q73 0 73 -86v-770h37q74 0 74 -86v-246q0 -74 -115 -74q-114 0 -114 74v135h-484v-135q0 -74 -114 -74q-115 0 -115 74v246zM362 197h277v661h-76q-68 0 -108.5 -47.5t-40.5 -128.5v-158 q0 -175 -52 -327z" />
<glyph unicode="&#x435;" horiz-adv-x="987" d="M106 340v362q0 177 109 277q110 98 281 98q168 0 278 -96q107 -94 107 -240q0 -231 -267 -290l-217 -50q-61 -12 -61 -47v-28q0 -73 41.5 -113.5t111.5 -40.5q72 0 115 38t43 95v6q0 74 115 74t115 -74v-14q0 -133 -107 -227q-109 -95 -274 -95q-177 0 -283.5 101 t-106.5 264zM336 575q15 11 47 17l131 31q73 19 105 49t32 80q0 56 -44 92.5t-115 36.5q-70 0 -113 -41t-43 -113v-152z" />
<glyph unicode="&#x436;" horiz-adv-x="1380" d="M90 57v35q0 166 45 276t154 207q-93 74 -130.5 154t-37.5 207v59q0 74 115 74q114 0 114 -74v-30q0 -106 24 -165t89 -102l76 -53l36 -31v381q0 74 115 74t115 -74v-381q4 8 37 31l76 53q65 43 88.5 101.5t23.5 165.5v30q0 74 115 74t115 -74v-59q0 -127 -37.5 -207 t-130.5 -154q108 -96 153 -206.5t45 -276.5v-35q0 -73 -114 -73q-115 0 -115 73v17q0 150 -33 229q-30 83 -113 154l-67 -45q-40 -26 -43 -50v-305q0 -73 -115 -73t-115 73v305q-3 24 -43 50l-67 45q-79 -67 -115 -154q-31 -85 -31 -229v-17q0 -73 -114 -73q-115 0 -115 73z " />
<glyph unicode="&#x437;" horiz-adv-x="942" d="M115 774v8q0 122 98 207q101 88 262 88q166 0 264.5 -81t98.5 -216q0 -167 -131 -243q153 -77 153 -254q0 -141 -104.5 -224.5t-288.5 -83.5q-181 0 -297 84q-63 46 -8 131q53 83 125 35q80 -53 184 -53q76 0 118 32t42 93q0 129 -178 129h-76q-64 0 -64 98q0 99 66 99 h74q155 0 155 135q0 56 -37.5 89.5t-95.5 33.5t-94.5 -30t-36.5 -73v-4q0 -76 -115 -76q-114 0 -114 76z" />
<glyph unicode="&#x438;" horiz-adv-x="1013" d="M127 57v938q0 74 115 74q114 0 114 -74v-303l277 309q62 68 139 68q115 0 115 -74v-938q0 -73 -115 -73t-115 73v686l-301 -323v-363q0 -73 -114 -73q-115 0 -115 73z" />
<glyph unicode="&#x439;" horiz-adv-x="1013" d="M127 57v938q0 74 115 74q114 0 114 -74v-303l277 309q62 68 139 68q115 0 115 -74v-938q0 -73 -115 -73t-115 73v686l-301 -323v-363q0 -73 -114 -73q-115 0 -115 73zM244 1456q0 55 88 55t88 -51q0 -121 86 -121t86 121q0 51 88 51t88 -55q0 -124 -75.5 -197t-186.5 -73 t-186.5 73t-75.5 197z" />
<glyph unicode="&#x43a;" horiz-adv-x="993" d="M127 57v938q0 74 115 74q114 0 114 -74v-387q8 10 39 31l125 78q127 80 127 237v41q0 74 115 74t115 -74v-41q0 -126 -45 -211.5t-154 -162.5q125 -94 178 -203q51 -105 51 -283v-37q0 -73 -114 -73q-115 0 -115 73v25q0 142 -39 219q-39 87 -143 160l-93 -58 q-47 -30 -47 -59v-287q0 -73 -114 -73q-115 0 -115 73z" />
<glyph unicode="&#x43b;" horiz-adv-x="1093" d="M20 109q0 50 52 77q166 88 166 330v451q0 86 73 86h582q74 0 74 -86v-910q0 -73 -115 -73t-115 73v799h-270v-346q0 -372 -277 -510q-37 -16 -65 -16q-39 0 -72 38t-33 87z" />
<glyph unicode="&#x43c;" horiz-adv-x="1503" d="M127 57v648q0 170 100 271t258 101q172 0 267 -121q95 121 266 121q158 0 258 -101t100 -271v-648q0 -73 -114 -73q-115 0 -115 73v652q0 172 -139 172q-66 0 -104 -43.5t-38 -122.5v-658q0 -73 -114 -73q-115 0 -115 73v658q0 79 -37.5 122.5t-103.5 43.5 q-140 0 -140 -172v-652q0 -73 -114 -73q-115 0 -115 73z" />
<glyph unicode="&#x43d;" horiz-adv-x="1007" d="M127 57v938q0 74 115 74q114 0 114 -74v-346h295v346q0 74 115 74t115 -74v-938q0 -73 -115 -73t-115 73v396h-295v-396q0 -73 -114 -73q-115 0 -115 73z" />
<glyph unicode="&#x43e;" horiz-adv-x="995" d="M106 348v357q0 176 113 274t279 98q163 0 276 -98q115 -100 115 -274v-357q0 -174 -115 -274q-114 -99 -276 -99q-165 0 -279 99q-113 98 -113 274zM336 350q0 -83 45.5 -130.5t116.5 -47.5t116 47.5t45 130.5v352q0 83 -45 131t-116 48t-116.5 -48t-45.5 -131v-352z" />
<glyph unicode="&#x43f;" horiz-adv-x="1015" d="M127 57v910q0 86 72 86h616q74 0 74 -86v-910q0 -73 -115 -73t-115 73v799h-303v-799q0 -73 -114 -73q-115 0 -115 73z" />
<glyph unicode="&#x440;" horiz-adv-x="1015" d="M127 -377v1082q0 174 115 274q113 98 276 98q164 0 277 -98q114 -99 114 -274v-357q0 -185 -106 -278q-106 -95 -250 -95q-124 0 -197 64v-416q0 -74 -114 -74q-115 0 -115 74zM356 350q0 -85 44 -131.5t118 -46.5t118 46.5t44 131.5v352q0 85 -44.5 132t-117.5 47 t-117.5 -47t-44.5 -132v-352z" />
<glyph unicode="&#x441;" horiz-adv-x="993" d="M106 348v357q0 174 115 274q113 98 277 98q165 0 276 -102q113 -101 113 -250v-8q0 -74 -115 -74t-115 74v4q0 68 -43.5 114t-115.5 46q-73 0 -117.5 -47t-44.5 -132v-352q0 -85 44 -131.5t118 -46.5q72 0 115.5 46t43.5 114v4q0 74 115 74t115 -74v-8q0 -149 -113 -250 q-112 -103 -276 -103q-163 0 -277 99q-115 100 -115 274z" />
<glyph unicode="&#x442;" horiz-adv-x="880" d="M37 954q0 99 63 99h680q64 0 64 -99q0 -98 -66 -98h-223v-799q0 -73 -115 -73q-114 0 -114 73v799h-224q-65 0 -65 98z" />
<glyph unicode="&#x443;" horiz-adv-x="1036" d="M127 348v647q0 74 115 74q114 0 114 -74v-645q0 -85 44 -131.5t118 -46.5t118 46.5t44 131.5v645q0 74 115 74q114 0 114 -74v-1073q0 -176 -114 -278q-115 -103 -295 -103q-176 0 -291 86q-65 47 -8 131q56 83 125 35q57 -42 122.5 -51.5t117 9.5t85 66t29.5 111v111 q-73 -64 -197 -64q-143 0 -252 95q-104 94 -104 278z" />
<glyph unicode="&#x444;" horiz-adv-x="1548" d="M106 348v357q0 181 105 276q110 96 252 96q124 0 196 -63v424q0 73 115 73t115 -73v-424q72 63 196 63q143 0 250 -96q107 -94 107 -276v-357q0 -184 -107 -278q-106 -95 -250 -95q-123 0 -196 64v-416q0 -74 -115 -74t-115 74v416q-73 -64 -196 -64q-143 0 -252 95 q-105 94 -105 278zM336 350q0 -85 44 -131.5t118 -46.5q73 0 117 46.5t44 131.5v352q0 85 -44 132t-117 47t-117.5 -47t-44.5 -132v-352zM889 350q0 -85 44 -131.5t118 -46.5q73 0 117 46.5t44 131.5v352q0 85 -44 132t-117 47t-117.5 -47t-44.5 -132v-352z" />
<glyph unicode="&#x445;" horiz-adv-x="997" d="M92 57v54q0 234 242 421q-232 188 -232 412v51q0 74 115 74t115 -74v-18q0 -99 35.5 -169.5t130.5 -148.5q95 78 130.5 148.5t35.5 169.5v18q0 74 114 74q115 0 115 -74v-51q0 -224 -231 -412q241 -186 241 -421v-54q0 -73 -115 -73q-114 0 -114 73v21q0 99 -38 172 t-138 156q-100 -83 -138 -156t-38 -172v-21q0 -73 -115 -73t-115 73z" />
<glyph unicode="&#x446;" horiz-adv-x="1077" d="M127 86v909q0 74 115 74q114 0 114 -74v-798h303v798q0 74 115 74t115 -74v-798h90q74 0 74 -86v-246q0 -74 -115 -74t-115 74v135h-622q-74 0 -74 86z" />
<glyph unicode="&#x447;" horiz-adv-x="1019" d="M111 694v301q0 74 114 74q115 0 115 -74v-282q0 -88 44.5 -142.5t117.5 -54.5q162 0 162 197v282q0 74 114 74q115 0 115 -74v-938q0 -73 -115 -73q-114 0 -114 73v338q-67 -73 -203 -73q-144 0 -248 94q-102 94 -102 278z" />
<glyph unicode="&#x448;" horiz-adv-x="1466" d="M127 84v911q0 74 115 74q114 0 114 -74v-798h262v798q0 74 115 74t115 -74v-798h262v798q0 74 115 74q114 0 114 -74v-911q0 -84 -73 -84h-1067q-72 0 -72 84z" />
<glyph unicode="&#x449;" horiz-adv-x="1527" d="M127 84v911q0 74 115 74q114 0 114 -74v-798h262v798q0 74 115 74t115 -74v-798h262v798q0 74 115 74q114 0 114 -74v-798h91q73 0 73 -86v-246q0 -74 -114 -74q-115 0 -115 74v135h-1075q-72 0 -72 84z" />
<glyph unicode="&#x44a;" horiz-adv-x="1169" d="M37 954q0 99 63 99h383q72 0 72 -86v-277q70 55 188 55q149 0 256 -98q109 -100 109 -264v-41q0 -168 -115 -268q-114 -99 -276 -99q-163 0 -277 99t-114 274v508h-224q-65 0 -65 98zM555 350q0 -85 44 -131.5t118 -46.5t118 46.5t44 131.5v21q0 83 -45.5 130.5 t-116.5 47.5t-116.5 -47.5t-45.5 -130.5v-21z" />
<glyph unicode="&#x44b;" horiz-adv-x="1402" d="M127 348v647q0 74 115 74q114 0 114 -74v-305q70 55 189 55q149 0 256 -98q108 -99 108 -264v-41q0 -169 -114 -268t-277 -99q-162 0 -276 99q-115 100 -115 274zM356 350q0 -85 44 -131.5t118 -46.5t118 46.5t44 131.5v21q0 83 -45.5 130.5t-116.5 47.5t-116.5 -47.5 t-45.5 -130.5v-21zM1047 57v938q0 74 114 74q115 0 115 -74v-938q0 -73 -115 -73q-114 0 -114 73z" />
<glyph unicode="&#x44c;" horiz-adv-x="970" d="M127 348v647q0 74 115 74q114 0 114 -74v-305q70 55 189 55q149 0 256 -98q108 -99 108 -264v-41q0 -169 -114 -268t-277 -99q-162 0 -276 99q-115 100 -115 274zM356 350q0 -85 44 -131.5t118 -46.5t118 46.5t44 131.5v21q0 83 -45.5 130.5t-116.5 47.5t-116.5 -47.5 t-45.5 -130.5v-21z" />
<glyph unicode="&#x44d;" horiz-adv-x="993" d="M106 328v8q0 74 115 74t115 -74v-4q0 -68 44 -114t116 -46q73 0 117 46.5t44 131.5v78h-225q-65 0 -65 98q0 99 63 99h227v77q0 85 -44 132t-117 47q-72 0 -116 -46t-44 -114v-4q0 -74 -115 -74t-115 74v8q0 148 111 250q114 102 279 102q163 0 276 -98 q115 -100 115 -274v-357q0 -174 -115 -274q-114 -99 -276 -99q-164 0 -279 103q-111 102 -111 250z" />
<glyph unicode="&#x44e;" horiz-adv-x="1384" d="M127 57v938q0 74 115 74q114 0 114 -74v-372h140v82q0 177 112 274q113 98 279 98q163 0 276 -98q115 -100 115 -274v-357q0 -174 -115 -274q-114 -99 -276 -99q-165 0 -279 99q-112 97 -112 274v80h-140v-371q0 -73 -114 -73q-115 0 -115 73zM725 350q0 -83 45.5 -130.5 t116.5 -47.5t116.5 47.5t45.5 130.5v352q0 83 -45.5 131t-116.5 48t-116.5 -48t-45.5 -131v-352z" />
<glyph unicode="&#x44f;" horiz-adv-x="980" d="M113 55v125q0 225 139 305q-139 89 -139 254q0 141 95 227.5t245 86.5h342q59 0 59 -66v-932q0 -71 -115 -71q-114 0 -114 71v334h-136q-147 0 -147 -207v-127q0 -71 -115 -71q-114 0 -114 71zM342 721q0 -137 147 -137h136v274h-136q-147 0 -147 -137z" />
<glyph unicode="&#x450;" horiz-adv-x="987" d="M106 340v362q0 177 109 277q110 98 281 98q168 0 278 -96q107 -94 107 -240q0 -231 -267 -290l-217 -50q-61 -12 -61 -47v-28q0 -73 41.5 -113.5t111.5 -40.5q72 0 115 38t43 95v6q0 74 115 74t115 -74v-14q0 -133 -107 -227q-109 -95 -274 -95q-177 0 -283.5 101 t-106.5 264zM299 1438q0 26 31 57t61 31q20 0 33 -13l205 -202q16 -16 16 -39q0 -27 -31.5 -57.5t-60.5 -30.5q-21 0 -33 12l-205 203q-16 16 -16 39zM336 575q15 11 47 17l131 31q73 19 105 49t32 80q0 56 -44 92.5t-115 36.5q-70 0 -113 -41t-43 -113v-152z" />
<glyph unicode="&#x451;" horiz-adv-x="987" d="M106 340v362q0 177 109 277q110 98 281 98q168 0 278 -96q107 -94 107 -240q0 -231 -267 -290l-217 -50q-61 -12 -61 -47v-28q0 -73 41.5 -113.5t111.5 -40.5q72 0 115 38t43 95v6q0 74 115 74t115 -74v-14q0 -133 -107 -227q-109 -95 -274 -95q-177 0 -283.5 101 t-106.5 264zM221 1305v73q0 37 27 61.5t71 24.5t71.5 -24.5t27.5 -61.5v-73q0 -37 -27.5 -61.5t-71.5 -24.5t-71 24.5t-27 61.5zM336 575q15 11 47 17l131 31q73 19 105 49t32 80q0 56 -44 92.5t-115 36.5q-70 0 -113 -41t-43 -113v-152zM557 1305v73q0 37 27 61.5t71 24.5 t71.5 -24.5t27.5 -61.5v-73q0 -37 -27.5 -61.5t-71.5 -24.5t-71 24.5t-27 61.5z" />
<glyph unicode="&#x452;" horiz-adv-x="1079" d="M14 1274q0 69 49 69h107v95q0 73 115 73q114 0 114 -73v-95h238q47 0 47 -69q0 -70 -47 -70h-238v-190q72 63 197 63q143 0 250 -96q106 -93 106 -276v-637q0 -372 -276 -510q-39 -17 -66 -17q-39 0 -71.5 38t-32.5 87q0 52 51 78q166 88 166 330v628q0 85 -44.5 132 t-117.5 47t-117.5 -47t-44.5 -132v-645q0 -73 -114 -73q-115 0 -115 73v1147h-107q-49 0 -49 70z" />
<glyph unicode="&#x453;" horiz-adv-x="790" d="M127 57v910q0 86 72 86h491q64 0 64 -99q0 -98 -66 -98h-332v-799q0 -73 -114 -73q-115 0 -115 73zM289 1272q0 23 16 39l205 202q13 13 33 13q30 0 61 -31t31 -57q0 -22 -17 -39l-204 -203q-12 -12 -33 -12q-29 0 -60.5 30.5t-31.5 57.5z" />
<glyph unicode="&#x454;" horiz-adv-x="993" d="M106 348v357q0 174 115 274q113 98 277 98q165 0 276 -102q113 -101 113 -250v-8q0 -74 -115 -74t-115 74v4q0 68 -43.5 114t-115.5 46q-73 0 -117.5 -47t-44.5 -132v-77h227q64 0 64 -99q0 -98 -66 -98h-225v-78q0 -85 44 -131.5t118 -46.5q72 0 115.5 46t43.5 114v4 q0 74 115 74t115 -74v-8q0 -149 -113 -250q-112 -103 -276 -103q-163 0 -277 99q-115 100 -115 274z" />
<glyph unicode="&#x455;" horiz-adv-x="927" d="M96 264v25q0 71 115 71t115 -71v-4q0 -51 40 -82t103 -31q66 0 106.5 29t40.5 78q0 56 -46.5 92.5t-172.5 77.5q-156 51 -227.5 125t-71.5 196q0 142 105 225q104 82 256 82q158 0 268 -84q109 -83 109 -207v-24q0 -72 -115 -72t-115 72v4q0 54 -37 84.5t-100 30.5 q-64 0 -102.5 -29t-38.5 -78q0 -54 44.5 -89.5t159.5 -70.5q314 -95 314 -331q0 -143 -111 -226q-107 -82 -262 -82q-163 0 -270 82t-107 207z" />
<glyph unicode="&#x456;" horiz-adv-x="512" d="M139 1323v43q0 55 30.5 84t86.5 29t86.5 -29t30.5 -84v-43q0 -55 -30.5 -84t-86.5 -29t-86.5 29t-30.5 84zM141 57v938q0 74 115 74t115 -74v-938q0 -73 -115 -73t-115 73z" />
<glyph unicode="&#x457;" horiz-adv-x="512" d="M-10 1305v73q0 37 27 61.5t71 24.5t71 -24.5t27 -61.5v-73q0 -37 -27 -61.5t-71 -24.5t-71 24.5t-27 61.5zM141 57v938q0 74 115 74t115 -74v-938q0 -73 -115 -73t-115 73zM326 1305v73q0 37 27 61.5t71 24.5t71 -24.5t27 -61.5v-73q0 -37 -27 -61.5t-71 -24.5t-71 24.5 t-27 61.5z" />
<glyph unicode="&#x458;" horiz-adv-x="512" d="M-76 -334q0 52 51 78q166 88 166 330v921q0 74 115 74t115 -74v-927q0 -372 -277 -510q-39 -17 -65 -17q-39 0 -72 38t-33 87zM139 1323v43q0 55 30.5 84t86.5 29t86.5 -29t30.5 -84v-43q0 -55 -30.5 -84t-86.5 -29t-86.5 29t-30.5 84z" />
<glyph unicode="&#x459;" horiz-adv-x="1581" d="M20 109q0 50 52 77q166 88 166 330v451q0 86 73 86h582q74 0 74 -86v-277q70 55 188 55q149 0 256 -98q109 -100 109 -264v-41q0 -168 -115 -268q-114 -99 -277 -99q-162 0 -276 99q-115 100 -115 274v508h-270v-346q0 -372 -277 -510q-37 -16 -65 -16q-39 0 -72 38 t-33 87zM967 350q0 -85 44 -131.5t117 -46.5q74 0 118 46.5t44 131.5v21q0 83 -45.5 130.5t-116.5 47.5t-116 -47.5t-45 -130.5v-21z" />
<glyph unicode="&#x45a;" horiz-adv-x="1495" d="M127 57v938q0 74 115 74q114 0 114 -74v-346h295v346q0 74 115 74t115 -74v-305q70 55 188 55q149 0 256 -98q109 -100 109 -264v-41q0 -168 -115 -268q-114 -99 -277 -99q-162 0 -276 99q-115 100 -115 274v107h-295v-398q0 -73 -114 -73q-115 0 -115 73zM881 350 q0 -85 44 -131.5t117 -46.5q74 0 118 46.5t44 131.5v21q0 83 -45.5 130.5t-116.5 47.5t-116 -47.5t-45 -130.5v-21z" />
<glyph unicode="&#x45b;" horiz-adv-x="1079" d="M14 1274q0 69 49 69h107v95q0 73 115 73q114 0 114 -73v-95h238q47 0 47 -69q0 -70 -47 -70h-238v-190q72 63 197 63q143 0 250 -96q106 -93 106 -276v-648q0 -73 -114 -73q-115 0 -115 73v645q0 85 -44.5 132t-117.5 47t-117.5 -47t-44.5 -132v-645q0 -73 -114 -73 q-115 0 -115 73v1147h-107q-49 0 -49 70z" />
<glyph unicode="&#x45c;" horiz-adv-x="993" d="M127 57v938q0 74 115 74q114 0 114 -74v-387q8 10 39 31l125 78q127 80 127 237v41q0 74 115 74t115 -74v-41q0 -126 -45 -211.5t-154 -162.5q125 -94 178 -203q51 -105 51 -283v-37q0 -73 -114 -73q-115 0 -115 73v25q0 142 -39 219q-39 87 -143 160l-93 -58 q-47 -30 -47 -59v-287q0 -73 -114 -73q-115 0 -115 73zM330 1272q0 23 16 39l205 202q13 13 33 13q30 0 61 -31t31 -57q0 -22 -17 -39l-204 -203q-12 -12 -33 -12q-29 0 -60.5 30.5t-31.5 57.5z" />
<glyph unicode="&#x45d;" horiz-adv-x="1013" d="M127 57v938q0 74 115 74q114 0 114 -74v-303l277 309q62 68 139 68q115 0 115 -74v-938q0 -73 -115 -73t-115 73v686l-301 -323v-363q0 -73 -114 -73q-115 0 -115 73zM352 1272q0 22 17 39l204 202q13 13 33 13q29 0 60.5 -31.5t31.5 -56.5q0 -23 -16 -39l-205 -203 q-12 -12 -33 -12q-30 0 -61 30.5t-31 57.5z" />
<glyph unicode="&#x45e;" horiz-adv-x="1036" d="M127 348v647q0 74 115 74q114 0 114 -74v-645q0 -85 44 -131.5t118 -46.5t118 46.5t44 131.5v645q0 74 115 74q114 0 114 -74v-1073q0 -176 -114 -278q-115 -103 -295 -103q-176 0 -291 86q-65 47 -8 131q56 83 125 35q57 -42 122.5 -51.5t117 9.5t85 66t29.5 111v111 q-73 -64 -197 -64q-143 0 -252 95q-104 94 -104 278zM256 1456q0 55 88 55t88 -51q0 -121 86 -121t86 121q0 51 88 51t88 -55q0 -124 -75.5 -197t-186.5 -73t-186.5 73t-75.5 197z" />
<glyph unicode="&#x45f;" horiz-adv-x="1015" d="M127 86v909q0 74 115 74q114 0 114 -74v-798h303v798q0 74 115 74t115 -74v-909q0 -86 -74 -86h-192v-135q0 -74 -115 -74t-115 74v135h-194q-72 0 -72 86z" />
<glyph unicode="&#x490;" horiz-adv-x="993" d="M154 59v1301q0 82 67 82h475v174q0 76 123 76t123 -76v-301q0 -82 -68 -82h-475v-1174q0 -75 -123 -75q-122 0 -122 75z" />
<glyph unicode="&#x491;" horiz-adv-x="790" d="M127 57v910q0 86 72 86h325v135q0 74 115 74t115 -74v-246q0 -86 -72 -86h-326v-799q0 -73 -114 -73q-115 0 -115 73z" />
<glyph unicode="&#x2000;" horiz-adv-x="961" />
<glyph unicode="&#x2001;" horiz-adv-x="1923" />
<glyph unicode="&#x2002;" horiz-adv-x="961" />
<glyph unicode="&#x2003;" horiz-adv-x="1923" />
<glyph unicode="&#x2004;" horiz-adv-x="641" />
<glyph unicode="&#x2005;" horiz-adv-x="480" />
<glyph unicode="&#x2006;" horiz-adv-x="320" />
<glyph unicode="&#x2007;" horiz-adv-x="320" />
<glyph unicode="&#x2008;" horiz-adv-x="240" />
<glyph unicode="&#x2009;" horiz-adv-x="384" />
<glyph unicode="&#x200a;" horiz-adv-x="106" />
<glyph unicode="&#x2010;" horiz-adv-x="843" d="M102 682q0 100 64 100h510q65 0 65 -100t-65 -100h-510q-64 0 -64 100z" />
<glyph unicode="&#x2011;" horiz-adv-x="843" d="M102 682q0 100 64 100h510q65 0 65 -100t-65 -100h-510q-64 0 -64 100z" />
<glyph unicode="&#x2012;" horiz-adv-x="843" d="M102 682q0 100 64 100h510q65 0 65 -100t-65 -100h-510q-64 0 -64 100z" />
<glyph unicode="&#x2013;" horiz-adv-x="1024" d="M-25 682q0 100 64 100h944q66 0 66 -100t-66 -100h-944q-64 0 -64 100z" />
<glyph unicode="&#x2014;" horiz-adv-x="2048" d="M-25 682q0 100 64 100h1968q66 0 66 -100t-66 -100h-1968q-64 0 -64 100z" />
<glyph unicode="&#x2018;" horiz-adv-x="565" d="M156 1159v27q0 227 170 403q58 58 139 -6q69 -57 22 -125q-77 -109 -77 -270v-29q0 -50 -34 -81t-93 -31t-93 31t-34 81z" />
<glyph unicode="&#x2019;" horiz-adv-x="565" d="M125 1212q78 110 78 271v28q0 50 34 81.5t93 31.5t93 -31.5t34 -81.5v-26q0 -228 -170 -404q-58 -58 -140 6q-69 57 -22 125z" />
<glyph unicode="&#x201a;" horiz-adv-x="565" d="M125 -139q78 110 78 270v29q0 50 34 81t93 31t93 -31t34 -81v-27q0 -227 -170 -403q-58 -58 -140 6q-69 57 -22 125z" />
<glyph unicode="&#x201c;" horiz-adv-x="931" d="M156 1159v27q0 227 170 403q58 58 139 -6q69 -57 22 -125q-77 -109 -77 -270v-29q0 -50 -34 -81t-93 -31t-93 31t-34 81zM522 1159v27q0 227 170 403q58 58 139 -6q69 -58 23 -125q-78 -110 -78 -270v-29q0 -50 -34 -81t-93 -31t-93 31t-34 81z" />
<glyph unicode="&#x201d;" horiz-adv-x="931" d="M125 1212q78 110 78 271v28q0 50 34 81.5t93 31.5t93 -31.5t34 -81.5v-26q0 -228 -170 -404q-58 -58 -140 6q-69 57 -22 125zM492 1212q77 109 77 271v28q0 50 34 81.5t93 31.5t93 -31.5t34 -81.5v-26q0 -228 -170 -404q-58 -58 -139 6q-69 57 -22 125z" />
<glyph unicode="&#x201e;" horiz-adv-x="931" d="M125 -139q78 110 78 270v29q0 50 34 81t93 31t93 -31t34 -81v-27q0 -227 -170 -403q-58 -58 -140 6q-69 57 -22 125zM492 -139q77 109 77 270v29q0 50 34 81t93 31t93 -31t34 -81v-27q0 -227 -170 -403q-58 -58 -139 6q-69 57 -22 125z" />
<glyph unicode="&#x2026;" horiz-adv-x="1695" d="M156 88v72q0 50 34 81t93 31t93 -31t34 -81v-72q0 -50 -34 -81.5t-93 -31.5t-93 31.5t-34 81.5zM721 88v72q0 50 34 81t93 31t93 -31t34 -81v-72q0 -50 -34 -81.5t-93 -31.5t-93 31.5t-34 81.5zM1286 88v72q0 50 34 81t93 31t93 -31t34 -81v-72q0 -50 -34 -81.5 t-93 -31.5t-93 31.5t-34 81.5z" />
<glyph unicode="&#x202f;" horiz-adv-x="384" />
<glyph unicode="&#x2039;" horiz-adv-x="704" d="M143 633q0 29 27 53l266 264q36 33 92 -20q52 -52 19 -86l-217 -211l217 -211q34 -29 -19 -88q-55 -58 -92 -21l-266 267q-27 27 -27 53z" />
<glyph unicode="&#x203a;" horiz-adv-x="704" d="M193 422l217 211l-217 211q-34 34 18 86q56 53 92 20l266 -264q27 -24 27 -53q0 -26 -27 -53l-266 -267q-37 -37 -92 21q-52 58 -18 88z" />
<glyph unicode="&#x205f;" horiz-adv-x="480" />
<glyph unicode="&#x20ac;" horiz-adv-x="1290" d="M35 596q0 53 47 53h108v144h-108q-47 0 -47 53t47 53h108v96q0 211 140 342q138 129 348 129q211 0 348 -125q139 -127 139 -333v-17q0 -76 -123 -76q-122 0 -122 76v6q0 117 -67.5 188.5t-174.5 71.5q-109 0 -175.5 -73t-66.5 -197v-88h340q47 0 47 -53t-47 -53h-340 v-144h340q47 0 47 -53t-47 -53h-340v-88q0 -124 66.5 -197.5t175.5 -73.5q107 0 174.5 71.5t67.5 188.5v7q0 75 122 75q123 0 123 -75v-17q0 -207 -139 -334q-137 -125 -348 -125q-210 0 -348 129q-140 131 -140 342v97h-108q-47 0 -47 53z" />
<glyph unicode="&#x2122;" horiz-adv-x="1353" d="M20 1358q0 67 48 67h385q47 0 47 -67q0 -66 -47 -66h-117v-469q0 -47 -76 -47t-76 47v469h-116q-48 0 -48 66zM530 823v391q0 103 61 162.5t159 59.5q101 0 161 -72q60 72 162 72q99 0 159 -59t60 -163v-391q0 -47 -73 -47q-76 0 -76 47v369q0 111 -78 111t-78 -111v-369 q0 -47 -76 -47q-73 0 -73 47v369q0 111 -80 111q-76 0 -76 -111v-369q0 -47 -76 -47t-76 47z" />
<glyph unicode="&#x25fc;" horiz-adv-x="1064" d="M0 0v1065h1065v-1065h-1065z" />
</font>
</defs>
</svg>
