<svg width="321" height="125" viewBox="0 0 321 125" fill="none" xmlns="http://www.w3.org/2000/svg">
<path d="M101.502 22.594C101.502 22.944 101.782 23.112 102.342 23.112C102.902 23.112 103.182 22.944 103.182 22.594V15.972C103.182 15.034 103.784 14.404 104.568 14.404C105.408 14.404 105.954 14.978 105.954 15.972V22.594C105.954 22.944 106.234 23.112 106.794 23.112C107.354 23.112 107.634 22.944 107.634 22.594V16.112C107.634 15.174 107.354 14.418 106.794 13.844C106.234 13.27 105.52 12.976 104.638 12.976C103.672 12.976 102.804 13.424 102.342 14.11C101.88 13.424 101.012 12.976 100.046 12.976C99.164 12.976 98.45 13.27 97.89 13.844C97.33 14.418 97.05 15.174 97.05 16.112V22.594C97.05 22.944 97.33 23.112 97.89 23.112C98.45 23.112 98.73 22.944 98.73 22.594V15.972C98.73 14.978 99.276 14.404 100.116 14.404C100.9 14.404 101.502 15.034 101.502 15.972V22.594ZM114.596 19.892C114.596 21.026 113.924 21.74 112.93 21.74C111.936 21.74 111.264 21.026 111.264 19.892V16.252C111.264 15.118 111.936 14.404 112.93 14.404C113.924 14.404 114.596 15.118 114.596 16.252V19.892ZM116.262 16.196C116.262 15.23 115.94 14.446 115.31 13.858C114.68 13.27 113.882 12.976 112.93 12.976C111.978 12.976 111.18 13.27 110.55 13.858C109.92 14.446 109.598 15.23 109.598 16.196V19.948C109.598 20.914 109.92 21.698 110.55 22.286C111.18 22.874 111.978 23.168 112.93 23.168C113.882 23.168 114.68 22.874 115.31 22.286C115.94 21.698 116.262 20.914 116.262 19.948V16.196ZM118.088 19.948C118.088 20.914 118.41 21.698 119.04 22.286C119.67 22.874 120.468 23.168 121.42 23.168C122.372 23.168 123.17 22.888 123.8 22.314C124.43 21.74 124.752 20.984 124.752 20.032V19.92C124.752 19.57 124.472 19.402 123.912 19.402C123.352 19.402 123.072 19.57 123.072 19.92V19.962C123.072 21.04 122.386 21.74 121.42 21.74C120.426 21.74 119.768 21.026 119.768 19.892V16.252C119.768 15.118 120.426 14.404 121.42 14.404C122.386 14.404 123.072 15.104 123.072 16.182V16.224C123.072 16.574 123.352 16.742 123.912 16.742C124.472 16.742 124.752 16.574 124.752 16.224V16.112C124.752 15.16 124.43 14.404 123.8 13.83C123.17 13.256 122.372 12.976 121.42 12.976C120.468 12.976 119.67 13.27 119.04 13.858C118.41 14.446 118.088 15.23 118.088 16.196V19.948ZM131.074 14.18C131.074 15.356 130.528 16.308 129.436 17.022L128.764 17.47C128.554 17.596 128.414 17.694 128.33 17.778V13.55C128.33 13.2 128.05 13.032 127.49 13.032C126.93 13.032 126.65 13.2 126.65 13.55V22.594C126.65 22.944 126.93 23.112 127.49 23.112C128.05 23.112 128.33 22.944 128.33 22.594V19.822C128.33 19.64 128.47 19.458 128.736 19.29L129.884 18.562C130.962 19.556 131.354 20.662 131.354 22.3V22.594C131.354 22.944 131.634 23.112 132.194 23.112C132.754 23.112 133.034 22.944 133.034 22.594V21.88C133.034 20.13 132.488 18.898 131.214 17.652C132.236 16.756 132.754 15.594 132.754 14.152V13.55C132.754 13.2 132.474 13.032 131.914 13.032C131.354 13.032 131.074 13.2 131.074 13.55V14.18ZM139.738 19.892C139.738 21.026 139.066 21.74 138.072 21.74C137.078 21.74 136.406 21.026 136.406 19.892V16.252C136.406 15.118 137.078 14.404 138.072 14.404C139.066 14.404 139.738 15.118 139.738 16.252V19.892ZM141.404 16.196C141.404 15.23 141.082 14.446 140.452 13.858C139.822 13.27 139.024 12.976 138.072 12.976C137.12 12.976 136.322 13.27 135.692 13.858C135.062 14.446 134.74 15.23 134.74 16.196V19.948C134.74 20.914 135.062 21.698 135.692 22.286C136.322 22.874 137.12 23.168 138.072 23.168C139.024 23.168 139.822 22.874 140.452 22.286C141.082 21.698 141.404 20.914 141.404 19.948V16.196ZM145.05 18.618H146.884C147.71 18.618 148.186 19.304 148.186 20.088C148.186 20.928 147.724 21.572 146.772 21.572H145.05V18.618ZM145.05 14.572H146.744C147.528 14.572 147.976 15.146 147.976 15.874C147.976 16.616 147.528 17.19 146.744 17.19H145.05V14.572ZM146.982 23C147.892 23 148.606 22.734 149.11 22.188C149.614 21.642 149.866 20.97 149.866 20.2C149.866 19.094 149.418 18.324 148.508 17.862C149.278 17.414 149.656 16.714 149.656 15.776C149.656 15.034 149.418 14.404 148.928 13.9C148.438 13.396 147.794 13.144 146.982 13.144H143.916C143.552 13.144 143.37 13.34 143.37 13.746V22.412C143.37 22.804 143.552 23 143.916 23H146.982ZM151.433 19.948C151.433 20.914 151.755 21.698 152.385 22.286C153.015 22.874 153.813 23.168 154.765 23.168C155.717 23.168 156.515 22.888 157.145 22.314C157.775 21.74 158.097 20.984 158.097 20.032V19.92C158.097 19.57 157.817 19.402 157.257 19.402C156.697 19.402 156.417 19.57 156.417 19.92V19.962C156.417 21.04 155.731 21.74 154.765 21.74C153.771 21.74 153.113 21.026 153.113 19.892V16.252C153.113 15.118 153.771 14.404 154.765 14.404C155.731 14.404 156.417 15.104 156.417 16.182V16.224C156.417 16.574 156.697 16.742 157.257 16.742C157.817 16.742 158.097 16.574 158.097 16.224V16.112C158.097 15.16 157.775 14.404 157.145 13.83C156.515 13.256 155.717 12.976 154.765 12.976C153.813 12.976 153.015 13.27 152.385 13.858C151.755 14.446 151.433 15.23 151.433 16.196V19.948ZM164.419 14.18C164.419 15.356 163.873 16.308 162.781 17.022L162.109 17.47C161.899 17.596 161.759 17.694 161.675 17.778V13.55C161.675 13.2 161.395 13.032 160.835 13.032C160.275 13.032 159.995 13.2 159.995 13.55V22.594C159.995 22.944 160.275 23.112 160.835 23.112C161.395 23.112 161.675 22.944 161.675 22.594V19.822C161.675 19.64 161.815 19.458 162.081 19.29L163.229 18.562C164.307 19.556 164.699 20.662 164.699 22.3V22.594C164.699 22.944 164.979 23.112 165.539 23.112C166.099 23.112 166.379 22.944 166.379 22.594V21.88C166.379 20.13 165.833 18.898 164.559 17.652C165.581 16.756 166.099 15.594 166.099 14.152V13.55C166.099 13.2 165.819 13.032 165.259 13.032C164.699 13.032 164.419 13.2 164.419 13.55V14.18ZM173.238 22.594C173.238 22.944 173.518 23.112 174.078 23.112C174.638 23.112 174.918 22.944 174.918 22.594V16.196C174.918 15.23 174.596 14.446 173.952 13.858C173.322 13.27 172.524 12.976 171.572 12.976C170.62 12.976 169.822 13.27 169.178 13.858C168.548 14.446 168.226 15.23 168.226 16.196V22.594C168.226 22.944 168.506 23.112 169.066 23.112C169.626 23.112 169.906 22.944 169.906 22.594V19.542H173.238V22.594ZM169.906 16.252C169.906 15.118 170.578 14.404 171.572 14.404C172.566 14.404 173.238 15.118 173.238 16.252V18.114H169.906V16.252ZM176.891 22.594C176.891 22.944 177.171 23.112 177.731 23.112C178.291 23.112 178.571 22.944 178.571 22.594V21.782C178.571 20.004 179.089 19.108 180.111 19.108H181.385V22.594C181.385 22.944 181.665 23.112 182.225 23.112C182.785 23.112 183.065 22.944 183.065 22.594V13.676C183.065 13.326 182.883 13.144 182.533 13.144H179.915C178.053 13.144 176.891 14.18 176.891 16.098C176.891 17.19 177.325 17.974 178.207 18.45C177.325 18.954 176.891 19.906 176.891 21.292V22.594ZM181.385 17.68H180.055C179.061 17.68 178.571 17.162 178.571 16.126C178.571 15.09 179.061 14.572 180.055 14.572H181.385V17.68Z" fill="white"/>
<path d="M97.95 54.46C97.95 56.53 98.64 58.21 99.99 59.47C101.34 60.73 103.05 61.36 105.09 61.36C107.13 61.36 108.84 60.76 110.19 59.53C111.54 58.3 112.23 56.68 112.23 54.64V54.4C112.23 53.65 111.63 53.29 110.43 53.29C109.23 53.29 108.63 53.65 108.63 54.4V54.49C108.63 56.8 107.16 58.3 105.09 58.3C102.96 58.3 101.55 56.77 101.55 54.34V46.54C101.55 44.11 102.96 42.58 105.09 42.58C107.16 42.58 108.63 44.08 108.63 46.39V46.48C108.63 47.23 109.23 47.59 110.43 47.59C111.63 47.59 112.23 47.23 112.23 46.48V46.24C112.23 44.2 111.54 42.58 110.19 41.35C108.84 40.12 107.13 39.52 105.09 39.52C103.05 39.52 101.34 40.15 99.99 41.41C98.64 42.67 97.95 44.35 97.95 46.42V54.46ZM130.021 41.08C130.021 40.27 129.691 39.88 129.031 39.88H118.591C117.931 39.88 117.601 40.27 117.601 41.08V52.66C117.601 55.51 116.971 57.34 115.141 58.21C114.571 58.48 114.271 58.87 114.271 59.44C114.271 60.4 115.021 61.24 115.831 61.24C116.101 61.24 116.431 61.15 116.821 61C120.151 59.59 121.201 57.01 121.201 52.69V42.94H126.421V60.13C126.421 60.88 127.021 61.24 128.221 61.24C129.421 61.24 130.021 60.88 130.021 60.13V41.08ZM144.78 47.26C144.78 49.69 143.64 51.1 141.45 51.1C139.26 51.1 138.12 49.66 138.12 47.26V40.75C138.12 40 137.52 39.64 136.32 39.64C135.12 39.64 134.52 40 134.52 40.75V47.23C134.52 51.55 137.13 54.16 141.09 54.16C142.68 54.16 143.91 53.71 144.81 52.81V54.67C144.81 56.95 143.43 58.09 141.12 58.09C139.89 58.09 138.81 57.88 137.88 57.46C137.49 57.28 137.22 57.19 137.07 57.19C136.26 57.19 135.48 58.15 135.48 59.08C135.48 59.44 135.66 59.77 136.02 60.07C137.16 60.94 138.9 61.36 141.24 61.36C143.34 61.36 145.05 60.79 146.37 59.65C147.72 58.48 148.38 56.89 148.38 54.85V40.75C148.38 40 147.78 39.64 146.58 39.64C145.38 39.64 144.78 40 144.78 40.75V47.26ZM160.839 60.13C160.839 60.88 161.439 61.24 162.639 61.24C163.839 61.24 164.439 60.88 164.439 60.13V53.8C164.439 53.47 164.709 53.08 165.219 52.66L166.929 51.25C167.829 52.3 168.459 53.38 168.789 54.43C169.119 55.48 169.299 56.86 169.299 58.51V60.13C169.299 60.88 169.899 61.24 171.099 61.24C172.299 61.24 172.899 60.88 172.899 60.13V58.24C172.899 56.23 172.659 54.58 172.179 53.23C171.729 51.88 170.889 50.56 169.689 49.24C171.459 47.38 172.359 45.1 172.359 42.4V40.75C172.359 40 171.759 39.64 170.559 39.64C169.359 39.64 168.759 40 168.759 40.75V41.8C168.759 44.44 168.309 45.85 166.839 47.08L165.009 48.61C164.709 48.85 164.529 49.03 164.439 49.18V40.75C164.439 40 163.839 39.64 162.639 39.64C161.439 39.64 160.839 40 160.839 40.75V49.18C160.749 49.03 160.569 48.85 160.269 48.61L158.439 47.08C156.969 45.85 156.519 44.44 156.519 41.8V40.75C156.519 40 155.919 39.64 154.719 39.64C153.519 39.64 152.919 40 152.919 40.75V42.4C152.919 45.1 153.819 47.38 155.589 49.24C154.389 50.56 153.549 51.88 153.069 53.23C152.619 54.58 152.379 56.23 152.379 58.24V60.13C152.379 60.88 152.979 61.24 154.179 61.24C155.379 61.24 155.979 60.88 155.979 60.13V58.51C155.979 56.86 156.159 55.48 156.489 54.43C156.819 53.38 157.449 52.3 158.349 51.25L160.059 52.66C160.569 53.08 160.839 53.47 160.839 53.8V60.13ZM188.373 42.94C189.003 42.94 189.333 42.43 189.333 41.41C189.333 40.39 189.003 39.88 188.373 39.88H177.873C177.213 39.88 176.883 40.27 176.883 41.08V54.43C176.883 56.62 177.573 58.3 178.983 59.53C180.393 60.76 182.103 61.36 184.143 61.36C186.153 61.36 187.863 60.76 189.273 59.53C190.683 58.3 191.403 56.65 191.403 54.52V53.44C191.403 51.4 190.743 49.75 189.423 48.52C188.103 47.29 186.483 46.66 184.563 46.66C182.853 46.66 181.503 47.14 180.483 48.13V42.94H188.373ZM180.483 53.59C180.483 51.31 182.073 49.72 184.143 49.72C186.213 49.72 187.803 51.31 187.803 53.59V54.43C187.803 56.71 186.213 58.3 184.143 58.3C182.073 58.3 180.483 56.71 180.483 54.43V53.59ZM205.582 60.13C205.582 60.88 206.182 61.24 207.382 61.24C208.582 61.24 209.182 60.88 209.182 60.13V46.42C209.182 44.35 208.492 42.67 207.112 41.41C205.762 40.15 204.052 39.52 202.012 39.52C199.972 39.52 198.262 40.15 196.882 41.41C195.532 42.67 194.842 44.35 194.842 46.42V60.13C194.842 60.88 195.442 61.24 196.642 61.24C197.842 61.24 198.442 60.88 198.442 60.13V53.59H205.582V60.13ZM198.442 46.54C198.442 44.11 199.882 42.58 202.012 42.58C204.142 42.58 205.582 44.11 205.582 46.54V50.53H198.442V46.54ZM232.707 63.55C232.707 64.3 233.307 64.66 234.507 64.66C235.707 64.66 236.307 64.3 236.307 63.55V59.14C236.307 58.33 235.977 57.94 235.317 57.94H234.417V41.08C234.417 40.27 234.087 39.88 233.427 39.88H227.937C224.487 39.88 222.267 41.98 222.267 45.58V49.57C222.267 52.69 221.787 55.48 220.827 57.94H220.077C219.417 57.94 219.087 58.33 219.087 59.14V63.55C219.087 64.3 219.687 64.66 220.887 64.66C222.087 64.66 222.687 64.3 222.687 63.55V61H232.707V63.55ZM224.547 57.94C225.417 55.36 225.867 52.57 225.867 49.6V45.94C225.867 43.93 226.707 42.94 228.387 42.94H230.817V57.94H224.547ZM242.914 51.61H246.844C248.614 51.61 249.634 53.08 249.634 54.76C249.634 56.56 248.644 57.94 246.604 57.94H242.914V51.61ZM242.914 42.94H246.544C248.224 42.94 249.184 44.17 249.184 45.73C249.184 47.32 248.224 48.55 246.544 48.55H242.914V42.94ZM247.054 61C249.004 61 250.534 60.43 251.614 59.26C252.694 58.09 253.234 56.65 253.234 55C253.234 52.63 252.274 50.98 250.324 49.99C251.974 49.03 252.784 47.53 252.784 45.52C252.784 43.93 252.274 42.58 251.224 41.5C250.174 40.42 248.794 39.88 247.054 39.88H240.484C239.704 39.88 239.314 40.3 239.314 41.17V59.74C239.314 60.58 239.704 61 240.484 61H247.054ZM267.963 61C268.593 61 268.923 60.49 268.923 59.47C268.923 58.45 268.593 57.94 267.963 57.94H260.493V51.61H267.063C267.693 51.61 268.023 51.1 268.023 50.08C268.023 49.06 267.693 48.55 267.063 48.55H260.493V42.94H267.813C268.443 42.94 268.773 42.43 268.773 41.41C268.773 40.39 268.443 39.88 267.813 39.88H257.883C257.223 39.88 256.893 40.27 256.893 41.08V59.8C256.893 60.61 257.223 61 257.883 61H267.963ZM278.51 42.94C280.73 42.94 281.84 44.14 281.84 46.57C281.84 49 280.73 50.2 278.51 50.2H276.02V42.94H278.51ZM278.84 53.26C282.92 53.26 285.44 50.89 285.44 46.57C285.44 42.25 282.92 39.88 278.84 39.88H273.56C272.81 39.88 272.42 40.27 272.42 41.02V60.13C272.42 60.88 273.02 61.24 274.22 61.24C275.42 61.24 276.02 60.88 276.02 60.13V53.26H278.84ZM300.013 61C300.643 61 300.973 60.49 300.973 59.47C300.973 58.45 300.643 57.94 300.013 57.94H292.543V51.61H299.113C299.743 51.61 300.073 51.1 300.073 50.08C300.073 49.06 299.743 48.55 299.113 48.55H292.543V42.94H299.863C300.493 42.94 300.823 42.43 300.823 41.41C300.823 40.39 300.493 39.88 299.863 39.88H289.933C289.273 39.88 288.943 40.27 288.943 41.08V59.8C288.943 60.61 289.273 61 289.933 61H300.013ZM318.331 40.75C318.331 40 317.731 39.64 316.531 39.64C315.841 39.64 315.301 39.82 314.971 40.15L308.071 46.72V40.75C308.071 40 307.471 39.64 306.271 39.64C305.071 39.64 304.471 40 304.471 40.75V60.13C304.471 60.88 305.071 61.24 306.271 61.24C307.471 61.24 308.071 60.88 308.071 60.13V51.28L314.731 44.98V60.13C314.731 60.88 315.331 61.24 316.531 61.24C317.731 61.24 318.331 60.88 318.331 60.13V40.75ZM307.561 33.91C307.561 36.43 309.331 37.87 311.401 37.87C313.471 37.87 315.241 36.43 315.241 33.91C315.241 33.37 314.821 33.1 313.951 33.1C313.081 33.1 312.661 33.34 312.661 33.85C312.661 35.02 312.241 35.62 311.401 35.62C310.561 35.62 310.141 35.02 310.141 33.85C310.141 33.34 309.721 33.1 308.851 33.1C307.981 33.1 307.561 33.37 307.561 33.91Z" fill="white"/>
<path d="M0 0H80V92.3982C80 93.6241 79.4379 94.7823 78.4748 95.5407L43.4765 123.102C42.0549 124.222 40.0587 124.247 38.6087 123.165L1.60698 95.5394C0.595656 94.7843 0 93.5963 0 92.3342V0Z" fill="#F2C94C"/>
<path d="M48.792 74C49.8 74 50.328 73.184 50.328 71.552C50.328 69.92 49.8 69.104 48.792 69.104H36.36V41.6C36.36 40.4 35.4 39.824 33.48 39.824C31.56 39.824 30.6 40.4 30.6 41.6V72.08C30.6 73.376 31.176 74 32.328 74H48.792Z" fill="white"/>
</svg>
