<svg viewBox="0 0 219 125" fill="none" xmlns="http://www.w3.org/2000/svg">
<path d="M101.502 22.594C101.502 22.944 101.782 23.112 102.342 23.112C102.902 23.112 103.182 22.944 103.182 22.594V15.972C103.182 15.034 103.784 14.404 104.568 14.404C105.408 14.404 105.954 14.978 105.954 15.972V22.594C105.954 22.944 106.234 23.112 106.794 23.112C107.354 23.112 107.634 22.944 107.634 22.594V16.112C107.634 15.174 107.354 14.418 106.794 13.844C106.234 13.27 105.52 12.976 104.638 12.976C103.672 12.976 102.804 13.424 102.342 14.11C101.88 13.424 101.012 12.976 100.046 12.976C99.164 12.976 98.45 13.27 97.89 13.844C97.33 14.418 97.05 15.174 97.05 16.112V22.594C97.05 22.944 97.33 23.112 97.89 23.112C98.45 23.112 98.73 22.944 98.73 22.594V15.972C98.73 14.978 99.276 14.404 100.116 14.404C100.9 14.404 101.502 15.034 101.502 15.972V22.594ZM114.596 19.892C114.596 21.026 113.924 21.74 112.93 21.74C111.936 21.74 111.264 21.026 111.264 19.892V16.252C111.264 15.118 111.936 14.404 112.93 14.404C113.924 14.404 114.596 15.118 114.596 16.252V19.892ZM116.262 16.196C116.262 15.23 115.94 14.446 115.31 13.858C114.68 13.27 113.882 12.976 112.93 12.976C111.978 12.976 111.18 13.27 110.55 13.858C109.92 14.446 109.598 15.23 109.598 16.196V19.948C109.598 20.914 109.92 21.698 110.55 22.286C111.18 22.874 111.978 23.168 112.93 23.168C113.882 23.168 114.68 22.874 115.31 22.286C115.94 21.698 116.262 20.914 116.262 19.948V16.196ZM118.088 19.948C118.088 20.914 118.41 21.698 119.04 22.286C119.67 22.874 120.468 23.168 121.42 23.168C122.372 23.168 123.17 22.888 123.8 22.314C124.43 21.74 124.752 20.984 124.752 20.032V19.92C124.752 19.57 124.472 19.402 123.912 19.402C123.352 19.402 123.072 19.57 123.072 19.92V19.962C123.072 21.04 122.386 21.74 121.42 21.74C120.426 21.74 119.768 21.026 119.768 19.892V16.252C119.768 15.118 120.426 14.404 121.42 14.404C122.386 14.404 123.072 15.104 123.072 16.182V16.224C123.072 16.574 123.352 16.742 123.912 16.742C124.472 16.742 124.752 16.574 124.752 16.224V16.112C124.752 15.16 124.43 14.404 123.8 13.83C123.17 13.256 122.372 12.976 121.42 12.976C120.468 12.976 119.67 13.27 119.04 13.858C118.41 14.446 118.088 15.23 118.088 16.196V19.948ZM131.074 14.18C131.074 15.356 130.528 16.308 129.436 17.022L128.764 17.47C128.554 17.596 128.414 17.694 128.33 17.778V13.55C128.33 13.2 128.05 13.032 127.49 13.032C126.93 13.032 126.65 13.2 126.65 13.55V22.594C126.65 22.944 126.93 23.112 127.49 23.112C128.05 23.112 128.33 22.944 128.33 22.594V19.822C128.33 19.64 128.47 19.458 128.736 19.29L129.884 18.562C130.962 19.556 131.354 20.662 131.354 22.3V22.594C131.354 22.944 131.634 23.112 132.194 23.112C132.754 23.112 133.034 22.944 133.034 22.594V21.88C133.034 20.13 132.488 18.898 131.214 17.652C132.236 16.756 132.754 15.594 132.754 14.152V13.55C132.754 13.2 132.474 13.032 131.914 13.032C131.354 13.032 131.074 13.2 131.074 13.55V14.18ZM139.738 19.892C139.738 21.026 139.066 21.74 138.072 21.74C137.078 21.74 136.406 21.026 136.406 19.892V16.252C136.406 15.118 137.078 14.404 138.072 14.404C139.066 14.404 139.738 15.118 139.738 16.252V19.892ZM141.404 16.196C141.404 15.23 141.082 14.446 140.452 13.858C139.822 13.27 139.024 12.976 138.072 12.976C137.12 12.976 136.322 13.27 135.692 13.858C135.062 14.446 134.74 15.23 134.74 16.196V19.948C134.74 20.914 135.062 21.698 135.692 22.286C136.322 22.874 137.12 23.168 138.072 23.168C139.024 23.168 139.822 22.874 140.452 22.286C141.082 21.698 141.404 20.914 141.404 19.948V16.196ZM145.05 18.618H146.884C147.71 18.618 148.186 19.304 148.186 20.088C148.186 20.928 147.724 21.572 146.772 21.572H145.05V18.618ZM145.05 14.572H146.744C147.528 14.572 147.976 15.146 147.976 15.874C147.976 16.616 147.528 17.19 146.744 17.19H145.05V14.572ZM146.982 23C147.892 23 148.606 22.734 149.11 22.188C149.614 21.642 149.866 20.97 149.866 20.2C149.866 19.094 149.418 18.324 148.508 17.862C149.278 17.414 149.656 16.714 149.656 15.776C149.656 15.034 149.418 14.404 148.928 13.9C148.438 13.396 147.794 13.144 146.982 13.144H143.916C143.552 13.144 143.37 13.34 143.37 13.746V22.412C143.37 22.804 143.552 23 143.916 23H146.982ZM151.433 19.948C151.433 20.914 151.755 21.698 152.385 22.286C153.015 22.874 153.813 23.168 154.765 23.168C155.717 23.168 156.515 22.888 157.145 22.314C157.775 21.74 158.097 20.984 158.097 20.032V19.92C158.097 19.57 157.817 19.402 157.257 19.402C156.697 19.402 156.417 19.57 156.417 19.92V19.962C156.417 21.04 155.731 21.74 154.765 21.74C153.771 21.74 153.113 21.026 153.113 19.892V16.252C153.113 15.118 153.771 14.404 154.765 14.404C155.731 14.404 156.417 15.104 156.417 16.182V16.224C156.417 16.574 156.697 16.742 157.257 16.742C157.817 16.742 158.097 16.574 158.097 16.224V16.112C158.097 15.16 157.775 14.404 157.145 13.83C156.515 13.256 155.717 12.976 154.765 12.976C153.813 12.976 153.015 13.27 152.385 13.858C151.755 14.446 151.433 15.23 151.433 16.196V19.948ZM164.419 14.18C164.419 15.356 163.873 16.308 162.781 17.022L162.109 17.47C161.899 17.596 161.759 17.694 161.675 17.778V13.55C161.675 13.2 161.395 13.032 160.835 13.032C160.275 13.032 159.995 13.2 159.995 13.55V22.594C159.995 22.944 160.275 23.112 160.835 23.112C161.395 23.112 161.675 22.944 161.675 22.594V19.822C161.675 19.64 161.815 19.458 162.081 19.29L163.229 18.562C164.307 19.556 164.699 20.662 164.699 22.3V22.594C164.699 22.944 164.979 23.112 165.539 23.112C166.099 23.112 166.379 22.944 166.379 22.594V21.88C166.379 20.13 165.833 18.898 164.559 17.652C165.581 16.756 166.099 15.594 166.099 14.152V13.55C166.099 13.2 165.819 13.032 165.259 13.032C164.699 13.032 164.419 13.2 164.419 13.55V14.18ZM173.238 22.594C173.238 22.944 173.518 23.112 174.078 23.112C174.638 23.112 174.918 22.944 174.918 22.594V16.196C174.918 15.23 174.596 14.446 173.952 13.858C173.322 13.27 172.524 12.976 171.572 12.976C170.62 12.976 169.822 13.27 169.178 13.858C168.548 14.446 168.226 15.23 168.226 16.196V22.594C168.226 22.944 168.506 23.112 169.066 23.112C169.626 23.112 169.906 22.944 169.906 22.594V19.542H173.238V22.594ZM169.906 16.252C169.906 15.118 170.578 14.404 171.572 14.404C172.566 14.404 173.238 15.118 173.238 16.252V18.114H169.906V16.252ZM176.891 22.594C176.891 22.944 177.171 23.112 177.731 23.112C178.291 23.112 178.571 22.944 178.571 22.594V21.782C178.571 20.004 179.089 19.108 180.111 19.108H181.385V22.594C181.385 22.944 181.665 23.112 182.225 23.112C182.785 23.112 183.065 22.944 183.065 22.594V13.676C183.065 13.326 182.883 13.144 182.533 13.144H179.915C178.053 13.144 176.891 14.18 176.891 16.098C176.891 17.19 177.325 17.974 178.207 18.45C177.325 18.954 176.891 19.906 176.891 21.292V22.594ZM181.385 17.68H180.055C179.061 17.68 178.571 17.162 178.571 16.126C178.571 15.09 179.061 14.572 180.055 14.572H181.385V17.68Z" fill="black"/>
<path d="M97.95 54.46C97.95 56.53 98.64 58.21 99.99 59.47C101.34 60.73 103.05 61.36 105.09 61.36C107.13 61.36 108.84 60.76 110.19 59.53C111.54 58.3 112.23 56.68 112.23 54.64V54.4C112.23 53.65 111.63 53.29 110.43 53.29C109.23 53.29 108.63 53.65 108.63 54.4V54.49C108.63 56.8 107.16 58.3 105.09 58.3C102.96 58.3 101.55 56.77 101.55 54.34V46.54C101.55 44.11 102.96 42.58 105.09 42.58C107.16 42.58 108.63 44.08 108.63 46.39V46.48C108.63 47.23 109.23 47.59 110.43 47.59C111.63 47.59 112.23 47.23 112.23 46.48V46.24C112.23 44.2 111.54 42.58 110.19 41.35C108.84 40.12 107.13 39.52 105.09 39.52C103.05 39.52 101.34 40.15 99.99 41.41C98.64 42.67 97.95 44.35 97.95 46.42V54.46ZM130.021 41.08C130.021 40.27 129.691 39.88 129.031 39.88H118.591C117.931 39.88 117.601 40.27 117.601 41.08V52.66C117.601 55.51 116.971 57.34 115.141 58.21C114.571 58.48 114.271 58.87 114.271 59.44C114.271 60.4 115.021 61.24 115.831 61.24C116.101 61.24 116.431 61.15 116.821 61C120.151 59.59 121.201 57.01 121.201 52.69V42.94H126.421V60.13C126.421 60.88 127.021 61.24 128.221 61.24C129.421 61.24 130.021 60.88 130.021 60.13V41.08ZM144.78 47.26C144.78 49.69 143.64 51.1 141.45 51.1C139.26 51.1 138.12 49.66 138.12 47.26V40.75C138.12 40 137.52 39.64 136.32 39.64C135.12 39.64 134.52 40 134.52 40.75V47.23C134.52 51.55 137.13 54.16 141.09 54.16C142.68 54.16 143.91 53.71 144.81 52.81V54.67C144.81 56.95 143.43 58.09 141.12 58.09C139.89 58.09 138.81 57.88 137.88 57.46C137.49 57.28 137.22 57.19 137.07 57.19C136.26 57.19 135.48 58.15 135.48 59.08C135.48 59.44 135.66 59.77 136.02 60.07C137.16 60.94 138.9 61.36 141.24 61.36C143.34 61.36 145.05 60.79 146.37 59.65C147.72 58.48 148.38 56.89 148.38 54.85V40.75C148.38 40 147.78 39.64 146.58 39.64C145.38 39.64 144.78 40 144.78 40.75V47.26ZM160.839 60.13C160.839 60.88 161.439 61.24 162.639 61.24C163.839 61.24 164.439 60.88 164.439 60.13V53.8C164.439 53.47 164.709 53.08 165.219 52.66L166.929 51.25C167.829 52.3 168.459 53.38 168.789 54.43C169.119 55.48 169.299 56.86 169.299 58.51V60.13C169.299 60.88 169.899 61.24 171.099 61.24C172.299 61.24 172.899 60.88 172.899 60.13V58.24C172.899 56.23 172.659 54.58 172.179 53.23C171.729 51.88 170.889 50.56 169.689 49.24C171.459 47.38 172.359 45.1 172.359 42.4V40.75C172.359 40 171.759 39.64 170.559 39.64C169.359 39.64 168.759 40 168.759 40.75V41.8C168.759 44.44 168.309 45.85 166.839 47.08L165.009 48.61C164.709 48.85 164.529 49.03 164.439 49.18V40.75C164.439 40 163.839 39.64 162.639 39.64C161.439 39.64 160.839 40 160.839 40.75V49.18C160.749 49.03 160.569 48.85 160.269 48.61L158.439 47.08C156.969 45.85 156.519 44.44 156.519 41.8V40.75C156.519 40 155.919 39.64 154.719 39.64C153.519 39.64 152.919 40 152.919 40.75V42.4C152.919 45.1 153.819 47.38 155.589 49.24C154.389 50.56 153.549 51.88 153.069 53.23C152.619 54.58 152.379 56.23 152.379 58.24V60.13C152.379 60.88 152.979 61.24 154.179 61.24C155.379 61.24 155.979 60.88 155.979 60.13V58.51C155.979 56.86 156.159 55.48 156.489 54.43C156.819 53.38 157.449 52.3 158.349 51.25L160.059 52.66C160.569 53.08 160.839 53.47 160.839 53.8V60.13ZM188.373 42.94C189.003 42.94 189.333 42.43 189.333 41.41C189.333 40.39 189.003 39.88 188.373 39.88H177.873C177.213 39.88 176.883 40.27 176.883 41.08V54.43C176.883 56.62 177.573 58.3 178.983 59.53C180.393 60.76 182.103 61.36 184.143 61.36C186.153 61.36 187.863 60.76 189.273 59.53C190.683 58.3 191.403 56.65 191.403 54.52V53.44C191.403 51.4 190.743 49.75 189.423 48.52C188.103 47.29 186.483 46.66 184.563 46.66C182.853 46.66 181.503 47.14 180.483 48.13V42.94H188.373ZM180.483 53.59C180.483 51.31 182.073 49.72 184.143 49.72C186.213 49.72 187.803 51.31 187.803 53.59V54.43C187.803 56.71 186.213 58.3 184.143 58.3C182.073 58.3 180.483 56.71 180.483 54.43V53.59ZM205.582 60.13C205.582 60.88 206.182 61.24 207.382 61.24C208.582 61.24 209.182 60.88 209.182 60.13V46.42C209.182 44.35 208.492 42.67 207.112 41.41C205.762 40.15 204.052 39.52 202.012 39.52C199.972 39.52 198.262 40.15 196.882 41.41C195.532 42.67 194.842 44.35 194.842 46.42V60.13C194.842 60.88 195.442 61.24 196.642 61.24C197.842 61.24 198.442 60.88 198.442 60.13V53.59H205.582V60.13ZM198.442 46.54C198.442 44.11 199.882 42.58 202.012 42.58C204.142 42.58 205.582 44.11 205.582 46.54V50.53H198.442V46.54ZM110.07 98.55C110.07 99.3 110.67 99.66 111.87 99.66C113.07 99.66 113.67 99.3 113.67 98.55V94.14C113.67 93.33 113.34 92.94 112.68 92.94H111.78V76.08C111.78 75.27 111.45 74.88 110.79 74.88H105.3C101.85 74.88 99.63 76.98 99.63 80.58V84.57C99.63 87.69 99.15 90.48 98.19 92.94H97.44C96.78 92.94 96.45 93.33 96.45 94.14V98.55C96.45 99.3 97.05 99.66 98.25 99.66C99.45 99.66 100.05 99.3 100.05 98.55V96H110.07V98.55ZM101.91 92.94C102.78 90.36 103.23 87.57 103.23 84.6V80.94C103.23 78.93 104.07 77.94 105.75 77.94H108.18V92.94H101.91ZM120.278 86.61H124.208C125.978 86.61 126.998 88.08 126.998 89.76C126.998 91.56 126.008 92.94 123.968 92.94H120.278V86.61ZM120.278 77.94H123.908C125.588 77.94 126.548 79.17 126.548 80.73C126.548 82.32 125.588 83.55 123.908 83.55H120.278V77.94ZM124.418 96C126.368 96 127.898 95.43 128.978 94.26C130.058 93.09 130.598 91.65 130.598 90C130.598 87.63 129.638 85.98 127.688 84.99C129.338 84.03 130.148 82.53 130.148 80.52C130.148 78.93 129.638 77.58 128.588 76.5C127.538 75.42 126.158 74.88 124.418 74.88H117.848C117.068 74.88 116.678 75.3 116.678 76.17V94.74C116.678 95.58 117.068 96 117.848 96H124.418ZM145.326 96C145.956 96 146.286 95.49 146.286 94.47C146.286 93.45 145.956 92.94 145.326 92.94H137.856V86.61H144.426C145.056 86.61 145.386 86.1 145.386 85.08C145.386 84.06 145.056 83.55 144.426 83.55H137.856V77.94H145.176C145.806 77.94 146.136 77.43 146.136 76.41C146.136 75.39 145.806 74.88 145.176 74.88H135.246C134.586 74.88 134.256 75.27 134.256 76.08V94.8C134.256 95.61 134.586 96 135.246 96H145.326ZM155.873 77.94C158.093 77.94 159.203 79.14 159.203 81.57C159.203 84 158.093 85.2 155.873 85.2H153.383V77.94H155.873ZM156.203 88.26C160.283 88.26 162.803 85.89 162.803 81.57C162.803 77.25 160.283 74.88 156.203 74.88H150.923C150.173 74.88 149.783 75.27 149.783 76.02V95.13C149.783 95.88 150.383 96.24 151.583 96.24C152.783 96.24 153.383 95.88 153.383 95.13V88.26H156.203ZM177.377 96C178.007 96 178.337 95.49 178.337 94.47C178.337 93.45 178.007 92.94 177.377 92.94H169.907V86.61H176.477C177.107 86.61 177.437 86.1 177.437 85.08C177.437 84.06 177.107 83.55 176.477 83.55H169.907V77.94H177.227C177.857 77.94 178.187 77.43 178.187 76.41C178.187 75.39 177.857 74.88 177.227 74.88H167.297C166.637 74.88 166.307 75.27 166.307 76.08V94.8C166.307 95.61 166.637 96 167.297 96H177.377ZM195.694 75.75C195.694 75 195.094 74.64 193.894 74.64C193.204 74.64 192.664 74.82 192.334 75.15L185.434 81.72V75.75C185.434 75 184.834 74.64 183.634 74.64C182.434 74.64 181.834 75 181.834 75.75V95.13C181.834 95.88 182.434 96.24 183.634 96.24C184.834 96.24 185.434 95.88 185.434 95.13V86.28L192.094 79.98V95.13C192.094 95.88 192.694 96.24 193.894 96.24C195.094 96.24 195.694 95.88 195.694 95.13V75.75ZM184.924 68.91C184.924 71.43 186.694 72.87 188.764 72.87C190.834 72.87 192.604 71.43 192.604 68.91C192.604 68.37 192.184 68.1 191.314 68.1C190.444 68.1 190.024 68.34 190.024 68.85C190.024 70.02 189.604 70.62 188.764 70.62C187.924 70.62 187.504 70.02 187.504 68.85C187.504 68.34 187.084 68.1 186.214 68.1C185.344 68.1 184.924 68.37 184.924 68.91Z" fill="black"/>
<path d="M0 0H80V92.3982C80 93.6241 79.4379 94.7823 78.4748 95.5408L43.4765 123.102C42.0549 124.222 40.0587 124.247 38.6087 123.165L1.60698 95.5394C0.595656 94.7843 0 93.5963 0 92.3342V0Z" fill="#F2C94C"/>
<path d="M48.792 74C49.8 74 50.328 73.184 50.328 71.552C50.328 69.92 49.8 69.104 48.792 69.104H36.36V41.6C36.36 40.4 35.4 39.824 33.48 39.824C31.56 39.824 30.6 40.4 30.6 41.6V72.08C30.6 73.376 31.176 74 32.328 74H48.792Z" fill="white"/>
</svg>