<svg width="16" height="16" viewBox="0 0 16 16" fill="none" xmlns="http://www.w3.org/2000/svg">
<path d="M8.00005 0.800049C4.02385 0.800049 0.800049 4.02385 0.800049 8.00005C0.800049 11.9762 4.02385 15.2 8.00005 15.2C11.9762 15.2 15.2 11.9762 15.2 8.00005C15.2 4.02385 11.9762 0.800049 8.00005 0.800049ZM8.60005 8.60005H3.79705C3.46705 8.60005 3.20005 8.33305 3.20005 8.00305V7.99645C3.20005 7.66705 3.46705 7.40005 3.79705 7.40005H7.40005V2.59705C7.40005 2.26705 7.66705 2.00005 7.99705 2.00005H8.00365C8.33305 2.00005 8.60005 2.26705 8.60005 2.59705V8.60005Z" fill="#333333"/>
</svg>
