<svg width="17" height="17" viewBox="0 0 17 17" fill="none" xmlns="http://www.w3.org/2000/svg">
<path d="M8.21023 0.617718C8.38714 0.440806 8.62394 0.336636 8.8739 0.325769L15.6145 0.0326999C16.1676 0.00865131 16.635 0.438589 16.6571 0.991788L16.9531 8.39046C16.9642 8.66934 16.8583 8.94019 16.661 9.13754L9.19239 16.6061C8.80186 16.9966 8.1687 16.9966 7.77817 16.6061L0.707107 9.53505C0.316582 9.14453 0.316582 8.51136 0.707107 8.12084L8.21023 0.617718Z" fill="#333333"/>
<path d="M14.9999 4.00002C14.9999 5.10459 14.1045 6.00002 12.9999 6.00002C11.8953 6.00002 10.9999 5.10459 10.9999 4.00002C10.9999 2.89545 11.8953 2.00002 12.9999 2.00002C14.1045 2.00002 14.9999 2.89545 14.9999 4.00002Z" fill="white"/>
</svg>
