<svg width="18" height="16" viewBox="0 0 18 16" fill="none" xmlns="http://www.w3.org/2000/svg">
<path d="M1.72764 5.28807C1.95534 5.44875 2.64171 5.92595 3.78677 6.71945C4.93188 7.51294 5.8091 8.12391 6.41849 8.55239C6.48544 8.59936 6.62768 8.70146 6.84528 8.85883C7.06292 9.0163 7.24375 9.14355 7.38765 9.24062C7.53165 9.33765 7.70573 9.44651 7.91006 9.567C8.11433 9.6874 8.30688 9.77796 8.48768 9.8379C8.66852 9.89835 8.83591 9.92829 8.9899 9.92829H9H9.01013C9.16412 9.92829 9.33159 9.89831 9.51242 9.8379C9.69315 9.77796 9.88588 9.68729 10.09 9.567C10.2942 9.44636 10.4682 9.33762 10.6122 9.24062C10.7562 9.14355 10.9369 9.0163 11.1546 8.85883C11.3722 8.70132 11.5146 8.59936 11.5816 8.55239C12.1975 8.12391 13.7647 7.0357 16.2824 5.28786C16.7712 4.94649 17.1796 4.53458 17.5077 4.05241C17.836 3.57045 18 3.06485 18 2.53589C18 2.09387 17.8409 1.71548 17.5228 1.40078C17.2047 1.08601 16.8279 0.928711 16.3928 0.928711H1.60708C1.09148 0.928711 0.694703 1.10279 0.416801 1.45095C0.138934 1.79918 0 2.23445 0 2.75673C0 3.1786 0.184213 3.63575 0.552462 4.12791C0.920676 4.62011 1.31253 5.00686 1.72764 5.28807Z" fill="#333333"/>
<path d="M16.9954 6.36311C14.7992 7.84958 13.1316 9.00481 11.9933 9.82856C11.6116 10.1097 11.302 10.3292 11.0642 10.4864C10.8264 10.6438 10.5102 10.8045 10.115 10.9685C9.71998 11.1327 9.35184 11.2146 9.01026 11.2146H9.00002H8.98992C8.64841 11.2146 8.28006 11.1327 7.88503 10.9685C7.49001 10.8045 7.17355 10.6438 6.93583 10.4864C6.69817 10.3292 6.38843 10.1097 6.00678 9.82856C5.10271 9.16567 3.43868 8.01036 1.01461 6.36311C0.632816 6.10881 0.294648 5.81733 0 5.48926V13.4645C0 13.9067 0.157298 14.2849 0.47207 14.5996C0.786772 14.9145 1.16519 15.0718 1.60718 15.0718H16.3929C16.8348 15.0718 17.2132 14.9145 17.5279 14.5996C17.8428 14.2848 18 13.9068 18 13.4645V5.48926C17.712 5.81054 17.3773 6.10202 16.9954 6.36311Z" fill="#333333"/>
</svg>
