<svg width="18" height="18" viewBox="0 0 18 18" fill="none" xmlns="http://www.w3.org/2000/svg">
<path d="M7.45339 10.5466C5.73532 8.8285 5.34738 7.11043 5.25987 6.42208C5.23541 6.23176 5.30091 6.04088 5.43707 5.90567L6.82742 4.51595C7.03194 4.31155 7.06824 3.99301 6.91494 3.74784L4.70125 0.310464C4.53165 0.0389898 4.18342 -0.0589881 3.89714 0.0842229L0.343385 1.75791C0.111886 1.8719 -0.0242788 2.11787 0.00200533 2.37457C0.188212 4.14353 0.959419 8.49208 5.23287 12.7658C9.50632 17.0396 13.8542 17.8105 15.6241 17.9967C15.8808 18.023 16.1268 17.8868 16.2408 17.6553L17.9145 14.1016C18.0572 13.8159 17.9598 13.4686 17.6895 13.2987L14.2521 11.0856C14.0071 10.9322 13.6886 10.9682 13.484 11.1725L12.0943 12.5629C11.9591 12.699 11.7682 12.7645 11.5779 12.7401C10.8895 12.6526 9.17145 12.2646 7.45339 10.5466Z" fill="#333333"/>
<path d="M14.2759 9.62076C13.9331 9.62076 13.6553 9.34287 13.6553 9.00007C13.6523 6.43029 11.5699 4.3478 9.00008 4.3449C8.65729 4.3449 8.37939 4.067 8.37939 3.72421C8.37939 3.38141 8.65729 3.10352 9.00008 3.10352C12.2552 3.10711 14.893 5.74498 14.8966 9.00007C14.8966 9.34287 14.6187 9.62076 14.2759 9.62076Z" fill="#333333"/>
<path d="M17.3794 9.62069C17.0366 9.62069 16.7587 9.3428 16.7587 9C16.7539 4.71702 13.2831 1.24617 9.00008 1.24138C8.65729 1.24138 8.37939 0.963487 8.37939 0.62069C8.37939 0.277892 8.65729 0 9.00008 0C13.9684 0.0054732 17.9946 4.03171 18.0001 9C18.0001 9.16462 17.9347 9.32249 17.8183 9.43889C17.7019 9.5553 17.544 9.62069 17.3794 9.62069Z" fill="#333333"/>
</svg>
