<svg width="16" height="18" viewBox="0 0 16 18" fill="none" xmlns="http://www.w3.org/2000/svg">
<path d="M15.9402 4.2067C15.9303 4.01707 15.8192 3.84737 15.6494 3.76247L8.23582 0.0556611C8.08736 -0.0185537 7.91263 -0.0185537 7.76417 0.0556611L0.350591 3.76247C0.180751 3.84737 0.0696572 4.01707 0.0598135 4.2067C0.0541885 4.31463 -0.0677335 6.88448 0.807693 9.86809C1.32568 11.6334 2.08759 13.1753 3.07225 14.4508C4.31309 16.0583 5.90792 17.2407 7.81244 17.9655C7.87287 17.9885 7.9364 18 8 18C8.06359 18 8.12712 17.9885 8.18755 17.9655C10.0921 17.2408 11.6869 16.0583 12.9277 14.4508C13.9124 13.1753 14.6743 11.6334 15.1923 9.86809C16.0677 6.88448 15.9458 4.31463 15.9402 4.2067ZM14.1717 9.60034C13.0981 13.2335 11.0222 15.6905 8 16.9064C4.97775 15.6905 2.90188 13.2335 1.82831 9.60034C1.16499 7.35547 1.10395 5.31191 1.10705 4.56343L8 1.11692L14.8929 4.56336C14.896 5.31222 14.8349 7.35565 14.1717 9.60034Z" fill="#333333"/>
<path d="M3 5.5L8 3L13.5 6L11 13L8 15L5 13L3.5 9.5L3 5.5Z" fill="#333333"/>
<path d="M13.5169 5.0546L8.23569 2.41405C8.08723 2.33983 7.9125 2.33987 7.76403 2.41405L2.48293 5.0546C2.29365 5.1492 2.17925 5.34784 2.19244 5.55905C2.24974 6.47881 2.41294 7.88949 2.86508 9.38655C3.76902 12.3797 5.41799 14.486 7.76614 15.647C7.8398 15.6835 7.91985 15.7017 7.99986 15.7017C8.07988 15.7017 8.15996 15.6835 8.23358 15.647C10.5817 14.486 12.2307 12.3797 13.1346 9.38655C13.5867 7.88963 13.75 6.47892 13.8073 5.55909C13.8205 5.34787 13.7061 5.1492 13.5169 5.0546ZM12.1251 9.08161C11.3398 11.6816 9.95265 13.5304 7.9999 14.581C6.04714 13.5304 4.65995 11.6816 3.87473 9.08161C3.50496 7.85729 3.34159 6.69126 3.27043 5.84002L7.9999 3.47527L12.7294 5.84002C12.6582 6.69133 12.4948 7.8574 12.1251 9.08161Z" fill="#333333"/>
</svg>
