<?xml version="1.0" standalone="no"?>
<!DOCTYPE svg PUBLIC "-//W3C//DTD SVG 1.1//EN" "http://www.w3.org/Graphics/SVG/1.1/DTD/svg11.dtd" >
<svg xmlns="http://www.w3.org/2000/svg" xmlns:xlink="http://www.w3.org/1999/xlink" version="1.1">
<metadata></metadata>
<defs>
<font id="core_mellow35_light" horiz-adv-x="1105" >
<font-face units-per-em="2048" ascent="1571" descent="-477" />
<missing-glyph horiz-adv-x="491" />
<glyph horiz-adv-x="0" />
<glyph horiz-adv-x="682" />
<glyph unicode=" "  horiz-adv-x="491" />
<glyph unicode="&#x09;" horiz-adv-x="491" />
<glyph unicode="&#xa0;" horiz-adv-x="491" />
<glyph unicode="!" horiz-adv-x="499" d="M174 55v49q-6 49 35 69.5t82 0t35 -69.5v-49q6 -49 -35 -69.5t-82 0t-35 69.5zM176 1354v43q0 61 74 61t74 -61v-43l-19 -959q0 -53 -55 -53t-55 53z" />
<glyph unicode="&#x22;" horiz-adv-x="806" d="M168 946v459q0 53 70 53q69 0 69 -53v-459q0 -53 -69 -53q-70 0 -70 53zM500 946v459q0 53 69 53q70 0 70 -53v-459q0 -53 -70 -53q-69 0 -69 53z" />
<glyph unicode="#" horiz-adv-x="1249" d="M82 442q0 62 47 62h190v436h-190q-47 0 -47 61q0 62 47 62h190v342q0 53 70 53t70 -53v-342h332v342q0 53 69 53q70 0 70 -53v-342h190q47 0 47 -62q0 -61 -47 -61h-190v-436h190q47 0 47 -62q0 -61 -47 -61h-190v-352q0 -54 -70 -54q-69 0 -69 54v352h-332v-352 q0 -54 -70 -54t-70 54v352h-190q-47 0 -47 61zM459 504h332v436h-332v-436z" />
<glyph unicode="$" horiz-adv-x="1136" d="M143 371v22q0 53 70 53t70 -53v-10q0 -122 92 -205q92 -80 219 -80q131 0 211 67.5t80 186.5q0 120 -79.5 197.5t-260.5 126.5q-402 111 -402 418q0 147 97 248t256 120v148q0 53 65 53q66 0 66 -53v-148q179 -18 272 -131q96 -116 96 -252v-18q0 -53 -69 -53 q-70 0 -70 53v12q0 117 -83.5 193.5t-213.5 76.5q-121 0 -198.5 -66t-77.5 -179q0 -203 301 -291q236 -69 338 -170t102 -281q0 -156 -98 -257.5t-269 -118.5v-152q0 -53 -65 -53q-66 0 -66 53v152q-176 18 -280 131q-103 115 -103 260z" />
<glyph unicode="%" horiz-adv-x="1452" d="M123 1016v168q0 130 68 206t188 76t188 -76t68 -206v-168q0 -130 -68 -206.5t-188 -76.5t-188 76.5t-68 206.5zM250 1026q0 -172 129 -172t129 172v148q0 172 -129 172t-129 -172v-148zM326 68l690 1355q26 51 82 27q55 -24 28 -76l-690 -1356q-26 -50 -82 -26 q-55 24 -28 76zM817 258v168q0 130 68 206.5t188 76.5t188 -76.5t68 -206.5v-168q0 -130 -68 -206.5t-188 -76.5t-188 76.5t-68 206.5zM944 268q0 -172 129 -172t129 172v148q0 172 -129 172t-129 -172v-148z" />
<glyph unicode="&#x26;" horiz-adv-x="1222" d="M143 391q0 262 217 361q-174 107 -174 329q0 173 102.5 279t282.5 106q185 0 285 -112q105 -111 105 -250v-29q0 -53 -70 -53t-70 53v15q-4 120 -72 186.5t-178 66.5q-114 0 -179.5 -68t-65.5 -194q0 -123 73 -197.5t187 -74.5h518q47 0 47 -61q0 -62 -47 -62h-113v-299 q0 -175 -108 -295q-108 -117 -312 -117q-207 0 -319 121q-109 121 -109 295zM283 391q0 -134 77.5 -213.5t210.5 -79.5q132 0 206.5 78.5t74.5 233.5v276h-299q-121 0 -195.5 -82.5t-74.5 -212.5z" />
<glyph unicode="'" horiz-adv-x="475" d="M168 946v459q0 53 70 53q69 0 69 -53v-459q0 -53 -69 -53q-70 0 -70 53z" />
<glyph unicode="(" horiz-adv-x="628" d="M154 618q0 405 109.5 649t299.5 292q19 5 32 -10.5t13 -45.5q0 -36 -41 -57q-278 -143 -278 -828q0 -684 278 -827q41 -21 41 -57q0 -30 -13 -45.5t-32 -10.5q-190 48 -299.5 291.5t-109.5 648.5z" />
<glyph unicode=")" horiz-adv-x="628" d="M20 -266q0 36 41 57q279 144 279 827q0 684 -279 828q-41 21 -41 57q0 30 13.5 45.5t32.5 10.5q190 -48 299.5 -292t109.5 -649t-109.5 -648.5t-299.5 -291.5q-19 -5 -32.5 10.5t-13.5 45.5z" />
<glyph unicode="*" horiz-adv-x="1048" d="M119 786q18 62 69 48l52 -17l249 -92l-10 276v54q0 53 66 53q65 0 65 -53v-54l-10 -276l250 92l51 17q52 15 70 -48q21 -62 -31 -77l-49 -17l-258 -74l172 -225l31 -45q27 -44 -23 -80q-50 -39 -84 4l-31 43l-153 234l-154 -234l-31 -43q-34 -43 -84 -4q-50 35 -22 80 l31 45l172 225l-258 74l-49 17q-52 15 -31 77z" />
<glyph unicode="+" horiz-adv-x="1130" d="M123 682q0 61 47 61h326v353q0 53 69 53q70 0 70 -53v-353h326q47 0 47 -61t-47 -61h-326v-355q0 -53 -70 -53q-69 0 -69 53v355h-326q-47 0 -47 61z" />
<glyph unicode="," horiz-adv-x="552" d="M143 -188q90 110 90 276v16q-6 49 35 69.5t82 0t35 -69.5v-20q0 -91 -39.5 -184t-107.5 -162q-33 -36 -78 -2q-50 38 -17 76z" />
<glyph unicode="-" horiz-adv-x="843" d="M123 682q0 63 49 63h500q49 0 49 -63q0 -64 -49 -64h-500q-49 0 -49 64z" />
<glyph unicode="." horiz-adv-x="552" d="M201 55v49q-6 49 34.5 69.5t81.5 0t35 -69.5v-49q6 -49 -34.5 -69.5t-81.5 0t-35 69.5z" />
<glyph unicode="/" horiz-adv-x="890" d="M66 -170l673 1696q20 47 80 26q61 -24 43 -73l-674 -1696q-20 -48 -79 -27q-61 24 -43 74z" />
<glyph unicode="0" d="M137 449v544q0 214 115 344q117 129 301 129q185 0 299 -129q117 -129 117 -344v-544q0 -216 -117 -345q-114 -129 -299 -129q-184 0 -301 129q-115 130 -115 345zM276 446q0 -164 73 -256t204 -92q130 0 203 92t73 256v549q0 164 -73 256t-203 92q-131 0 -204 -92 t-73 -256v-549z" />
<glyph unicode="1" d="M190 1319q-9 68 39 74l291 41q63 8 123 8q70 0 70 -53v-1352q0 -53 -70 -53t-70 53v1272l-323 -39q-51 -9 -60 49z" />
<glyph unicode="2" d="M176 1075v29q0 138 103 250t286 112q196 0 301 -107.5t105 -283.5v-67q0 -170 -78 -275.5t-258 -177.5q-183 -72 -244 -145q-55 -70 -55 -201v-86h588q47 0 47 -62q0 -61 -47 -61h-680q-47 0 -47 61v154q0 171 75 268q77 103 281 179q161 60 221 133q57 72 57 209v67 q0 127 -70.5 199.5t-195.5 72.5q-108 0 -176 -65.5t-74 -181.5v-21q0 -53 -69 -53q-70 0 -70 53z" />
<glyph unicode="3" d="M186 1075v29q0 139 105 250q106 112 289 112t288 -108q107 -107 107 -277q0 -216 -180 -329q217 -99 217 -351q0 -194 -117 -310t-328 -116q-122 0 -225.5 46t-151.5 129q-34 51 17 90q63 45 90 -2q84 -140 270 -140q138 0 221.5 81t83.5 222q0 128 -74 206.5t-196 78.5 h-139q-47 0 -47 62q0 61 47 61h106q114 0 190.5 75.5t76.5 196.5q0 125 -69 193.5t-187 68.5q-112 0 -182.5 -69.5t-71.5 -190.5v-8q0 -53 -70 -53t-70 53z" />
<glyph unicode="4" d="M131 311v185q0 177 119 381q186 316 422 530q41 35 127 35h32q48 0 48 -62v-1007h143q47 0 47 -62q0 -61 -47 -61h-143v-213q0 -53 -70 -53t-70 53v213h-561q-47 0 -47 61zM270 373h469v913q-197 -170 -354 -448q-68 -124 -90 -185q-25 -67 -25 -157v-123z" />
<glyph unicode="5" d="M158 322v12q0 53 69 53q67 0 70 -53v-8q0 -104 75 -166t197 -62q125 0 197 77t72 216v101q0 140 -81.5 216t-230.5 76q-107 0 -202 -32q-27 -9 -56 -9q-65 0 -65 62v575q0 62 61 62h617q47 0 47 -62q0 -61 -47 -61h-541v-440q106 28 213 28q218 0 319 -119 q105 -120 105 -296v-101q0 -177 -105 -297q-101 -119 -303 -119q-196 0 -305 103q-106 103 -106 244z" />
<glyph unicode="6" d="M156 408v614q0 203 105 323.5t302 120.5q189 0 293 -110q105 -111 105 -252v-29q0 -53 -70 -53t-70 53v12q-1 121 -71 188.5t-187 67.5q-124 0 -196 -85.5t-72 -233.5v-193q136 56 280 56q199 0 305.5 -109t106.5 -323v-47q0 -200 -115 -318q-115 -115 -301 -115 t-301 115q-114 117 -114 318zM295 406q0 -141 76.5 -224.5t199.5 -83.5t200 83.5t77 224.5v51q0 164 -71.5 235.5t-221.5 71.5q-141 0 -260 -55v-303z" />
<glyph unicode="7" d="M121 1380q0 62 47 62h706q48 0 48 -62v-194q0 -153 -43 -266q-42 -118 -179 -304q-76 -103 -114 -196q-33 -82 -33 -199v-184q0 -53 -70 -53q-69 0 -69 53v188q0 144 39 242q40 104 157 260q96 128 134 230.5t38 230.5v131h-614q-47 0 -47 61z" />
<glyph unicode="8" d="M123 391q0 259 217 367q-182 111 -182 323q0 171 106 277q108 108 289 108t289 -108q106 -106 106 -277q0 -212 -182 -323q217 -108 217 -367q0 -178 -113 -297q-110 -119 -317 -119t-320 119q-110 119 -110 297zM262 391q0 -134 79 -213.5t212 -79.5t212 79.5t79 213.5 q0 129 -81 212t-210 83t-210 -83t-81 -212zM297 1081q0 -122 72.5 -197t183.5 -75t183.5 75t72.5 197q0 119 -69.5 190.5t-186.5 71.5t-186.5 -71.5t-69.5 -190.5z" />
<glyph unicode="9" d="M119 987v47q0 202 114 316q113 116 302 116q188 0 301 -116q114 -114 114 -316v-614q0 -203 -105 -324t-306 -121q-125 0 -226 46t-151 129q-34 52 16 90q63 45 90 -2q84 -140 271 -140q127 0 199.5 86t72.5 234v192q-134 -55 -281 -55q-199 0 -305 109t-106 323z M258 985q0 -164 71.5 -235.5t221.5 -71.5q133 0 260 53v305q0 141 -76.5 224t-199.5 83t-200 -83t-77 -224v-51z" />
<glyph unicode=":" horiz-adv-x="552" d="M201 55v49q-6 49 34.5 69.5t81.5 0t35 -69.5v-49q6 -49 -34.5 -69.5t-81.5 0t-35 69.5zM201 948v49q-6 49 34.5 69.5t81.5 0t35 -69.5v-49q6 -49 -34.5 -69.5t-81.5 0t-35 69.5z" />
<glyph unicode=";" horiz-adv-x="552" d="M139 -188q90 110 90 276v16q-6 49 35 69.5t82 0t35 -69.5v-20q0 -90 -40 -183.5t-108 -162.5q-31 -36 -77 -2q-45 40 -17 76zM229 948v49q-6 49 35 69.5t82 0t35 -69.5v-49q6 -49 -35 -69.5t-82 0t-35 69.5z" />
<glyph unicode="&#x3c;" horiz-adv-x="1130" d="M274 641q-37 37 0 74l488 487q37 39 84 -8t8 -84l-440 -432l440 -432q39 -37 -8 -84t-84 -8z" />
<glyph unicode="=" horiz-adv-x="1130" d="M123 481q0 62 47 62h791q47 0 47 -62q0 -61 -47 -61h-791q-47 0 -47 61zM123 885q0 61 47 61h791q47 0 47 -61q0 -62 -47 -62h-791q-47 0 -47 62z" />
<glyph unicode="&#x3e;" horiz-adv-x="1130" d="M315 246l441 432l-441 432q-39 36 9 84q47 47 84 8l487 -487q37 -37 0 -74l-487 -487q-37 -39 -84 8q-48 48 -9 84z" />
<glyph unicode="?" horiz-adv-x="983" d="M113 1133v8q0 133 106 223q107 94 268 94q176 0 279 -106q104 -104 104 -271q0 -162 -122 -280q-12 -12 -47.5 -44.5t-52.5 -49t-45 -49t-41.5 -57.5t-24.5 -60.5t-11 -71.5v-74q0 -53 -69 -53q-70 0 -70 53v78q0 64 19.5 119.5t50.5 96t68.5 77.5t75 71.5t68.5 69.5 t50.5 79.5t19.5 94.5q0 120 -69 191t-183 71q-105 0 -174 -63q-69 -60 -69 -139v-8q-3 -54 -66 -54q-65 0 -65 54zM385 55v49q-6 49 35 69.5t82 0t35 -69.5v-49q6 -49 -35 -69.5t-82 0t-35 69.5z" />
<glyph unicode="@" horiz-adv-x="1482" d="M143 303v586q0 250 170 414q172 163 428 163q257 0 426 -163q172 -163 172 -414v-586q0 -251 -172 -414q-169 -163 -426 -163q-256 0 -428 163q-170 164 -170 414zM242 317q0 -227 143 -364q145 -139 356 -139q210 0 355 139t145 364v557q0 226 -145 365t-355 139 t-354 -141q-145 -142 -145 -371v-549zM438 395q0 192 224 244l215 49q57 12 57 45v43q0 84 -55 137.5t-138 53.5q-81 0 -136.5 -54t-55.5 -129v-10q0 -43 -55 -43q-56 0 -56 43v14q0 117 86 197q89 80 217 80q130 0 215 -82q88 -79 88 -205v-348q0 -135 -85.5 -219 t-217.5 -84q-128 0 -217 80q-86 80 -86 188zM549 395q0 -68 55 -119t137 -51t137.5 55t55.5 154v184q-14 -14 -64 -26l-184 -43q-137 -34 -137 -154z" />
<glyph unicode="A" horiz-adv-x="1261" d="M174 37v956q0 214 127 344q129 129 330 129t327 -129q129 -129 129 -344v-956q0 -53 -69 -53q-70 0 -70 53v520h-635v-520q0 -53 -69 -53q-70 0 -70 53zM313 680h635v315q0 160 -87.5 254t-229.5 94q-143 0 -230.5 -94t-87.5 -254v-315z" />
<glyph unicode="B" horiz-adv-x="1175" d="M174 72v1298q0 29 21.5 50.5t50.5 21.5h426q167 0 262 -109q98 -107 98 -270q0 -209 -170 -311q201 -103 201 -349q0 -169 -102 -286t-289 -117h-426q-29 0 -50.5 21.5t-21.5 50.5zM313 123h353q131 0 200.5 79t69.5 201q0 115 -64 197q-63 84 -176 84h-383v-561z M313 807h353q112 0 175.5 72t63.5 184t-63.5 184t-175.5 72h-353v-512z" />
<glyph unicode="C" horiz-adv-x="1210" d="M154 449v544q0 214 127 344q129 129 329 129q204 0 330 -120q127 -121 127 -328v-8q0 -54 -70 -54q-69 0 -69 54v8q-1 154 -86 239.5t-232 85.5q-142 0 -229.5 -94t-87.5 -254v-549q0 -160 87.5 -254t229.5 -94q147 0 232 86t86 240v8q0 53 69 53q70 0 70 -53v-8 q0 -207 -127 -328t-330 -121q-200 0 -329 129q-127 130 -127 345z" />
<glyph unicode="D" horiz-adv-x="1200" d="M174 72v1298q0 29 21.5 50.5t50.5 21.5h344q202 0 328 -129q129 -129 129 -344v-496q0 -215 -129 -344q-126 -129 -328 -129h-344q-29 0 -50.5 21.5t-21.5 50.5zM313 123h279q141 0 228 94t87 254v500q0 160 -87.5 254t-229.5 94h-277v-1196z" />
<glyph unicode="E" horiz-adv-x="1036" d="M174 61v1319q0 62 47 62h656q47 0 47 -62q0 -61 -47 -61h-564v-512h512q47 0 47 -62q0 -61 -47 -61h-512v-561h574q47 0 47 -62q0 -61 -47 -61h-666q-47 0 -47 61z" />
<glyph unicode="F" horiz-adv-x="1005" d="M174 37v1343q0 62 47 62h676q47 0 47 -62q0 -61 -47 -61h-584v-533h516q48 0 48 -61t-48 -61h-516v-627q0 -53 -69 -53q-70 0 -70 53z" />
<glyph unicode="G" horiz-adv-x="1220" d="M154 449v544q0 214 127 344q129 129 329 129q204 0 330 -120q127 -121 127 -328v-8q0 -54 -70 -54q-69 0 -69 54v8q-1 154 -86 239.5t-232 85.5q-142 0 -229.5 -94t-87.5 -254v-549q0 -160 87.5 -254t229.5 -94q143 0 230.5 94t87.5 254v162h-250q-47 0 -47 62 q0 61 47 61h356q33 0 33 -37v-245q0 -216 -129 -345q-126 -129 -328 -129q-200 0 -329 129q-127 130 -127 345z" />
<glyph unicode="H" horiz-adv-x="1212" d="M174 37v1368q0 53 70 53q69 0 69 -53v-612h586v612q0 53 70 53q69 0 69 -53v-1368q0 -53 -69 -53q-70 0 -70 53v633h-586v-633q0 -53 -69 -53q-70 0 -70 53z" />
<glyph unicode="I" horiz-adv-x="528" d="M195 29v1376q0 53 69 53q70 0 70 -53v-1376q0 -54 -70 -54q-69 0 -69 54z" />
<glyph unicode="J" horiz-adv-x="1093" d="M92 367v8q0 53 70 53q69 0 69 -53v-8q0 -99 68 -185q72 -84 205 -84q276 0 276 348v959q0 53 70 53t70 -53v-956q0 -223 -110 -348.5t-306 -125.5q-193 0 -303 119q-109 121 -109 273z" />
<glyph unicode="K" horiz-adv-x="1169" d="M174 37v1368q0 53 70 53q69 0 69 -53v-752q11 19 47 39l179 107q317 188 317 501v105q0 53 70 53q69 0 69 -53v-100q0 -326 -241 -521q151 -148 217 -295q65 -145 65 -331v-121q0 -53 -69 -53q-70 0 -70 53v88q0 183 -55 311q-57 132 -199 271l-256 -154q-74 -44 -74 -78 v-438q0 -53 -69 -53q-70 0 -70 53z" />
<glyph unicode="L" horiz-adv-x="985" d="M174 61v1344q0 53 70 53q69 0 69 -53v-1282h594q47 0 47 -62q0 -61 -47 -61h-686q-47 0 -47 61z" />
<glyph unicode="M" horiz-adv-x="1830" d="M174 37v983q0 207 113 326q114 120 293 120q108 0 198 -51t137 -139q47 88 137 139t199 51q177 0 291 -120q115 -121 115 -326v-983q0 -53 -70 -53q-69 0 -69 53v985q0 154 -73 237.5t-194 83.5t-193.5 -83.5t-72.5 -237.5v-985q0 -53 -70 -53q-69 0 -69 53v985 q0 154 -72.5 237.5t-193.5 83.5t-194 -83.5t-73 -237.5v-985q0 -53 -69 -53q-70 0 -70 53z" />
<glyph unicode="N" horiz-adv-x="1261" d="M174 37v956q0 214 127 344q129 129 330 129t327 -129q129 -129 129 -344v-956q0 -53 -69 -53q-70 0 -70 53v958q0 160 -87.5 254t-229.5 94q-143 0 -230.5 -94t-87.5 -254v-958q0 -53 -69 -53q-70 0 -70 53z" />
<glyph unicode="O" horiz-adv-x="1220" d="M154 449v544q0 214 127 344q129 129 329 129q202 0 328 -129q129 -129 129 -344v-544q0 -216 -129 -345q-126 -129 -328 -129q-200 0 -329 129q-127 130 -127 345zM293 446q0 -160 87.5 -254t229.5 -94q143 0 230.5 94t87.5 254v549q0 160 -87.5 254t-230.5 94 q-142 0 -229.5 -94t-87.5 -254v-549z" />
<glyph unicode="P" horiz-adv-x="1103" d="M174 37v1352q0 53 70 53h338q199 0 309 -112t110 -320t-110 -320t-309 -112h-269v-541q0 -53 -69 -53q-70 0 -70 53zM313 700h267q282 0 282 310q0 309 -282 309h-267v-619z" />
<glyph unicode="Q" horiz-adv-x="1220" d="M154 449v544q0 214 127 344q129 129 329 129q202 0 328 -129q129 -129 129 -344v-544q0 -140 -57 -247.5t-160 -164.5q106 -42 161.5 -127.5t55.5 -194.5v-26q0 -54 -70 -54q-69 0 -69 54v28q0 92 -72 170t-182 93q-10 -1 -24.5 -2t-24 -2t-15.5 -1q-200 0 -329 129 q-127 130 -127 345zM293 446q0 -160 87.5 -254t229.5 -94q143 0 230.5 94t87.5 254v549q0 160 -87.5 254t-230.5 94q-142 0 -229.5 -94t-87.5 -254v-549z" />
<glyph unicode="R" horiz-adv-x="1169" d="M174 37v1352q0 53 70 53h368q192 0 298 -106.5t106 -305.5q0 -261 -207 -356q207 -106 207 -402v-235q0 -53 -70 -53q-69 0 -69 53v237q0 159 -78 254t-207 95h-279v-586q0 -53 -69 -53q-70 0 -70 53zM313 745h297q267 0 267 287t-267 287h-297v-574z" />
<glyph unicode="S" horiz-adv-x="1136" d="M143 371v22q0 53 70 53t70 -53v-10q0 -122 92 -205q92 -80 219 -80q131 0 211 67.5t80 186.5q0 120 -79.5 197.5t-260.5 126.5q-402 111 -402 418q0 161 117 266q115 106 299 106q209 0 322 -116q114 -117 114 -271v-18q0 -53 -69 -53q-70 0 -70 53v12q0 117 -83.5 193.5 t-213.5 76.5q-121 0 -198.5 -66t-77.5 -179q0 -203 301 -291q236 -69 338 -170t102 -281q0 -165 -115 -274q-113 -107 -315 -107q-205 0 -328 117t-123 279z" />
<glyph unicode="T" horiz-adv-x="1056" d="M57 1380q0 62 47 62h848q47 0 47 -62q0 -61 -47 -61h-354v-1282q0 -53 -70 -53q-69 0 -69 53v1282h-355q-47 0 -47 61z" />
<glyph unicode="U" horiz-adv-x="1261" d="M174 449v956q0 53 70 53q69 0 69 -53v-959q0 -160 87.5 -254t230.5 -94q142 0 229.5 94t87.5 254v959q0 53 70 53q69 0 69 -53v-956q0 -216 -129 -345q-126 -129 -327 -129t-330 129q-127 130 -127 345z" />
<glyph unicode="V" horiz-adv-x="1241" d="M164 889v516q0 53 69 53q70 0 70 -53v-492q0 -199 86 -397q85 -194 232 -399q145 202 231 399q86 198 86 397v492q0 53 70 53q69 0 69 -53v-516q0 -187 -78 -387q-83 -203 -229 -414q-75 -104 -149.5 -104t-149.5 104q-146 211 -229 414q-78 200 -78 387z" />
<glyph unicode="W" horiz-adv-x="1830" d="M174 422v983q0 53 70 53q69 0 69 -53v-985q0 -154 73 -238t194 -84q120 0 193 84t73 238v985q0 53 69 53q70 0 70 -53v-985q0 -154 73 -238t193 -84q121 0 194 84t73 238v985q0 53 69 53q70 0 70 -53v-983q0 -207 -115 -328q-113 -119 -291 -119q-108 0 -198.5 51.5 t-137.5 139.5q-47 -88 -137 -139.5t-198 -51.5q-180 0 -293 119t-113 328z" />
<glyph unicode="X" horiz-adv-x="1159" d="M133 37v74q0 177 68 307q72 132 274 313q-210 192 -274 311q-68 127 -68 314v49q0 53 70 53q69 0 69 -53v-53q0 -138 58 -248q58 -107 250 -281q186 168 247 281q60 114 60 248v53q0 53 69 53q70 0 70 -53v-49q0 -187 -68 -314q-64 -119 -274 -311q205 -184 272 -315 q70 -128 70 -305v-74q0 -53 -70 -53q-69 0 -69 53v78q0 128 -60 239t-247 283q-193 -178 -250 -283q-58 -107 -58 -239v-78q0 -53 -69 -53q-70 0 -70 53z" />
<glyph unicode="Y" horiz-adv-x="1220" d="M143 989v416q0 53 70 53t70 -53v-418q0 -160 89 -254t238 -94t238.5 94t89.5 254v418q0 53 70 53q69 0 69 -53v-416q0 -195 -107.5 -320.5t-289.5 -148.5v-483q0 -53 -70 -53q-69 0 -69 53v483q-182 23 -290 148.5t-108 320.5z" />
<glyph unicode="Z" horiz-adv-x="1083" d="M133 61v41q0 184 70 324q71 144 305 350q291 257 291 500v43h-613q-47 0 -47 61q0 62 47 62h705q47 0 47 -62v-65q0 -179 -72 -320q-71 -140 -303 -346q-291 -257 -291 -504v-22h662q47 0 47 -62q0 -61 -47 -61h-754q-47 0 -47 61z" />
<glyph unicode="[" horiz-adv-x="647" d="M205 -270v1777q0 54 69 54h295q47 0 47 -62q0 -61 -47 -61h-225v-1639h225q47 0 47 -61q0 -62 -47 -62h-295q-69 0 -69 54z" />
<glyph unicode="\" horiz-adv-x="890" d="M66 1479q-18 49 43 73q59 21 79 -26l674 -1696q18 -50 -43 -74q-59 -21 -80 27z" />
<glyph unicode="]" horiz-adv-x="647" d="M31 -262q0 61 47 61h225v1639h-225q-47 0 -47 61q0 62 47 62h295q69 0 69 -54v-1777q0 -54 -69 -54h-295q-47 0 -47 62z" />
<glyph unicode="^" horiz-adv-x="946" d="M98 936l353 506q17 25 47 25t47 -25l352 -506q23 -39 -29 -76q-51 -34 -82 8l-288 426l-289 -426q-31 -42 -82 -8q-52 37 -29 76z" />
<glyph unicode="_" horiz-adv-x="1024" d="M0 -279q0 62 47 62h930q47 0 47 -62q0 -61 -47 -61h-930q-47 0 -47 61z" />
<glyph unicode="`" horiz-adv-x="655" d="M225 1430q-36 39 2 77q39 39 74 2l203 -209q36 -39 -2 -77q-40 -39 -74 -2z" />
<glyph unicode="a" horiz-adv-x="958" d="M123 291q0 228 262 287l252 57q68 15 68 53v51q0 97 -64.5 160.5t-161.5 63.5q-96 0 -160.5 -63t-64.5 -152v-11q0 -53 -66 -53q-65 0 -65 53v15q0 136 102 231q101 94 254 94t254 -94q103 -95 103 -242v-409q0 -160 -103 -260q-105 -97 -254 -97q-150 0 -254 93 q-102 95 -102 223zM254 291q0 -81 64.5 -141t160.5 -60q97 0 161.5 65.5t64.5 182.5v215q-15 -21 -74 -33l-215 -49q-162 -40 -162 -180z" />
<glyph unicode="b" horiz-adv-x="987" d="M143 328v1130q0 53 66 53q65 0 65 -53v-493q81 112 248 112q141 0 242 -94q100 -93 100 -258v-397q0 -164 -104 -258q-106 -95 -256 -95t-256 95q-105 94 -105 258zM274 338q0 -115 64 -181.5t166 -66.5t165.5 66.5t63.5 181.5v377q0 115 -63.5 181.5t-165.5 66.5 t-166 -66.5t-64 -181.5v-377z" />
<glyph unicode="c" horiz-adv-x="966" d="M123 328v397q0 164 104 258t256 94t256 -94q105 -95 105 -231v-15q0 -53 -66 -53q-65 0 -65 53v11q0 86 -68 151q-64 64 -162 64q-102 0 -165.5 -66.5t-63.5 -181.5v-377q0 -115 63.5 -181.5t165.5 -66.5q98 0 162 64q68 65 68 151v10q0 54 65 54q66 0 66 -54v-14 q0 -137 -105 -231q-106 -95 -256 -95t-256 95q-104 94 -104 258z" />
<glyph unicode="d" horiz-adv-x="987" d="M123 328v397q0 165 100 258q101 94 242 94q167 0 248 -112v493q0 53 65 53q66 0 66 -53v-1130q0 -164 -105 -258q-106 -95 -256 -95t-256 95q-104 94 -104 258zM254 338q0 -115 63.5 -181.5t165.5 -66.5t166 66.5t64 181.5v377q0 115 -64 181.5t-166 66.5t-165.5 -66.5 t-63.5 -181.5v-377z" />
<glyph unicode="e" horiz-adv-x="958" d="M123 311v410q0 165 100 258q101 98 256 98q153 0 254 -94q103 -92 103 -221q0 -228 -263 -287l-251 -57q-68 -15 -68 -53v-52q0 -97 64 -160t161 -63q96 0 161 63t65 152v10q0 54 65 54q66 0 66 -54v-14q0 -136 -103 -231t-254 -95q-153 0 -256 95q-100 93 -100 241z M254 500q14 20 74 32l215 50q162 40 162 180q0 81 -65 141t-161 60q-97 0 -161 -65.5t-64 -182.5v-215z" />
<glyph unicode="f" horiz-adv-x="774" d="M51 995q0 58 47 58h162v170q0 128 82 208t215 80q126 0 201 -57q26 -17 26 -47q0 -21 -18.5 -41t-40.5 -20q-21 0 -41 14q-52 37 -117 37q-84 0 -130 -52t-46 -131v-161h275q47 0 47 -58q0 -57 -47 -57h-275v-901q0 -53 -65 -53q-66 0 -66 53v901h-162q-47 0 -47 57z" />
<glyph unicode="g" horiz-adv-x="987" d="M123 328v397q0 164 104 258t256 94t256 -94q105 -95 105 -258v-813q0 -171 -106.5 -271t-276.5 -100q-152 0 -262 84q-28 21 -28 46q0 19 17 40q23 28 47 28q19 0 39 -18q83 -65 187 -65q117 0 184.5 70t67.5 194v168q-82 -113 -248 -113q-139 0 -242 95 q-100 93 -100 258zM254 338q0 -115 63.5 -181.5t165.5 -66.5t166 66.5t64 181.5v377q0 115 -64 181.5t-166 66.5t-165.5 -66.5t-63.5 -181.5v-377z" />
<glyph unicode="h" horiz-adv-x="1007" d="M143 37v1421q0 53 66 53q65 0 65 -53v-493q81 112 248 112q141 0 242 -94q100 -93 100 -258v-688q0 -53 -65 -53q-66 0 -66 53v678q0 115 -63.5 181.5t-165.5 66.5t-166 -66.5t-64 -181.5v-678q0 -53 -65 -53q-66 0 -66 53z" />
<glyph unicode="i" horiz-adv-x="438" d="M150 1329v82q-1 6 -1 11q0 34 33 48q19 9 38 8q20 0 38 -8q32 -15 32 -48q0 -5 -1 -11v-82q1 -6 1 -11q0 -34 -32 -48q-19 -9 -38 -8.5t-38 8.5q-33 15 -33 48q0 5 1 11zM154 37v979q0 53 65 53q66 0 66 -53v-979q0 -53 -66 -53q-65 0 -65 53z" />
<glyph unicode="j" horiz-adv-x="438" d="M-47 -414q-6 18 -6 32q0 35 37 50q91 36 141.5 117t50.5 186v1045q0 53 66 53q65 0 65 -53v-1053q0 -148 -70.5 -257.5t-199.5 -156.5q-18 -7 -33 -7q-36 0 -51 44zM172 1329v82q-1 6 -1 11q0 32 33 48q19 8 38 8t38 -8q32 -16 32 -48q0 -5 -1 -11v-82q1 -6 1 -11 q0 -32 -32 -48q-19 -8 -38 -8t-38 8q-33 16 -33 48q0 5 1 11z" />
<glyph unicode="k" horiz-adv-x="933" d="M143 37v1421q0 53 66 53q65 0 65 -53v-930q11 16 48 39l137 82q221 132 221 326v41q0 53 65 53q66 0 66 -53v-45q0 -121 -50 -209.5t-171 -171.5q140 -125 194 -230q58 -107 58 -276v-47q0 -53 -66 -53q-65 0 -65 53v35q0 143 -49 237q-51 97 -183 211l-131 -78 q-71 -41 -74 -71v-334q0 -53 -65 -53q-66 0 -66 53z" />
<glyph unicode="l" horiz-adv-x="577" d="M154 403v1055q0 53 65 53q66 0 66 -53v-1046q0 -105 50.5 -186t141.5 -117q37 -15 37 -50q0 -14 -6 -32q-15 -44 -51 -44q-15 0 -33 7q-129 47 -199.5 156t-70.5 257z" />
<glyph unicode="m" horiz-adv-x="1474" d="M143 37v688q0 165 90 258.5t240 93.5q185 0 264 -137q79 137 264 137q150 0 240 -93.5t90 -258.5v-688q0 -53 -65 -53q-66 0 -66 53v678q0 121 -51 184.5t-148 63.5q-94 0 -146 -61.5t-52 -176.5v-688q0 -53 -66 -53q-65 0 -65 53v688q0 115 -52.5 176.5t-146.5 61.5 q-97 0 -148 -63.5t-51 -184.5v-678q0 -53 -65 -53q-66 0 -66 53z" />
<glyph unicode="n" horiz-adv-x="1007" d="M143 37v688q0 163 105 258q104 94 256 94t256 -94t104 -258v-688q0 -53 -65 -53q-66 0 -66 53v678q0 115 -63.5 181.5t-165.5 66.5t-166 -66.5t-64 -181.5v-678q0 -53 -65 -53q-66 0 -66 53z" />
<glyph unicode="o" horiz-adv-x="966" d="M123 328v397q0 164 104 258t256 94t256 -94q105 -95 105 -258v-397q0 -164 -105 -258q-106 -95 -256 -95t-256 95q-104 94 -104 258zM254 338q0 -115 63.5 -181.5t165.5 -66.5t166 66.5t64 181.5v377q0 115 -64 181.5t-166 66.5t-165.5 -66.5t-63.5 -181.5v-377z" />
<glyph unicode="p" horiz-adv-x="987" d="M143 -397v1122q0 163 105 258q104 94 256 94t256 -94t104 -258v-397q0 -165 -100 -258q-103 -95 -242 -95q-166 0 -248 113v-485q0 -54 -65 -54q-66 0 -66 54zM274 338q0 -115 64 -181.5t166 -66.5t165.5 66.5t63.5 181.5v377q0 115 -63.5 181.5t-165.5 66.5t-166 -66.5 t-64 -181.5v-377z" />
<glyph unicode="q" horiz-adv-x="987" d="M123 328v397q0 164 104 258t256 94t256 -94q105 -95 105 -258v-1122q0 -54 -66 -54q-65 0 -65 54v485q-82 -113 -248 -113q-139 0 -242 95q-100 93 -100 258zM254 338q0 -115 63.5 -181.5t165.5 -66.5t166 66.5t64 181.5v377q0 115 -64 181.5t-166 66.5t-165.5 -66.5 t-63.5 -181.5v-377z" />
<glyph unicode="r" horiz-adv-x="833" d="M143 37v706q0 148 103 240q101 94 250 94q89 0 167.5 -35.5t120.5 -99.5q9 -15 9 -28q0 -27 -35 -50q-18 -11 -34 -11q-26 0 -48 26q-72 84 -180 84q-93 0 -157.5 -63t-64.5 -163v-700q0 -53 -65 -53q-66 0 -66 53z" />
<glyph unicode="s" horiz-adv-x="894" d="M113 270v9q0 53 65 53q66 0 66 -53v-9q0 -73 65.5 -126.5t153.5 -53.5q95 0 152 46.5t57 127.5t-58.5 133t-189.5 84q-311 77 -311 312q0 126 96 204q100 80 235 80q140 0 244 -84q103 -83 103 -207v-14q0 -53 -66 -53t-66 53v6q0 76 -61.5 130.5t-153.5 54.5 q-87 0 -143.5 -47.5t-56.5 -120.5q0 -143 225 -201q172 -43 253 -122.5t81 -207.5q0 -129 -93 -209t-247 -80q-146 0 -250 84q-100 84 -100 211z" />
<glyph unicode="t" horiz-adv-x="841" d="M51 995q0 58 47 58h162v282q0 54 66 54q65 0 65 -54v-282h316q47 0 47 -58q0 -57 -47 -57h-316v-666q0 -79 46 -130.5t130 -51.5q68 0 121 41q18 14 33 14q24 0 45 -32q14 -19 14 -36q0 -25 -28 -48q-79 -54 -185 -54q-136 0 -221.5 80.5t-85.5 208.5v674h-162 q-47 0 -47 57z" />
<glyph unicode="u" horiz-adv-x="1007" d="M143 328v688q0 53 66 53q65 0 65 -53v-678q0 -115 64 -181.5t166 -66.5t165.5 66.5t63.5 181.5v678q0 53 66 53q65 0 65 -53v-688q0 -164 -104 -258q-106 -95 -256 -95t-256 95q-105 94 -105 258z" />
<glyph unicode="v" horiz-adv-x="1007" d="M133 655v361q0 53 66 53q65 0 65 -53v-346q0 -139 55 -252q86 -194 185 -307q97 111 184 307q55 113 55 252v346q0 53 66 53q65 0 65 -53v-361q0 -145 -63 -286q-65 -147 -186 -308q-61 -78 -121 -78t-121 78q-121 161 -186 308q-64 143 -64 286z" />
<glyph unicode="w" horiz-adv-x="1474" d="M143 328v688q0 53 66 53q65 0 65 -53v-678q0 -121 51 -184.5t148 -63.5q94 0 146.5 61.5t52.5 176.5v688q0 53 65 53q66 0 66 -53v-688q0 -115 52 -176.5t146 -61.5q97 0 148 63.5t51 184.5v678q0 53 66 53q65 0 65 -53v-688q0 -165 -90 -259t-240 -94q-185 0 -264 138 q-79 -138 -264 -138q-150 0 -240 94t-90 259z" />
<glyph unicode="x" horiz-adv-x="956" d="M102 37v29q0 135 58 239q55 102 219 232q-147 120 -206.5 223.5t-59.5 234.5v21q0 53 65 53q66 0 66 -53v-17q0 -112 45 -192q48 -82 188 -195q143 116 189 197q47 83 47 190v17q0 53 65 53q66 0 66 -53v-21q0 -131 -59.5 -234.5t-206.5 -223.5q162 -131 217 -232 q59 -109 59 -239v-29q0 -53 -66 -53q-65 0 -65 53v24q0 112 -47 195q-45 80 -199 203q-149 -119 -196 -203q-48 -85 -48 -195v-24q0 -53 -65 -53q-66 0 -66 53z" />
<glyph unicode="y" horiz-adv-x="1007" d="M143 328v688q0 53 66 53q65 0 65 -53v-678q0 -115 64 -181.5t166 -66.5t165.5 66.5t63.5 181.5v678q0 53 66 53q65 0 65 -53v-1104q0 -171 -106.5 -271t-276.5 -100q-152 0 -262 84q-28 21 -28 45q0 20 18 41q23 28 47 28q19 0 39 -18q83 -65 186 -65q117 0 184.5 70 t67.5 194v168q-82 -113 -248 -113q-138 0 -241 95q-101 94 -101 258z" />
<glyph unicode="z" horiz-adv-x="854" d="M102 57v43q0 130 58 228q59 104 239 258q124 107 171.5 182.5t47.5 155.5v14h-464q-48 0 -48 57q0 58 48 58h548q48 0 48 -58v-43q0 -129 -58 -227q-67 -107 -237 -254q-124 -108 -173 -185t-49 -157v-14h502q47 0 47 -58q0 -57 -47 -57h-585q-48 0 -48 57z" />
<glyph unicode="{" horiz-adv-x="729" d="M113 618q0 53 47 68q116 34 116 236v198q0 210 95.5 325.5t271.5 115.5h14q48 0 48 -62q0 -61 -48 -61h-10q-118 -5 -174.5 -84.5t-56.5 -249.5v-131q0 -152 -31.5 -232t-114.5 -123q83 -43 114.5 -123t31.5 -231v-131q0 -170 56.5 -249.5t174.5 -84.5h10q48 0 48 -61 q0 -62 -48 -62h-14q-176 0 -271.5 115.5t-95.5 325.5v198q0 202 -116 236q-47 15 -47 67z" />
<glyph unicode="|" horiz-adv-x="557" d="M217 -381v1927q0 53 62 53q61 0 61 -53v-1927q0 -53 -61 -53q-62 0 -62 53z" />
<glyph unicode="}" horiz-adv-x="729" d="M25 -262q0 61 47 61h10q118 5 174.5 84.5t56.5 249.5v131q0 151 31.5 231t114.5 123q-83 43 -114.5 123t-31.5 232v131q0 170 -56.5 249.5t-174.5 84.5h-10q-47 0 -47 61q0 62 47 62h14q176 0 271.5 -115.5t95.5 -325.5v-198q0 -202 116 -236q47 -15 47 -68 q0 -52 -47 -67q-116 -34 -116 -236v-198q0 -210 -95.5 -325.5t-271.5 -115.5h-14q-47 0 -47 62z" />
<glyph unicode="~" horiz-adv-x="1130" d="M74 588v18q0 133 75.5 214t200.5 81q195 0 283 -205q49 -116 145 -116q64 0 100.5 47.5t36.5 132.5v8q0 33 35 46.5t70 0t35 -46.5v-18q0 -133 -76 -214t-201 -81q-194 0 -282 204q-49 117 -146 117q-64 0 -100.5 -47.5t-36.5 -132.5v-8q0 -33 -34.5 -46.5t-69.5 0 t-35 46.5z" />
<glyph unicode="&#xa2;" horiz-adv-x="966" d="M123 328v397q0 143 81.5 235t213.5 111v154q0 53 65 53q66 0 66 -53v-154q128 -21 211 -110q84 -90 84 -209v-15q0 -53 -66 -53q-65 0 -65 53v11q0 86 -68 151q-64 64 -162 64q-102 0 -165.5 -66.5t-63.5 -181.5v-377q0 -115 63.5 -181.5t165.5 -66.5q98 0 162 64 q68 65 68 151v10q0 54 65 54q66 0 66 -54v-14q0 -121 -84 -211t-211 -108v-154q0 -53 -66 -53q-65 0 -65 53v154q-132 19 -213.5 111t-81.5 235z" />
<glyph unicode="&#xa3;" horiz-adv-x="966" d="M41 61q0 62 47 62h127v526h-127q-47 0 -47 53q0 54 47 54h127v428q0 128 92 205q95 77 230 77q143 0 237 -82q98 -82 98 -206v-17q0 -53 -65 -53q-66 0 -66 53q-5 88 -59.5 139.5t-144.5 51.5q-84 0 -133.5 -46t-49.5 -122v-428h430q47 0 47 -54q0 -53 -47 -53h-430v-526 h504q47 0 47 -62q0 -61 -47 -61h-770q-47 0 -47 61z" />
<glyph unicode="&#xa5;" horiz-adv-x="1220" d="M143 1071v334q0 53 70 53t70 -53v-336q0 -160 89 -254t238 -94t238.5 94t89.5 254v336q0 53 70 53q69 0 69 -53v-334q0 -195 -107.5 -320.5t-289.5 -148.5v-65h248q47 0 47 -54q0 -53 -47 -53h-248v-102h248q47 0 47 -54q0 -53 -47 -53h-248v-184q0 -53 -70 -53 q-69 0 -69 53v184h-254q-47 0 -47 53q0 54 47 54h254v102h-254q-47 0 -47 53q0 54 47 54h254v65q-182 23 -290 148.5t-108 320.5z" />
<glyph unicode="&#xa8;" horiz-adv-x="655" d="M92 1311v82q-6 41 32 58.5t75.5 0t31.5 -58.5v-82q6 -41 -32 -58.5t-75.5 0t-31.5 58.5zM424 1311v82q-6 41 32 58.5t75.5 0t31.5 -58.5v-82q6 -41 -31.5 -58.5t-75.5 0t-32 58.5z" />
<glyph unicode="&#xa9;" horiz-adv-x="1351" d="M51 721q0 339 172 541q174 204 453 204t450 -204q174 -201 174 -541q0 -339 -174 -543q-173 -203 -450 -203t-453 203q-172 205 -172 543zM166 721q0 -307 141 -477t369 -170q227 0 368 170q142 171 142 477t-142 477q-141 170 -368 170q-228 0 -369 -170t-141 -477z M356 616v209q0 153 87.5 245.5t230.5 92.5q144 0 228.5 -79.5t84.5 -206.5v-9q0 -55 -65 -55q-66 0 -66 55v9q0 76 -47.5 120.5t-134.5 44.5q-86 0 -136.5 -57.5t-50.5 -157.5v-213q0 -100 50.5 -157.5t136.5 -57.5t134 45t48 121v8q0 56 66 56q65 0 65 -56v-8 q0 -127 -84.5 -206.5t-228.5 -79.5q-143 0 -230.5 92t-87.5 245z" />
<glyph unicode="&#xab;" horiz-adv-x="1075" d="M164 633q0 14 14 33l279 278q33 32 71 -6q42 -42 7 -72l-238 -233l238 -234q34 -30 -7 -71q-38 -38 -71 -6l-279 278q-14 19 -14 33zM526 633q0 14 13 33l278 278q33 33 72 -6q41 -41 6 -72l-238 -233l238 -234q35 -30 -6 -71q-39 -39 -72 -6l-278 278q-13 19 -13 33z " />
<glyph unicode="&#xad;" horiz-adv-x="843" d="M123 682q0 63 49 63h500q49 0 49 -63q0 -64 -49 -64h-500q-49 0 -49 64z" />
<glyph unicode="&#xae;" horiz-adv-x="1351" d="M51 721q0 339 172 541q174 204 453 204t450 -204q174 -201 174 -541q0 -339 -174 -543q-173 -203 -450 -203t-453 203q-172 205 -172 543zM166 721q0 -307 141 -477t369 -170q227 0 368 170q142 171 142 477t-142 477q-141 170 -368 170q-228 0 -369 -170t-141 -477z M408 334v776q0 53 63 53h238q278 0 278 -260q0 -76 -26 -121.5t-87 -83.5q60 -39 86.5 -92.5t26.5 -140.5v-131q0 -55 -63 -55q-66 0 -66 55v131q0 182 -162 182h-159v-313q0 -55 -66 -55q-63 0 -63 55zM537 764h170q80 0 115.5 31.5t35.5 109.5t-35.5 110t-115.5 32h-170 v-283z" />
<glyph unicode="&#xb4;" horiz-adv-x="655" d="M225 1300l203 209q34 37 74 -2q38 -38 2 -77l-203 -209q-35 -37 -74 2q-38 38 -2 77z" />
<glyph unicode="&#xb8;" horiz-adv-x="655" d="M182 -367q9 46 49 31q30 -12 64 -12q39 0 64.5 23.5t25.5 60.5q0 98 -135 98q-17 0 -24 12t1 25l86 149h103l-66 -126q61 -10 99 -55t38 -105q0 -72 -52 -123t-126 -51q-57 0 -106 22q-29 16 -21 51z" />
<glyph unicode="&#xbb;" horiz-adv-x="1075" d="M215 399l238 234l-238 233q-35 31 6 72q39 39 72 6l278 -278q13 -19 13 -33t-13 -33l-278 -278q-33 -33 -72 6q-41 41 -6 71zM575 399l238 234l-238 233q-35 30 7 72q38 38 71 6l279 -278q14 -19 14 -33t-14 -33l-279 -278q-33 -32 -71 6q-41 41 -7 71z" />
<glyph unicode="&#x2c6;" horiz-adv-x="655" d="M129 1225q-26 36 2 69l182 211q43 43 86 0l183 -211q28 -33 2 -69q-17 -20 -40 -21t-36 17l-152 176l-151 -176q-13 -18 -36 -17t-40 21z" />
<glyph unicode="&#x2da;" horiz-adv-x="655" d="M141 1352q0 75 54 129q56 54 133 54t131 -54q55 -54 55 -129t-55 -129q-54 -54 -131 -54t-133 54q-54 54 -54 129zM243 1351.5q0 -38.5 23 -63.5q25 -25 61.5 -25t59.5 25q25 25 25 63.5t-25 63.5q-23 25 -59.5 25t-61.5 -25q-23 -25 -23 -63.5z" />
<glyph unicode="&#x2dc;" horiz-adv-x="655" d="M66 1290v27q0 70 41 116t106 46q97 0 162 -109q27 -47 63 -47q49 0 49 68v22q0 47 52 47q51 0 51 -47v-27q0 -70 -41.5 -115.5t-106.5 -45.5q-96 0 -161 108q-30 47 -64 47q-49 0 -49 -67v-23q0 -47 -51 -47t-51 47z" />
<glyph unicode="&#x400;" horiz-adv-x="1026" d="M174 61v1319q0 62 47 62h656q47 0 47 -62q0 -61 -47 -61h-564v-512h512q47 0 47 -62q0 -61 -47 -61h-512v-561h574q47 0 47 -62q0 -61 -47 -61h-666q-47 0 -47 61zM414 1817q-36 39 2 77q39 39 73 2l203 -208q37 -39 -2 -78q-40 -39 -74 -2z" />
<glyph unicode="&#x401;" horiz-adv-x="1026" d="M174 61v1319q0 62 47 62h656q47 0 47 -62q0 -61 -47 -61h-564v-512h512q47 0 47 -62q0 -61 -47 -61h-512v-561h574q47 0 47 -62q0 -61 -47 -61h-666q-47 0 -47 61zM317 1698v82q-6 41 32 58.5t76 0t32 -58.5v-82q6 -41 -32 -58.5t-76 0t-32 58.5zM649 1698v82 q-6 41 31.5 58.5t75.5 0t32 -58.5v-82q6 -41 -32 -58.5t-75.5 0t-31.5 58.5z" />
<glyph unicode="&#x402;" horiz-adv-x="1466" d="M57 1380q0 62 47 62h848q47 0 47 -62q0 -61 -47 -61h-354v-498q131 158 340 158q182 0 315 -121q131 -119 131 -336v-96q0 -221 -127 -336t-317 -115q-74 0 -123 21q-24 10 -30 37.5t8 50.5q18 35 86 18q46 -4 59 -4q134 0 219 88q86 89 86 226v100q0 156 -90.5 250 t-232.5 94q-136 0 -230 -94q-94 -91 -94 -242v-483q0 -53 -70 -53q-69 0 -69 53v1282h-355q-47 0 -47 61z" />
<glyph unicode="&#x403;" horiz-adv-x="968" d="M174 37v1343q0 62 47 62h643q47 0 47 -62q0 -61 -47 -61h-551v-1282q0 -53 -69 -53q-70 0 -70 53zM416 1688l202 208q34 38 74 -2q38 -38 2 -77l-202 -209q-35 -37 -74 2t-2 78z" />
<glyph unicode="&#x404;" horiz-adv-x="1210" d="M154 449v544q0 214 127 344q129 129 329 129q204 0 330 -120q127 -121 127 -328v-8q0 -54 -70 -54q-69 0 -69 54v8q-1 154 -86 239.5t-232 85.5q-142 0 -229.5 -94t-87.5 -254v-196h434q47 0 47 -62q0 -61 -47 -61h-434v-230q0 -160 87.5 -254t229.5 -94q147 0 232 86 t86 240v8q0 53 69 53q70 0 70 -53v-8q0 -207 -127 -328t-330 -121q-200 0 -329 129q-127 130 -127 345z" />
<glyph unicode="&#x405;" horiz-adv-x="1136" d="M143 371v22q0 53 70 53t70 -53v-10q0 -122 92 -205q92 -80 219 -80q131 0 211 67.5t80 186.5q0 120 -79.5 197.5t-260.5 126.5q-402 111 -402 418q0 161 117 266q115 106 299 106q209 0 322 -116q114 -117 114 -271v-18q0 -53 -69 -53q-70 0 -70 53v12q0 117 -83.5 193.5 t-213.5 76.5q-121 0 -198.5 -66t-77.5 -179q0 -203 301 -291q236 -69 338 -170t102 -281q0 -165 -115 -274q-113 -107 -315 -107q-205 0 -328 117t-123 279z" />
<glyph unicode="&#x406;" horiz-adv-x="528" d="M195 29v1376q0 53 69 53q70 0 70 -53v-1376q0 -54 -70 -54q-69 0 -69 54z" />
<glyph unicode="&#x407;" horiz-adv-x="528" d="M29 1698v82q-6 41 31.5 58.5t75.5 0t32 -58.5v-82q6 -41 -32 -58.5t-75.5 0t-31.5 58.5zM195 29v1376q0 53 69 53q70 0 70 -53v-1376q0 -54 -70 -54q-69 0 -69 54zM360 1698v82q-6 41 32 58.5t76 0t32 -58.5v-82q6 -41 -32 -58.5t-76 0t-32 58.5z" />
<glyph unicode="&#x408;" horiz-adv-x="1093" d="M92 367v8q0 53 70 53q69 0 69 -53v-8q0 -99 68 -185q72 -84 205 -84q276 0 276 348v959q0 53 70 53t70 -53v-956q0 -223 -110 -348.5t-306 -125.5q-193 0 -303 119q-109 121 -109 273z" />
<glyph unicode="&#x409;" horiz-adv-x="1927" d="M92 25q-22 60 31 81q90 36 139 116.5t49 187.5v970q0 62 47 62h676q47 0 47 -62v-559q131 158 340 158q183 0 316 -121q131 -119 131 -336v-90q0 -218 -135 -338q-134 -119 -328 -119t-328 119q-135 120 -135 338v887h-491v-918q0 -144 -73 -255t-202 -158 q-63 -25 -84 37zM1081 442q0 -156 91 -250t233 -94t233 94t91 250v70q0 156 -91 250t-233 94q-135 0 -229 -94q-95 -92 -95 -242v-78z" />
<glyph unicode="&#x40a;" horiz-adv-x="1906" d="M174 37v1368q0 53 70 53q69 0 69 -53v-612h586v612q0 53 70 53q69 0 69 -53v-584q131 158 340 158q183 0 316 -121q131 -119 131 -336v-90q0 -218 -135 -338q-134 -119 -328 -119t-328 119q-135 120 -135 338v238h-586v-633q0 -53 -69 -53q-70 0 -70 53zM1038 442 q0 -156 91 -250t233 -94t233 94t91 250v70q0 156 -91 250t-233 94q-135 0 -229 -94q-95 -92 -95 -242v-78z" />
<glyph unicode="&#x40b;" horiz-adv-x="1476" d="M57 1380q0 62 47 62h848q47 0 47 -62q0 -61 -47 -61h-354v-498q131 158 340 158q182 0 315 -121q131 -119 131 -336v-485q0 -53 -69 -53q-70 0 -70 53v475q0 156 -90.5 250t-232.5 94q-136 0 -230 -94q-94 -91 -94 -242v-483q0 -53 -70 -53q-69 0 -69 53v1282h-355 q-47 0 -47 61z" />
<glyph unicode="&#x40c;" horiz-adv-x="1159" d="M174 37v1368q0 53 70 53q69 0 69 -53v-752q11 19 47 39l179 107q317 188 317 501v105q0 53 70 53q69 0 69 -53v-100q0 -326 -241 -521q151 -148 217 -295q65 -145 65 -331v-121q0 -53 -69 -53q-70 0 -70 53v88q0 183 -55 311q-57 132 -199 271l-256 -154q-74 -44 -74 -78 v-438q0 -53 -69 -53q-70 0 -70 53zM477 1688l203 208q34 38 74 -2q38 -38 2 -77l-203 -209q-35 -37 -74 2t-2 78z" />
<glyph unicode="&#x40d;" horiz-adv-x="1236" d="M174 37v1368q0 53 70 53q69 0 69 -53v-547l619 576q27 24 61 24q70 0 70 -53v-1368q0 -53 -70 -53q-69 0 -69 53v1204l-611 -563v-641q0 -53 -69 -53q-70 0 -70 53zM479 1817q-36 39 2 77q40 40 74 2l203 -208q37 -39 -2 -78q-40 -39 -74 -2z" />
<glyph unicode="&#x40e;" horiz-adv-x="1273" d="M174 944v461q0 53 70 53q69 0 69 -53v-451q0 -156 91 -250t233 -94q134 0 229 92q95 95 95 244v459q0 53 69 53q70 0 70 -53v-1010q0 -203 -135 -311q-136 -109 -332 -109q-219 0 -346 86q-52 34 -11 91q38 53 86 14q83 -68 271 -68q151 0 239.5 78.5t88.5 226.5v242 q-131 -158 -340 -158q-183 0 -316 121q-131 119 -131 336zM393 1851q0 47 53 47q51 0 54 -47q6 -151 137 -151t137 151q3 47 53 47q54 0 54 -47q0 -111 -74 -182q-72 -72 -170 -72q-97 0 -172 72q-72 72 -72 182z" />
<glyph unicode="&#x40f;" horiz-adv-x="1228" d="M174 61v1344q0 53 70 53q69 0 69 -53v-1282h602v1282q0 53 70 53t70 -53v-1344q0 -61 -47 -61h-324v-197q0 -53 -70 -53q-69 0 -69 53v197h-324q-47 0 -47 61z" />
<glyph unicode="&#x410;" horiz-adv-x="1261" d="M174 37v956q0 214 127 344q129 129 330 129t327 -129q129 -129 129 -344v-956q0 -53 -69 -53q-70 0 -70 53v520h-635v-520q0 -53 -69 -53q-70 0 -70 53zM313 680h635v315q0 160 -87.5 254t-229.5 94q-143 0 -230.5 -94t-87.5 -254v-315z" />
<glyph unicode="&#x411;" horiz-adv-x="1191" d="M174 432v948q0 62 47 62h694q48 0 48 -62q0 -61 -48 -61h-602v-498q131 158 340 158q183 0 316 -121q131 -119 131 -336v-90q0 -218 -135 -338q-134 -119 -328 -119t-328 119q-135 120 -135 338zM313 442q0 -156 91 -250t233 -94t233 94t91 250v70q0 156 -91 250t-233 94 q-135 0 -229 -94q-95 -92 -95 -242v-78z" />
<glyph unicode="&#x412;" horiz-adv-x="1175" d="M174 72v1298q0 29 21.5 50.5t50.5 21.5h426q167 0 262 -109q98 -107 98 -270q0 -209 -170 -311q201 -103 201 -349q0 -169 -102 -286t-289 -117h-426q-29 0 -50.5 21.5t-21.5 50.5zM313 123h353q131 0 200.5 79t69.5 201q0 115 -64 197q-63 84 -176 84h-383v-561z M313 807h353q112 0 175.5 72t63.5 184t-63.5 184t-175.5 72h-353v-512z" />
<glyph unicode="&#x413;" horiz-adv-x="968" d="M174 37v1343q0 62 47 62h643q47 0 47 -62q0 -61 -47 -61h-551v-1282q0 -53 -69 -53q-70 0 -70 53z" />
<glyph unicode="&#x414;" horiz-adv-x="1204" d="M31 61q0 62 47 62h63q127 284 127 657v303q0 162 101 260q102 99 256 99h342q47 0 47 -62v-1257h82q47 0 47 -62v-258q0 -53 -70 -53q-69 0 -69 53v197h-834v-197q0 -53 -70 -53q-69 0 -69 53v258zM295 123h579v1196h-249q-99 0 -158 -63.5t-59 -172.5v-305 q0 -390 -113 -655z" />
<glyph unicode="&#x415;" horiz-adv-x="1026" d="M174 61v1319q0 62 47 62h656q47 0 47 -62q0 -61 -47 -61h-564v-512h512q47 0 47 -62q0 -61 -47 -61h-512v-561h574q47 0 47 -62q0 -61 -47 -61h-666q-47 0 -47 61z" />
<glyph unicode="&#x416;" horiz-adv-x="1581" d="M133 37v160q0 191 49.5 334t169.5 294q-101 102 -143.5 224.5t-42.5 296.5v59q0 33 34.5 46.5t69.5 0t35 -46.5v-64q0 -171 53 -286q56 -113 185 -207l141 -109q26 -20 37 -39v705q0 53 70 53q69 0 69 -53v-705q12 19 37 39l141 109q130 95 183 207q55 113 55 286v64 q0 33 35 46.5t69.5 0t34.5 -46.5v-59q0 -174 -42.5 -296.5t-143.5 -224.5q120 -151 169.5 -294t49.5 -334v-160q0 -33 -35 -46.5t-69.5 0t-34.5 46.5v127q0 193 -39 311q-37 124 -148 262l-202 -153q-57 -45 -60 -70v-477q0 -53 -69 -53q-70 0 -70 53v477q-7 30 -59 70 l-203 153q-110 -136 -150 -262q-37 -121 -37 -311v-127q0 -33 -35 -46.5t-69.5 0t-34.5 46.5z" />
<glyph unicode="&#x417;" horiz-adv-x="1110" d="M166 1075v29q0 140 110 250q112 112 304 112t303 -108q112 -106 112 -277q0 -203 -200 -329q237 -108 237 -351q0 -194 -123 -310t-342 -116q-131 0 -240 46t-157 129q-34 52 16 90q63 45 90 -2q84 -140 291 -140q148 0 237 81t89 222q0 124 -83 204.5t-208 80.5h-160 q-47 0 -47 62q0 61 47 61h127q115 0 201 74q86 77 86 198q0 125 -75 193.5t-201 68.5q-124 0 -199.5 -71.5t-75.5 -196.5q0 -53 -69 -53q-70 0 -70 53z" />
<glyph unicode="&#x418;" horiz-adv-x="1236" d="M174 37v1368q0 53 70 53q69 0 69 -53v-547l619 576q27 24 61 24q70 0 70 -53v-1368q0 -53 -70 -53q-69 0 -69 53v1204l-611 -563v-641q0 -53 -69 -53q-70 0 -70 53z" />
<glyph unicode="&#x419;" horiz-adv-x="1236" d="M174 37v1368q0 53 70 53q69 0 69 -53v-547l619 576q27 24 61 24q70 0 70 -53v-1368q0 -53 -70 -53q-69 0 -69 53v1204l-611 -563v-641q0 -53 -69 -53q-70 0 -70 53zM375 1851q0 47 53 47q50 0 53 -47q6 -151 137 -151q132 0 138 151q3 47 53 47q53 0 53 -47 q0 -111 -74 -182q-72 -72 -170 -72q-97 0 -172 72q-71 71 -71 182z" />
<glyph unicode="&#x41a;" horiz-adv-x="1159" d="M174 37v1368q0 53 70 53q69 0 69 -53v-752q11 19 47 39l179 107q317 188 317 501v105q0 53 70 53q69 0 69 -53v-100q0 -326 -241 -521q151 -148 217 -295q65 -145 65 -331v-121q0 -53 -69 -53q-70 0 -70 53v88q0 183 -55 311q-57 132 -199 271l-256 -154q-74 -44 -74 -78 v-438q0 -53 -69 -53q-70 0 -70 53z" />
<glyph unicode="&#x41b;" horiz-adv-x="1232" d="M92 25q-22 60 31 81q90 36 139 116.5t49 187.5v970q0 62 47 62h676q47 0 47 -62v-1343q0 -53 -69 -53q-70 0 -70 53v1282h-491v-918q0 -144 -73 -255t-202 -158q-63 -25 -84 37z" />
<glyph unicode="&#x41c;" horiz-adv-x="1830" d="M174 37v983q0 207 113 326q114 120 293 120q108 0 198 -51t137 -139q47 88 137 139t199 51q177 0 291 -120q115 -121 115 -326v-983q0 -53 -70 -53q-69 0 -69 53v985q0 154 -73 237.5t-194 83.5t-193.5 -83.5t-72.5 -237.5v-985q0 -53 -70 -53q-69 0 -69 53v985 q0 154 -72.5 237.5t-193.5 83.5t-194 -83.5t-73 -237.5v-985q0 -53 -69 -53q-70 0 -70 53z" />
<glyph unicode="&#x41d;" horiz-adv-x="1212" d="M174 37v1368q0 53 70 53q69 0 69 -53v-612h586v612q0 53 70 53q69 0 69 -53v-1368q0 -53 -69 -53q-70 0 -70 53v633h-586v-633q0 -53 -69 -53q-70 0 -70 53z" />
<glyph unicode="&#x41e;" horiz-adv-x="1220" d="M154 449v544q0 214 127 344q129 129 329 129q202 0 328 -129q129 -129 129 -344v-544q0 -216 -129 -345q-126 -129 -328 -129q-200 0 -329 129q-127 130 -127 345zM293 446q0 -160 87.5 -254t229.5 -94q143 0 230.5 94t87.5 254v549q0 160 -87.5 254t-230.5 94 q-142 0 -229.5 -94t-87.5 -254v-549z" />
<glyph unicode="&#x41f;" horiz-adv-x="1228" d="M174 37v1343q0 62 47 62h787q47 0 47 -62v-1343q0 -53 -70 -53t-70 53v1282h-602v-1282q0 -53 -69 -53q-70 0 -70 53z" />
<glyph unicode="&#x420;" horiz-adv-x="1103" d="M174 37v1352q0 53 70 53h338q199 0 309 -112t110 -320t-110 -320t-309 -112h-269v-541q0 -53 -69 -53q-70 0 -70 53zM313 700h267q282 0 282 310q0 309 -282 309h-267v-619z" />
<glyph unicode="&#x421;" horiz-adv-x="1210" d="M154 449v544q0 214 127 344q129 129 329 129q204 0 330 -120q127 -121 127 -328v-8q0 -54 -70 -54q-69 0 -69 54v8q-1 154 -86 239.5t-232 85.5q-142 0 -229.5 -94t-87.5 -254v-549q0 -160 87.5 -254t229.5 -94q147 0 232 86t86 240v8q0 53 69 53q70 0 70 -53v-8 q0 -207 -127 -328t-330 -121q-200 0 -329 129q-127 130 -127 345z" />
<glyph unicode="&#x422;" horiz-adv-x="1056" d="M57 1380q0 62 47 62h848q47 0 47 -62q0 -61 -47 -61h-354v-1282q0 -53 -70 -53q-69 0 -69 53v1282h-355q-47 0 -47 61z" />
<glyph unicode="&#x423;" horiz-adv-x="1273" d="M174 944v461q0 53 70 53q69 0 69 -53v-451q0 -156 91 -250t233 -94q134 0 229 92q95 95 95 244v459q0 53 69 53q70 0 70 -53v-1010q0 -203 -135 -311q-136 -109 -332 -109q-219 0 -346 86q-52 34 -11 91q38 53 86 14q83 -68 271 -68q151 0 239.5 78.5t88.5 226.5v242 q-131 -158 -340 -158q-183 0 -316 121q-131 119 -131 336z" />
<glyph unicode="&#x424;" horiz-adv-x="1298" d="M123 702v37q0 214 127 344q129 129 330 129v193q0 53 69 53q70 0 70 -53v-193q202 0 328 -129q129 -129 129 -344v-37q0 -215 -129 -344q-126 -129 -328 -129v-192q0 -53 -70 -53q-69 0 -69 53v192q-201 0 -330 129q-127 130 -127 344zM262 700q0 -160 87.5 -254 t230.5 -94v738q-142 0 -230 -94.5t-88 -254.5v-41zM719 352q142 0 229.5 94t87.5 254v41q0 160 -87.5 254.5t-229.5 94.5v-738z" />
<glyph unicode="&#x425;" horiz-adv-x="1179" d="M143 37v74q0 177 68 307q72 132 274 313q-210 192 -274 311q-68 127 -68 314v49q0 53 70 53t70 -53v-53q0 -140 57 -248q58 -107 250 -281q188 170 248 281q59 112 59 248v53q0 53 70 53q69 0 69 -53v-49q0 -189 -67 -314q-63 -118 -275 -311q207 -186 273 -315 q69 -126 69 -305v-74q0 -53 -69 -53q-70 0 -70 53v78q0 130 -59 239t-248 283q-193 -178 -250 -283t-57 -239v-78q0 -53 -70 -53t-70 53z" />
<glyph unicode="&#x426;" horiz-adv-x="1275" d="M174 61v1344q0 53 70 53q69 0 69 -53v-1282h602v1282q0 53 70 53t70 -53v-1282h123q47 0 47 -62v-258q0 -53 -70 -53t-70 53v197h-864q-47 0 -47 61z" />
<glyph unicode="&#x427;" horiz-adv-x="1263" d="M164 1001v404q0 53 69 53q70 0 70 -53v-393q0 -156 91 -250t233 -94q134 0 229 92q94 94 94 244v401q0 53 70 53t70 -53v-1368q0 -53 -70 -53t-70 53v665q-130 -157 -340 -157q-182 0 -315 121q-131 119 -131 335z" />
<glyph unicode="&#x428;" horiz-adv-x="1544" d="M174 61v1344q0 53 70 53q69 0 69 -53v-1282h389v1282q0 53 70 53t70 -53v-1282h389v1282q0 53 69 53q70 0 70 -53v-1344q0 -61 -47 -61h-1102q-47 0 -47 61z" />
<glyph unicode="&#x429;" horiz-adv-x="1591" d="M174 61v1344q0 53 70 53q69 0 69 -53v-1282h389v1282q0 53 70 53t70 -53v-1282h389v1282q0 53 69 53q70 0 70 -53v-1282h123q47 0 47 -62v-258q0 -53 -70 -53q-69 0 -69 53v197h-1180q-47 0 -47 61z" />
<glyph unicode="&#x42a;" horiz-adv-x="1468" d="M57 1380q0 62 47 62h449q47 0 47 -62v-559q131 158 340 158q182 0 315 -121q131 -119 131 -336v-90q0 -218 -135 -338q-134 -119 -327 -119q-194 0 -328 119q-135 120 -135 338v887h-357q-47 0 -47 61zM600 442q0 -156 91 -250t233 -94t232.5 94t90.5 250v70 q0 156 -90.5 250t-232.5 94q-136 0 -230 -94q-94 -91 -94 -242v-78z" />
<glyph unicode="&#x42b;" horiz-adv-x="1591" d="M174 432v973q0 53 70 53q69 0 69 -53v-584q131 158 340 158q183 0 316 -121q131 -119 131 -336v-90q0 -218 -135 -338q-134 -119 -328 -119t-328 119q-135 120 -135 338zM313 442q0 -156 91 -250t233 -94t233 94t91 250v70q0 156 -91 250t-233 94q-135 0 -229 -94 q-95 -92 -95 -242v-78zM1278 37v1368q0 53 70 53q69 0 69 -53v-1368q0 -53 -69 -53q-70 0 -70 53z" />
<glyph unicode="&#x42c;" horiz-adv-x="1181" d="M174 432v973q0 53 70 53q69 0 69 -53v-584q131 158 340 158q183 0 316 -121q131 -119 131 -336v-90q0 -218 -135 -338q-134 -119 -328 -119t-328 119q-135 120 -135 338zM313 442q0 -156 91 -250t233 -94t233 94t91 250v70q0 156 -91 250t-233 94q-135 0 -229 -94 q-95 -92 -95 -242v-78z" />
<glyph unicode="&#x42d;" horiz-adv-x="1210" d="M143 424v8q0 53 70 53t70 -53v-8q1 -154 85.5 -240t231.5 -86q143 0 230.5 94t87.5 254v230h-435q-47 0 -47 61q0 62 47 62h435v196q0 160 -87.5 254t-230.5 94q-147 0 -231.5 -85.5t-85.5 -239.5v-8q0 -54 -70 -54t-70 54v8q0 207 127 328q126 120 330 120 q202 0 328 -129q129 -129 129 -344v-544q0 -216 -129 -345q-126 -129 -328 -129q-203 0 -330 121t-127 328z" />
<glyph unicode="&#x42e;" horiz-adv-x="1589" d="M174 37v1368q0 53 70 53q69 0 69 -53v-627h209v215q0 214 127 344q129 129 330 129q202 0 328 -129q129 -129 129 -344v-544q0 -216 -129 -345q-126 -129 -328 -129q-201 0 -330 129q-127 130 -127 345v206h-209v-618q0 -53 -69 -53q-70 0 -70 53zM662 446 q0 -160 87.5 -254t229.5 -94t229.5 94t87.5 254v549q0 160 -87.5 254t-229.5 94t-229.5 -94t-87.5 -254v-549z" />
<glyph unicode="&#x42f;" horiz-adv-x="1138" d="M154 37v235q0 285 206 402q-206 95 -206 356q0 199 105.5 305.5t297.5 106.5h338q70 0 70 -53v-1352q0 -53 -70 -53t-70 53v586h-247q-129 0 -207 -95t-78 -254v-237q0 -53 -70 -53q-69 0 -69 53zM293 1032q0 -287 266 -287h266v574h-266q-266 0 -266 -287z" />
<glyph unicode="&#x430;" horiz-adv-x="958" d="M123 291q0 228 262 287l252 57q68 15 68 53v51q0 97 -64.5 160.5t-161.5 63.5q-96 0 -160.5 -63t-64.5 -152v-11q0 -53 -66 -53q-65 0 -65 53v15q0 136 102 231q101 94 254 94t254 -94q103 -95 103 -242v-409q0 -160 -103 -260q-105 -97 -254 -97q-150 0 -254 93 q-102 95 -102 223zM254 291q0 -81 64.5 -141t160.5 -60q97 0 161.5 65.5t64.5 182.5v215q-15 -21 -74 -33l-215 -49q-162 -40 -162 -180z" />
<glyph unicode="&#x431;" horiz-adv-x="987" d="M143 328v821q0 171 106.5 271t276.5 100q152 0 262 -84q50 -38 11 -86q-41 -50 -86 -11q-84 66 -187 66q-117 0 -184.5 -70t-67.5 -194v-176q81 112 248 112q141 0 242 -94q100 -93 100 -258v-397q0 -164 -104 -258q-106 -95 -256 -95t-256 95q-105 94 -105 258zM274 338 q0 -115 64 -181.5t166 -66.5t165.5 66.5t63.5 181.5v377q0 115 -63.5 181.5t-165.5 66.5t-166 -66.5t-64 -181.5v-377z" />
<glyph unicode="&#x432;" horiz-adv-x="935" d="M143 53v946q0 20 17 37t37 17h317q135 0 221 -79.5t86 -199.5q0 -153 -131 -223q154 -80 154 -256q0 -122 -90 -209q-89 -86 -238 -86h-319q-20 0 -37 16.5t-17 36.5zM274 115h244q86 0 140.5 53.5t54.5 132.5t-54.5 132.5t-140.5 53.5h-244v-372zM274 602h244 q74 0 123 47.5t49 120.5t-49 120.5t-123 47.5h-244v-336z" />
<glyph unicode="&#x433;" horiz-adv-x="755" d="M143 37v944q0 29 21.5 50.5t50.5 21.5h453q47 0 47 -58q0 -57 -47 -57h-394v-901q0 -53 -65 -53q-66 0 -66 53z" />
<glyph unicode="&#x434;" horiz-adv-x="972" d="M41 43q0 29 21.5 50.5t50.5 21.5h20q70 189 70 413v183q0 151 96 247q100 95 244 95h196q29 0 50.5 -21.5t21.5 -50.5v-866h39q29 0 50.5 -21.5t21.5 -50.5v-199q0 -53 -66 -53q-65 0 -65 53v156h-619v-156q0 -53 -66 -53q-65 0 -65 53v199zM268 115h416v823h-141 q-94 0 -153.5 -62t-59.5 -165v-185q0 -225 -62 -411z" />
<glyph unicode="&#x435;" horiz-adv-x="958" d="M123 311v410q0 165 100 258q101 98 256 98q153 0 254 -94q103 -92 103 -221q0 -228 -263 -287l-251 -57q-68 -15 -68 -53v-52q0 -97 64 -160t161 -63q96 0 161 63t65 152v10q0 54 65 54q66 0 66 -54v-14q0 -136 -103 -231t-254 -95q-153 0 -256 95q-100 93 -100 241z M254 500q14 20 74 32l215 50q162 40 162 180q0 81 -65 141t-161 60q-97 0 -161 -65.5t-64 -182.5v-215z" />
<glyph unicode="&#x436;" horiz-adv-x="1306" d="M102 37v47q0 163 54 274q52 107 182 222q-111 78 -158 165t-47 205v66q0 53 66 53q65 0 65 -53v-62q0 -202 221 -325l56 -31q29 -18 47 -39v457q0 53 65 53q66 0 66 -53v-457q18 21 47 39l55 31q221 123 221 325v62q0 53 66 53t66 -53v-66q0 -118 -47 -205t-158 -165 q130 -115 182 -222q53 -109 53 -274v-47q0 -53 -65 -53q-66 0 -66 53v37q0 137 -47 233q-45 97 -170 203l-63 -37q-74 -44 -74 -78v-358q0 -53 -66 -53q-65 0 -65 53v358q0 34 -74 78l-63 37q-125 -106 -170 -203q-48 -98 -48 -233v-37q0 -53 -65 -53q-66 0 -66 53z" />
<glyph unicode="&#x437;" horiz-adv-x="907" d="M133 772v10q0 123 92 209t234 86q154 0 244 -82.5t90 -210.5q0 -182 -154 -247q176 -71 176 -277q0 -121 -98 -203q-94 -79 -252 -82q-86 0 -168.5 30.5t-130.5 78.5q-42 42 -8 88q41 51 88 10q92 -92 217 -92q97 0 159 47t62 129q0 97 -62.5 153t-172.5 56h-107 q-47 0 -47 57q0 58 47 58h117q87 0 145 54t58 136q0 79 -55 131t-142 52t-144 -52t-57 -131v-8q-3 -53 -65 -53q-66 0 -66 53z" />
<glyph unicode="&#x438;" horiz-adv-x="991" d="M143 37v979q0 53 66 53q65 0 65 -53v-395l453 428q23 20 55 20q66 0 66 -53v-979q0 -53 -66 -53q-65 0 -65 53v833l-443 -413v-420q0 -53 -65 -53q-66 0 -66 53z" />
<glyph unicode="&#x439;" horiz-adv-x="991" d="M143 37v979q0 53 66 53q65 0 65 -53v-395l453 428q23 20 55 20q66 0 66 -53v-979q0 -53 -66 -53q-65 0 -65 53v833l-443 -413v-420q0 -53 -65 -53q-66 0 -66 53zM252 1458q0 47 53 47q50 0 53 -47q6 -151 138 -151q131 0 137 151q3 47 53 47q53 0 53 -47q0 -112 -73 -182 q-72 -72 -170 -72q-97 0 -172 72q-72 72 -72 182z" />
<glyph unicode="&#x43a;" horiz-adv-x="933" d="M143 37v979q0 53 66 53q65 0 65 -53v-488q11 16 48 39l137 82q221 132 221 326v41q0 53 65 53q66 0 66 -53v-45q0 -121 -50 -209.5t-171 -171.5q140 -125 194 -230q58 -107 58 -276v-47q0 -53 -66 -53q-65 0 -65 53v35q0 143 -49 237q-51 97 -183 211l-131 -78 q-71 -41 -74 -71v-334q0 -53 -65 -53q-66 0 -66 53z" />
<glyph unicode="&#x43b;" horiz-adv-x="1064" d="M51 25q-22 60 31 81q91 36 141.5 117.5t50.5 186.5v571q0 29 21.5 50.5t50.5 21.5h526q29 0 50.5 -21.5t21.5 -50.5v-944q0 -53 -65 -53q-66 0 -66 53v901h-407v-537q0 -148 -71 -257t-200 -156q-63 -25 -84 37z" />
<glyph unicode="&#x43c;" horiz-adv-x="1474" d="M143 37v688q0 165 90 258.5t240 93.5q185 0 264 -137q79 137 264 137q150 0 240 -93.5t90 -258.5v-688q0 -53 -65 -53q-66 0 -66 53v678q0 121 -51 184.5t-148 63.5q-94 0 -146 -61.5t-52 -176.5v-688q0 -53 -66 -53q-65 0 -65 53v688q0 115 -52.5 176.5t-146.5 61.5 q-97 0 -148 -63.5t-51 -184.5v-678q0 -53 -65 -53q-66 0 -66 53z" />
<glyph unicode="&#x43d;" horiz-adv-x="978" d="M143 37v979q0 53 66 53q65 0 65 -53v-389h431v389q0 53 65 53q66 0 66 -53v-979q0 -53 -66 -53q-65 0 -65 53v475h-431v-475q0 -53 -65 -53q-66 0 -66 53z" />
<glyph unicode="&#x43e;" horiz-adv-x="966" d="M123 328v397q0 164 104 258t256 94t256 -94q105 -95 105 -258v-397q0 -164 -105 -258q-106 -95 -256 -95t-256 95q-104 94 -104 258zM254 338q0 -115 63.5 -181.5t165.5 -66.5t166 66.5t64 181.5v377q0 115 -64 181.5t-166 66.5t-165.5 -66.5t-63.5 -181.5v-377z" />
<glyph unicode="&#x43f;" horiz-adv-x="987" d="M143 37v944q0 29 21.5 50.5t50.5 21.5h557q29 0 50.5 -21.5t21.5 -50.5v-944q0 -53 -66 -53q-65 0 -65 53v901h-439v-901q0 -53 -65 -53q-66 0 -66 53z" />
<glyph unicode="&#x440;" horiz-adv-x="987" d="M143 -397v1122q0 163 105 258q104 94 256 94t256 -94t104 -258v-397q0 -165 -100 -258q-103 -95 -242 -95q-166 0 -248 113v-485q0 -54 -65 -54q-66 0 -66 54zM274 338q0 -115 64 -181.5t166 -66.5t165.5 66.5t63.5 181.5v377q0 115 -63.5 181.5t-165.5 66.5t-166 -66.5 t-64 -181.5v-377z" />
<glyph unicode="&#x441;" horiz-adv-x="966" d="M123 328v397q0 164 104 258t256 94t256 -94q105 -95 105 -231v-15q0 -53 -66 -53q-65 0 -65 53v11q0 86 -68 151q-64 64 -162 64q-102 0 -165.5 -66.5t-63.5 -181.5v-377q0 -115 63.5 -181.5t165.5 -66.5q98 0 162 64q68 65 68 151v10q0 54 65 54q66 0 66 -54v-14 q0 -137 -105 -231q-106 -95 -256 -95t-256 95q-104 94 -104 258z" />
<glyph unicode="&#x442;" horiz-adv-x="839" d="M41 995q0 58 47 58h664q47 0 47 -58q0 -57 -47 -57h-267v-901q0 -53 -65 -53q-66 0 -66 53v901h-266q-47 0 -47 57z" />
<glyph unicode="&#x443;" horiz-adv-x="1007" d="M143 328v688q0 53 66 53q65 0 65 -53v-678q0 -115 64 -181.5t166 -66.5t165.5 66.5t63.5 181.5v678q0 53 66 53q65 0 65 -53v-1104q0 -171 -106.5 -271t-276.5 -100q-152 0 -262 84q-50 38 -10 86q41 50 86 10q83 -65 186 -65q117 0 184.5 70t67.5 194v168 q-82 -113 -248 -113q-138 0 -241 95q-101 94 -101 258z" />
<glyph unicode="&#x444;" horiz-adv-x="1556" d="M123 328v397q0 165 100 258q101 94 242 94q167 0 248 -112v493q0 53 65 53q66 0 66 -53v-493q81 112 248 112q140 0 241 -94t101 -258v-397q0 -164 -101 -258q-103 -95 -241 -95q-166 0 -248 113v-485q0 -54 -66 -54q-65 0 -65 54v485q-82 -113 -248 -113q-139 0 -242 95 q-100 93 -100 258zM254 338q0 -115 63.5 -181.5t165.5 -66.5t166 66.5t64 181.5v377q0 115 -64 181.5t-166 66.5t-165.5 -66.5t-63.5 -181.5v-377zM844 338q0 -115 63.5 -181.5t165.5 -66.5t166 66.5t64 181.5v377q0 115 -64 181.5t-166 66.5t-165.5 -66.5t-63.5 -181.5 v-377z" />
<glyph unicode="&#x445;" horiz-adv-x="976" d="M113 37v29q0 137 57 239q55 102 219 232q-147 120 -206.5 223.5t-59.5 234.5v21q0 53 65 53q66 0 66 -53v-17q0 -112 45 -192q48 -82 188 -195q143 116 189 197q47 83 47 190v17q0 53 65 53q66 0 66 -53v-21q0 -131 -59.5 -234.5t-206.5 -223.5q162 -131 217 -232 q59 -109 59 -239v-29q0 -53 -65 -53q-66 0 -66 53v24q0 112 -47 195q-45 80 -199 203q-149 -119 -196 -203q-47 -83 -47 -195v-24q0 -53 -66 -53q-65 0 -65 53z" />
<glyph unicode="&#x446;" horiz-adv-x="1028" d="M143 72v944q0 53 66 53q65 0 65 -53v-901h439v901q0 53 65 53q66 0 66 -53v-901h82q29 0 50 -21.5t21 -50.5v-199q0 -53 -65 -53q-66 0 -66 53v156h-651q-29 0 -50.5 21.5t-21.5 50.5z" />
<glyph unicode="&#x447;" horiz-adv-x="987" d="M123 705v311q0 53 65 53q66 0 66 -53v-301q0 -115 63.5 -181.5t165.5 -66.5t166 66.5t64 181.5v301q0 53 65 53q66 0 66 -53v-979q0 -53 -66 -53q-65 0 -65 53v428q-82 -113 -248 -113q-141 0 -242 94q-100 93 -100 259z" />
<glyph unicode="&#x448;" horiz-adv-x="1433" d="M143 72v944q0 53 66 53q65 0 65 -53v-901h377v901q0 53 66 53q65 0 65 -53v-901h377v901q0 53 66 53q65 0 65 -53v-944q0 -29 -21 -50.5t-50 -21.5h-1004q-29 0 -50.5 21.5t-21.5 50.5z" />
<glyph unicode="&#x449;" horiz-adv-x="1474" d="M143 72v944q0 53 66 53q65 0 65 -53v-901h377v901q0 53 66 53q65 0 65 -53v-901h377v901q0 53 66 53q65 0 65 -53v-901h82q29 0 50.5 -21.5t21.5 -50.5v-199q0 -53 -66 -53q-65 0 -65 53v156h-1098q-29 0 -50.5 21.5t-21.5 50.5z" />
<glyph unicode="&#x44a;" horiz-adv-x="1146" d="M41 995q0 58 47 58h326q29 0 50 -21.5t21 -50.5v-348q81 112 248 112q141 0 242 -94q100 -93 100 -258v-65q0 -164 -104 -258q-106 -95 -256 -95t-256 95q-105 94 -105 258v610h-266q-47 0 -47 57zM485 338q0 -115 64 -181.5t166 -66.5t165.5 66.5t63.5 181.5v45 q0 115 -63.5 181.5t-165.5 66.5t-166 -66.5t-64 -181.5v-45z" />
<glyph unicode="&#x44b;" horiz-adv-x="1296" d="M143 328v688q0 53 66 53q65 0 65 -53v-383q81 112 248 112q141 0 242 -94q100 -93 100 -258v-65q0 -164 -104 -258q-106 -95 -256 -95t-256 95q-105 94 -105 258zM274 338q0 -115 64 -181.5t166 -66.5t165.5 66.5t63.5 181.5v45q0 115 -63.5 181.5t-165.5 66.5 t-166 -66.5t-64 -181.5v-45zM1022 37v979q0 53 65 53q66 0 66 -53v-979q0 -53 -66 -53q-65 0 -65 53z" />
<glyph unicode="&#x44c;" horiz-adv-x="935" d="M143 328v688q0 53 66 53q65 0 65 -53v-383q81 112 248 112q141 0 242 -94q100 -93 100 -258v-65q0 -164 -104 -258q-106 -95 -256 -95t-256 95q-105 94 -105 258zM274 338q0 -115 64 -181.5t166 -66.5t165.5 66.5t63.5 181.5v45q0 115 -63.5 181.5t-165.5 66.5 t-166 -66.5t-64 -181.5v-45z" />
<glyph unicode="&#x44d;" horiz-adv-x="946" d="M102 301v14q0 54 66 54q65 0 65 -54v-10q0 -85 66 -151q67 -64 164 -64q102 0 165.5 66.5t63.5 181.5v137h-340q-47 0 -47 57q0 58 47 58h340v125q0 115 -63.5 181.5t-165.5 66.5q-97 0 -164 -64q-66 -66 -66 -151v-11q0 -53 -65 -53q-66 0 -66 53v15q0 136 105 231 q104 94 256 94t256 -94t104 -258v-397q0 -164 -104 -258q-106 -95 -256 -95t-256 95q-105 94 -105 231z" />
<glyph unicode="&#x44e;" horiz-adv-x="1288" d="M143 37v979q0 53 66 53q65 0 65 -53v-432h170v141q0 163 105 258q104 94 256 94t256 -94t104 -258v-397q0 -164 -104 -258q-106 -95 -256 -95t-256 95q-105 94 -105 258v141h-170v-432q0 -53 -65 -53q-66 0 -66 53zM575 338q0 -115 64 -181.5t166 -66.5t165.5 66.5 t63.5 181.5v377q0 115 -63.5 181.5t-165.5 66.5t-166 -66.5t-64 -181.5v-377z" />
<glyph unicode="&#x44f;" horiz-adv-x="946" d="M123 37v164q0 221 145 295q-143 98 -143 264q0 127 94 209q96 84 234 84h297q20 0 36.5 -17t16.5 -37v-962q0 -53 -66 -53q-65 0 -65 53v401h-223q-95 0 -145 -63.5t-50 -167.5v-170q0 -53 -66 -53q-65 0 -65 53zM256 745q0 -80 54.5 -136t138.5 -56h223v385h-223 q-84 0 -138.5 -56.5t-54.5 -136.5z" />
<glyph unicode="&#x450;" horiz-adv-x="958" d="M123 311v410q0 165 100 258q101 98 256 98q153 0 254 -94q103 -92 103 -221q0 -228 -263 -287l-251 -57q-68 -15 -68 -53v-52q0 -97 64 -160t161 -63q96 0 161 63t65 152v10q0 54 65 54q66 0 66 -54v-14q0 -136 -103 -231t-254 -95q-153 0 -256 95q-100 93 -100 241z M254 500q14 20 74 32l215 50q162 40 162 180q0 81 -65 141t-161 60q-97 0 -161 -65.5t-64 -182.5v-215zM340 1419q-37 39 2 78q40 39 74 2l202 -209q37 -39 -2 -78t-73 -2z" />
<glyph unicode="&#x451;" horiz-adv-x="958" d="M123 311v410q0 165 100 258q101 98 256 98q153 0 254 -94q103 -92 103 -221q0 -228 -263 -287l-251 -57q-68 -15 -68 -53v-52q0 -97 64 -160t161 -63q96 0 161 63t65 152v10q0 54 65 54q66 0 66 -54v-14q0 -136 -103 -231t-254 -95q-153 0 -256 95q-100 93 -100 241z M244 1300v82q-6 41 32 58.5t75.5 0t31.5 -58.5v-82q6 -41 -31.5 -58.5t-75.5 0t-32 58.5zM254 500q14 20 74 32l215 50q162 40 162 180q0 81 -65 141t-161 60q-97 0 -161 -65.5t-64 -182.5v-215zM575 1300v82q-6 41 32 58.5t76 0t32 -58.5v-82q6 -41 -32 -58.5t-76 0 t-32 58.5z" />
<glyph unicode="&#x452;" horiz-adv-x="1058" d="M20 1284q0 53 48 53h127v121q0 53 65 53q66 0 66 -53v-121h284q47 0 47 -53t-47 -53h-284v-266q81 112 247 112q141 0 242 -94q100 -93 100 -258v-762q0 -148 -70.5 -257.5t-199.5 -156.5q-63 -25 -84 37q-22 61 31 82q91 36 141.5 117t50.5 186v744q0 115 -63.5 181.5 t-165.5 66.5t-165.5 -66.5t-63.5 -181.5v-678q0 -53 -66 -53q-65 0 -65 53v1194h-127q-48 0 -48 53z" />
<glyph unicode="&#x453;" horiz-adv-x="755" d="M143 37v944q0 29 21.5 50.5t50.5 21.5h453q47 0 47 -58q0 -57 -47 -57h-394v-901q0 -53 -65 -53q-66 0 -66 53zM340 1290l203 209q34 37 73 -2t2 -78l-202 -209q-34 -38 -74 2q-39 39 -2 78z" />
<glyph unicode="&#x454;" horiz-adv-x="966" d="M123 328v397q0 164 104 258t256 94t256 -94q105 -95 105 -231v-15q0 -53 -66 -53q-65 0 -65 53v11q0 86 -68 151q-64 64 -162 64q-102 0 -165.5 -66.5t-63.5 -181.5v-125h340q47 0 47 -58q0 -57 -47 -57h-340v-137q0 -115 63.5 -181.5t165.5 -66.5q98 0 162 64 q68 65 68 151v10q0 54 65 54q66 0 66 -54v-14q0 -137 -105 -231q-106 -95 -256 -95t-256 95q-104 94 -104 258z" />
<glyph unicode="&#x455;" horiz-adv-x="894" d="M113 270v9q0 53 65 53q66 0 66 -53v-9q0 -73 65.5 -126.5t153.5 -53.5q95 0 152 46.5t57 127.5t-58.5 133t-189.5 84q-311 77 -311 312q0 126 96 204q100 80 235 80q140 0 244 -84q103 -83 103 -207v-14q0 -53 -66 -53t-66 53v6q0 76 -61.5 130.5t-153.5 54.5 q-87 0 -143.5 -47.5t-56.5 -120.5q0 -143 225 -201q172 -43 253 -122.5t81 -207.5q0 -129 -93 -209t-247 -80q-146 0 -250 84q-100 84 -100 211z" />
<glyph unicode="&#x456;" horiz-adv-x="438" d="M150 1329v82q-6 41 32 58.5t75.5 0t31.5 -58.5v-82q6 -41 -31.5 -58.5t-75.5 0t-32 58.5zM154 37v979q0 53 65 53q66 0 66 -53v-979q0 -53 -66 -53q-65 0 -65 53z" />
<glyph unicode="&#x457;" horiz-adv-x="438" d="M-16 1300v82q-6 41 32 58.5t75.5 0t31.5 -58.5v-82q6 -41 -31.5 -58.5t-75.5 0t-32 58.5zM154 37v979q0 53 65 53q66 0 66 -53v-979q0 -53 -66 -53q-65 0 -65 53zM315 1300v82q-6 41 32 58.5t76 0t32 -58.5v-82q6 -41 -32 -58.5t-76 0t-32 58.5z" />
<glyph unicode="&#x458;" horiz-adv-x="438" d="M-47 -414q-22 61 31 82q91 36 141.5 117t50.5 186v1045q0 53 66 53q65 0 65 -53v-1053q0 -148 -70.5 -257.5t-199.5 -156.5q-63 -25 -84 37zM172 1329v82q-6 41 32 58.5t75.5 0t31.5 -58.5v-82q6 -41 -31.5 -58.5t-75.5 0t-32 58.5z" />
<glyph unicode="&#x459;" horiz-adv-x="1583" d="M51 25q-22 60 31 81q91 36 141.5 117.5t50.5 186.5v571q0 29 21.5 50.5t50.5 21.5h526q29 0 50.5 -21.5t21.5 -50.5v-348q81 112 248 112q141 0 242 -94q100 -93 100 -258v-65q0 -164 -104 -258q-106 -95 -256 -95t-256 95q-105 94 -105 258v610h-407v-537 q0 -148 -71 -257t-200 -156q-63 -25 -84 37zM944 338q0 -115 64 -181.5t166 -66.5t165.5 66.5t63.5 181.5v45q0 115 -63.5 181.5t-165.5 66.5t-166 -66.5t-64 -181.5v-45z" />
<glyph unicode="&#x45a;" horiz-adv-x="1497" d="M143 37v979q0 53 66 53q65 0 65 -53v-389h431v389q0 53 65 53q66 0 66 -53v-383q81 112 247 112q141 0 242 -94q100 -93 100 -258v-65q0 -164 -104 -258q-106 -95 -256 -95t-256 95q-104 94 -104 258v184h-431v-475q0 -53 -65 -53q-66 0 -66 53zM836 338 q0 -115 63.5 -181.5t165.5 -66.5t165.5 66.5t63.5 181.5v45q0 115 -63.5 181.5t-165.5 66.5t-165.5 -66.5t-63.5 -181.5v-45z" />
<glyph unicode="&#x45b;" horiz-adv-x="1058" d="M20 1284q0 53 48 53h127v121q0 53 65 53q66 0 66 -53v-121h284q47 0 47 -53t-47 -53h-284v-266q81 112 247 112q141 0 242 -94q100 -93 100 -258v-688q0 -53 -65 -53q-66 0 -66 53v678q0 115 -63.5 181.5t-165.5 66.5t-165.5 -66.5t-63.5 -181.5v-678q0 -53 -66 -53 q-65 0 -65 53v1194h-127q-48 0 -48 53z" />
<glyph unicode="&#x45c;" horiz-adv-x="944" d="M143 37v979q0 53 66 53q65 0 65 -53v-488q11 16 48 39l137 82q221 132 221 326v41q0 53 65 53q66 0 66 -53v-45q0 -121 -50 -209.5t-171 -171.5q140 -125 194 -230q58 -107 58 -276v-47q0 -53 -66 -53q-65 0 -65 53v35q0 143 -49 237q-51 97 -183 211l-131 -78 q-71 -41 -74 -71v-334q0 -53 -65 -53q-66 0 -66 53zM346 1290l203 209q35 37 74 -2t2 -78l-203 -209q-34 -38 -74 2q-39 39 -2 78z" />
<glyph unicode="&#x45d;" horiz-adv-x="991" d="M143 37v979q0 53 66 53q65 0 65 -53v-395l453 428q23 20 55 20q66 0 66 -53v-979q0 -53 -66 -53q-65 0 -65 53v833l-443 -413v-420q0 -53 -65 -53q-66 0 -66 53zM387 1290l203 209q34 37 74 -2q39 -39 2 -78l-203 -209q-35 -38 -74 2q-39 39 -2 78z" />
<glyph unicode="&#x45e;" horiz-adv-x="1007" d="M143 328v688q0 53 66 53q65 0 65 -53v-678q0 -115 64 -181.5t166 -66.5t165.5 66.5t63.5 181.5v678q0 53 66 53q65 0 65 -53v-1104q0 -171 -106.5 -271t-276.5 -100q-152 0 -262 84q-50 38 -10 86q41 50 86 10q83 -65 186 -65q117 0 184.5 70t67.5 194v168 q-82 -113 -248 -113q-138 0 -241 95q-101 94 -101 258zM260 1458q0 47 53 47q51 0 54 -47q6 -151 137 -151t137 151q3 47 53 47q54 0 54 -47q0 -111 -74 -182q-72 -72 -170 -72q-97 0 -172 72q-72 72 -72 182z" />
<glyph unicode="&#x45f;" horiz-adv-x="987" d="M143 72v944q0 53 66 53q65 0 65 -53v-901h439v901q0 53 65 53q66 0 66 -53v-944q0 -29 -21.5 -50.5t-50.5 -21.5h-213v-156q0 -53 -65 -53q-66 0 -66 53v156h-213q-29 0 -50.5 21.5t-21.5 50.5z" />
<glyph unicode="&#x490;" horiz-adv-x="968" d="M174 37v1343q0 62 47 62h551v196q0 54 70 54q69 0 69 -54v-258q0 -61 -47 -61h-551v-1282q0 -53 -69 -53q-70 0 -70 53z" />
<glyph unicode="&#x491;" horiz-adv-x="755" d="M143 37v962q0 54 66 54h375v155q0 54 65 54q66 0 66 -54v-217q0 -53 -66 -53h-375v-901q0 -53 -65 -53q-66 0 -66 53z" />
<glyph unicode="&#x2000;" horiz-adv-x="957" />
<glyph unicode="&#x2001;" horiz-adv-x="1914" />
<glyph unicode="&#x2002;" horiz-adv-x="957" />
<glyph unicode="&#x2003;" horiz-adv-x="1914" />
<glyph unicode="&#x2004;" horiz-adv-x="638" />
<glyph unicode="&#x2005;" horiz-adv-x="478" />
<glyph unicode="&#x2006;" horiz-adv-x="319" />
<glyph unicode="&#x2007;" horiz-adv-x="319" />
<glyph unicode="&#x2008;" horiz-adv-x="239" />
<glyph unicode="&#x2009;" horiz-adv-x="382" />
<glyph unicode="&#x200a;" horiz-adv-x="106" />
<glyph unicode="&#x2010;" horiz-adv-x="843" d="M123 682q0 63 49 63h500q49 0 49 -63q0 -64 -49 -64h-500q-49 0 -49 64z" />
<glyph unicode="&#x2011;" horiz-adv-x="843" d="M123 682q0 63 49 63h500q49 0 49 -63q0 -64 -49 -64h-500q-49 0 -49 64z" />
<glyph unicode="&#x2012;" horiz-adv-x="843" d="M123 682q0 63 49 63h500q49 0 49 -63q0 -64 -49 -64h-500q-49 0 -49 64z" />
<glyph unicode="&#x2013;" horiz-adv-x="1024" d="M-18.5 644.5q-13.5 35.5 0 70.5t45.5 30h970q32 5 45.5 -30t0 -70.5t-45.5 -30.5h-970q-32 -5 -45.5 30.5z" />
<glyph unicode="&#x2014;" horiz-adv-x="2048" d="M-18.5 644.5q-13.5 35.5 0 70.5t45.5 30h1994q32 5 45.5 -30t0 -70.5t-45.5 -30.5h-1994q-32 -5 -45.5 30.5z" />
<glyph unicode="&#x2018;" horiz-adv-x="552" d="M201 1214v21q0 91 39.5 184t107.5 162q33 36 78 2q49 -37 16 -76q-90 -110 -90 -276v-17q6 -49 -34.5 -69.5t-81.5 0t-35 69.5z" />
<glyph unicode="&#x2019;" horiz-adv-x="552" d="M143 1221q90 110 90 276v16q-6 49 35 69.5t82 0t35 -69.5v-20q0 -91 -39.5 -184t-107.5 -162q-33 -36 -78 -2q-50 38 -17 76z" />
<glyph unicode="&#x201a;" horiz-adv-x="552" d="M143 -188q90 110 90 276v16q-6 49 35 69.5t82 0t35 -69.5v-20q0 -91 -39.5 -184t-107.5 -162q-33 -36 -78 -2q-50 38 -17 76z" />
<glyph unicode="&#x201c;" horiz-adv-x="823" d="M201 1214v21q0 91 39.5 184t107.5 162q33 36 78 2q49 -37 16 -76q-90 -110 -90 -276v-17q6 -49 -34.5 -69.5t-81.5 0t-35 69.5zM471 1214v21q0 91 39.5 184t107.5 162q33 36 78 2q50 -38 17 -76q-90 -110 -90 -276v-17q6 -49 -35 -69.5t-82 0t-35 69.5z" />
<glyph unicode="&#x201d;" horiz-adv-x="823" d="M143 1221q90 110 90 276v16q-6 49 35 69.5t82 0t35 -69.5v-20q0 -91 -39.5 -184t-107.5 -162q-33 -36 -78 -2q-50 38 -17 76zM414 1221q90 110 90 276v16q-6 49 35 69.5t81.5 0t34.5 -69.5v-20q0 -91 -39.5 -184t-107.5 -162q-33 -36 -78 -2q-49 37 -16 76z" />
<glyph unicode="&#x201e;" horiz-adv-x="823" d="M143 -188q90 110 90 276v16q-6 49 35 69.5t82 0t35 -69.5v-20q0 -91 -39.5 -184t-107.5 -162q-33 -36 -78 -2q-50 38 -17 76zM414 -188q90 110 90 276v16q-6 49 35 69.5t81.5 0t34.5 -69.5v-20q0 -91 -39.5 -184t-107.5 -162q-33 -36 -78 -2q-49 37 -16 76z" />
<glyph unicode="&#x2026;" horiz-adv-x="1658" d="M201 55v49q-6 49 34.5 69.5t81.5 0t35 -69.5v-49q6 -49 -34.5 -69.5t-81.5 0t-35 69.5zM754 55v49q-6 49 35 69.5t81.5 0t34.5 -69.5v-49q6 -49 -34.5 -69.5t-81.5 0t-35 69.5zM1307 55v49q-6 49 34.5 69.5t81.5 0t35 -69.5v-49q6 -49 -35 -69.5t-81.5 0t-34.5 69.5z" />
<glyph unicode="&#x202f;" horiz-adv-x="382" />
<glyph unicode="&#x2039;" horiz-adv-x="714" d="M164 633q0 14 14 33l279 278q33 32 71 -6q42 -42 7 -72l-238 -233l238 -234q34 -30 -7 -71q-38 -38 -71 -6l-279 278q-14 19 -14 33z" />
<glyph unicode="&#x203a;" horiz-adv-x="714" d="M215 399l238 234l-238 233q-35 31 6 72q39 39 72 6l278 -278q13 -19 13 -33t-13 -33l-278 -278q-33 -33 -72 6q-41 41 -6 71z" />
<glyph unicode="&#x205f;" horiz-adv-x="478" />
<glyph unicode="&#x20ac;" horiz-adv-x="1271" d="M41 586q0 53 47 53h127v164h-127q-47 0 -47 53t47 53h127v84q0 214 127 344q129 129 330 129q203 0 329 -120q127 -121 127 -328v-8q0 -54 -69 -54q-70 0 -70 54v8q-1 154 -85.5 239.5t-231.5 85.5q-143 0 -230.5 -94t-87.5 -254v-86h443q47 0 47 -53t-47 -53h-443v-164 h443q47 0 47 -53q0 -54 -47 -54h-443v-86q0 -160 87.5 -254t230.5 -94q147 0 231.5 86t85.5 240v8q0 53 70 53q69 0 69 -53v-8q0 -207 -127 -328t-329 -121q-201 0 -330 129q-127 130 -127 345v83h-127q-47 0 -47 54z" />
<glyph unicode="&#x2122;" horiz-adv-x="1308" d="M20 1378q0 47 43 47h394q43 0 43 -47q0 -45 -43 -45h-144v-516q0 -41 -53 -41t-53 41v516h-144q-43 0 -43 45zM522 817v387q0 108 56 170t151 62q97 0 156 -74q59 74 155 74q95 0 151 -62t56 -170v-387q0 -41 -53 -41t-53 41v387q0 139 -101 139q-102 0 -102 -139v-387 q0 -41 -53 -41q-54 0 -54 41v387q0 139 -102 139q-100 0 -100 -139v-387q0 -41 -54 -41q-53 0 -53 41z" />
<glyph unicode="&#x25fc;" horiz-adv-x="1064" d="M0 0v1065h1065v-1065h-1065z" />
</font>
</defs>
</svg>
